<?xml version="1.0" standalone="no"?>
<!DOCTYPE svg PUBLIC "-//W3C//DTD SVG 1.1//EN" "http://www.w3.org/Graphics/SVG/1.1/DTD/svg11.dtd" >
<svg xmlns="http://www.w3.org/2000/svg" xmlns:xlink="http://www.w3.org/1999/xlink" version="1.1">
<metadata></metadata>
<defs>
<font id="bungee_layers_rotatedinline" horiz-adv-x="1802" >
<font-face units-per-em="2048" ascent="1761" descent="-287" />
<missing-glyph horiz-adv-x="468" />
<glyph horiz-adv-x="0" />
<glyph horiz-adv-x="682" />
<glyph unicode=" "  horiz-adv-x="468" />
<glyph unicode="&#x09;" horiz-adv-x="468" />
<glyph unicode="&#xa0;" horiz-adv-x="468" />
<glyph unicode="!" horiz-adv-x="1699" d="M297 729v21h569v-21h-569zM1423 750v-21h-88v21h88z" />
<glyph unicode="&#x22;" horiz-adv-x="1095" d="M348 412v20h400v-20h-400zM348 1047v20h400v-20h-400z" />
<glyph unicode="#" d="M1167 414v571l-542 78v-571zM1188 225h-21v168l-542 78v-172h-21v174l-256 37v20l256 -36v571l-256 37v20l256 -37v164h21v-166l542 -77v170h21v-172l266 -39v-21l-266 39v-571l266 -39v-21l-266 39v-166z" />
<glyph unicode="$" horiz-adv-x="2068" d="M1569 369v510q0 94 -52 150t-135 56h-118q-91 0 -129.5 -30.5t-51.5 -93.5l-88 -433q-12 -60 -45 -90t-112 -30h-168q-83 0 -135 57t-52 151v123h-186v21h186v311h21v-455q0 -85 46.5 -136.5t119.5 -51.5h168q68 0 97.5 26t39.5 78l88 433q13 69 57 105t144 36h118 q92 0 149.5 -62t57.5 -165v-119h183v-21h-183v-370h-20z" />
<glyph unicode="%" horiz-adv-x="1822" d="M1174 1257h198q89 0 125.5 -46.5t36.5 -157.5q0 -110 -37 -158.5t-125 -48.5h-198q-88 0 -126 48.5t-38 158.5t37.5 157t126.5 47zM1513 1053q0 98 -31.5 141t-109.5 43h-198q-78 0 -111 -43.5t-33 -140.5q0 -96 33 -141.5t111 -45.5h198q77 0 109 45t32 142zM1464 381 v-25l-1106 740v24zM453 629h198q89 0 125.5 -47t36.5 -158q0 -110 -37 -158.5t-125 -48.5h-198q-88 0 -126 48.5t-38 158.5q0 111 37.5 158t126.5 47zM793 424q0 97 -32 140.5t-110 43.5h-198q-78 0 -111 -43.5t-33 -140.5q0 -96 33 -141t111 -45h198q78 0 110 44.5 t32 141.5z" />
<glyph unicode="&#x26;" horiz-adv-x="1708" d="M1051 307q-106 0 -169 63.5t-63 186.5v14q-43 -106 -198 -106h-105q-119 0 -172 58t-53 184v174h20v-174q0 -116 49.5 -169t159.5 -53h101q100 0 148 46t48 143v20h21v-137q0 -113 58.5 -171t154.5 -58h125q104 0 152 55t48 176v410q0 83 -42 126.5t-124 43.5h-276v153 h20v-133h256q187 0 187 -190v-422q0 -122 -54 -181t-167 -59h-125z" />
<glyph unicode="'" horiz-adv-x="1062" d="M332 729v21h399v-21h-399z" />
<glyph unicode="(" horiz-adv-x="878" d="M602 45v-20q-142 0 -211 51t-69 180v965q0 129 68.5 180t211.5 51v-20q-132 0 -196 -45.5t-64 -165.5v-965q0 -119 64.5 -165t195.5 -46z" />
<glyph unicode=")" horiz-adv-x="878" d="M276 1432v20q142 0 211.5 -51t69.5 -180v-965q0 -129 -69 -180t-212 -51v20q132 0 196.5 45.5t64.5 165.5v965q0 119 -65 165t-196 46z" />
<glyph unicode="*" horiz-adv-x="1519" d="M1077 504l-311 217l-115 -352l-20 8l117 356h-400v21h400l-117 356l20 8l115 -352l311 217l13 -16l-318 -224l318 -223z" />
<glyph unicode="+" horiz-adv-x="1470" d="M725 313v414h-414v21h414v413h20v-413h414v-21h-414v-414h-20z" />
<glyph unicode="," horiz-adv-x="1021" d="M362 874h244q92 0 139.5 -47.5t47.5 -132.5v-94h-21v94q0 75 -42 117.5t-124 42.5h-223v-254h-21v274z" />
<glyph unicode="-" horiz-adv-x="860" d="M594 750v-21h-328v21h328z" />
<glyph unicode="." horiz-adv-x="890" d="M543 725h-195v20h195v-20z" />
<glyph unicode="/" horiz-adv-x="1861" d="M195 834v20l1474 -213v-20z" />
<glyph unicode="0" horiz-adv-x="1769" d="M1188 1130q66 0 114 -18t86 -61.5t57 -122t19 -193.5q0 -114 -19 -192t-57 -120.5t-86 -60.5t-114 -18h-604q-66 0 -114 18t-86 60.5t-57.5 120.5t-19.5 192t19.5 193t57.5 122.5t86 61.5t114 18h604zM1188 365q61 0 105.5 17t79.5 57t53 114t18 182q0 109 -18 183.5 t-53 115.5t-79.5 58.5t-105.5 17.5h-604q-61 0 -105.5 -17.5t-79.5 -58.5t-53 -115.5t-18 -183.5q0 -108 18 -182t53 -114t79.5 -57t105.5 -17h604z" />
<glyph unicode="1" horiz-adv-x="1785" d="M1417 752h-1065v-308h-20v328h1085v315h21v-643h-21v308z" />
<glyph unicode="2" horiz-adv-x="1785" d="M799 1047q-16 59 -97 59h-192q-89 0 -123.5 -50t-34.5 -149v-559h-20v559q0 110 40 164.5t138 54.5h192q96 0 115 -71l148 -588q15 -59 47 -80.5t102 -21.5h303v802h21v-821h-324q-76 0 -114.5 25.5t-53.5 87.5z" />
<glyph unicode="3" horiz-adv-x="1769" d="M887 897v-424h-21v283q0 60 -10.5 103t-26.5 66.5t-42 37t-49.5 17t-57.5 3.5h-139q-43 0 -75 -11t-59 -37.5t-41 -76.5t-14 -123v-428h-20v428q0 82 16.5 137.5t48 83t67.5 38t85 10.5h131q34 0 59.5 -4.5t53.5 -17t47.5 -41.5t29.5 -73v33q0 124 56 181t166 57h141 q50 0 84 -10t63 -38t43.5 -83t14.5 -138v-563h-21v563q0 75 -12.5 125t-38 76.5t-57 36.5t-76.5 10h-141q-105 0 -155 -52t-50 -169z" />
<glyph unicode="4" horiz-adv-x="1724" d="M322 346v21h528q99 0 146.5 50.5t47.5 155.5v537h-722v20h1105v-20h-362v-537q0 -117 -53 -172t-162 -55h-528z" />
<glyph unicode="5" horiz-adv-x="1785" d="M1434 307v592q0 115 -42.5 164t-138.5 49h-180q-95 0 -137.5 -48t-42.5 -146v-551h-545v731h21v-711h503v531q0 109 48.5 162t152.5 53h180q106 0 153.5 -54t47.5 -180v-592h-20z" />
<glyph unicode="6" horiz-adv-x="1759" d="M1208 354q128 0 183 92t55 306q0 198 -55 283t-183 85h-139q-120 0 -170.5 -83.5t-50.5 -278.5q0 -218 49.5 -311t165.5 -93h145zM557 334q-130 0 -182.5 68t-52.5 206v414h20v-414q0 -127 47 -190.5t168 -63.5h408q-73 32 -105.5 128.5t-32.5 275.5q0 206 56 294.5 t186 88.5h139q140 0 199 -89t59 -300q0 -226 -59.5 -322t-198.5 -96h-651z" />
<glyph unicode="7" horiz-adv-x="1755" d="M369 307h-21v821h471q98 0 115 -71l98 -426q6 -27 31 -43.5t63 -16.5h328v-20h-328q-46 0 -76 19.5t-38 52.5l-99 426q-14 59 -94 59h-450v-801z" />
<glyph unicode="8" horiz-adv-x="1769" d="M1079 350h189q95 0 145.5 89.5t50.5 299.5q0 142 -25 230t-67 122.5t-104 34.5h-191q-96 0 -148 -90t-52 -297q0 -389 202 -389zM1079 330q-178 0 -213 254q-17 -97 -60 -142t-116 -45h-211q-97 0 -144.5 82.5t-47.5 259.5q0 179 50.5 259.5t158.5 80.5h194 q73 0 116 -43.5t60 -140.5q19 138 73.5 195t137.5 57h191q51 0 88 -18.5t67.5 -62.5t46 -126t15.5 -201t-15.5 -201t-46 -126.5t-67.5 -63t-88 -18.5h-189zM479 418h211q88 0 127 78t39 243t-39 242.5t-127 77.5h-194q-100 0 -144.5 -78t-44.5 -242q0 -163 41.5 -242 t130.5 -79z" />
<glyph unicode="9" horiz-adv-x="1761" d="M692 334h-139q-140 0 -199 89t-59 300q0 226 59.5 322t198.5 96h651q131 0 183.5 -68.5t52.5 -206.5v-413h-21v413q0 127 -47 190.5t-168 63.5h-407q73 -32 105 -128t32 -275q0 -206 -56 -294.5t-186 -88.5zM692 354q120 0 170.5 83.5t50.5 279.5q0 218 -49.5 310.5 t-165.5 92.5h-145q-128 0 -183 -92t-55 -305q0 -198 55 -283.5t183 -85.5h139z" />
<glyph unicode=":" horiz-adv-x="1605" d="M532 725h-194v20h194v-20zM1260 725h-195v20h195v-20z" />
<glyph unicode=";" horiz-adv-x="1759" d="M1079 874h244q92 0 139 -47.5t47 -132.5v-94h-20v94q0 75 -42 117.5t-124 42.5h-223v-254h-21v274zM532 725h-194v20h194v-20z" />
<glyph unicode="&#x3c;" horiz-adv-x="1486" d="M1118 1100h21l-176 -615q-16 -58 -49.5 -88t-96.5 -30h-147q-63 0 -93 29.5t-47 88.5l-176 615h21l176 -611q14 -50 39.5 -76t79.5 -26h147q54 0 82.5 27t42.5 75z" />
<glyph unicode="=" horiz-adv-x="1323" d="M979 313h-21v848h21v-848zM365 313h-21v848h21v-848z" />
<glyph unicode="&#x3e;" horiz-adv-x="1486" d="M963 989l176 -614h-21l-176 610q-14 48 -42.5 75t-82.5 27h-147q-54 0 -79.5 -26t-39.5 -76l-176 -610h-21l176 614q17 59 47 89t93 30h147q63 0 96 -30.5t50 -88.5z" />
<glyph unicode="?" horiz-adv-x="1734" d="M926 526l-23 -4l-59 443q-4 24 -8 38t-13 30.5t-26 24t-43 7.5h-232q-91 0 -128.5 -49t-37.5 -123v-551h-20v551q0 192 186 192h232q57 0 80 -30t30 -86zM1458 573h-88v21h88v-21z" />
<glyph unicode="@" horiz-adv-x="2101" d="M625 63q-73 0 -126.5 12t-110 53.5t-92 112.5t-58.5 196.5t-23 299.5q0 125 12 225t31.5 169.5t50.5 120.5t64 81t77 47.5t84 23t91 5.5h544q154 0 222.5 -56t68.5 -184v-536q0 -99 -48 -140.5t-159 -41.5h-329q-30 0 -46.5 1t-43 6t-41.5 15t-33.5 29t-27.5 47.5t-16 71 t-7 98.5v295h731v155q0 119 -64 169.5t-207 50.5h-544q-69 0 -120.5 -12.5t-105 -53.5t-87 -110.5t-55 -190t-21.5 -285.5t21.5 -285.5t55 -190.5t86.5 -110.5t105 -53.5t121 -13h856q48 0 86.5 6t80 23.5t73 47.5t60.5 79.5t48 117t30 163.5t11 216v357h20v-357 q0 -126 -12 -226.5t-31.5 -170t-50.5 -120.5t-64 -81t-77 -47.5t-84 -23t-90 -5.5h-856zM1253 471q100 0 143.5 36.5t43.5 125.5v360h-711v-274q0 -44 4 -80t13 -61t18.5 -43.5t25 -30t28.5 -18.5t33.5 -10t35 -4t37.5 -1h329z" />
<glyph unicode="A" horiz-adv-x="1738" d="M1417 336h-436q-109 0 -199 35l-336 131q-37 15 -54.5 24t-40 26t-31.5 41t-9 58v158q0 33 9 55.5t31.5 40t40.5 26.5t57 25l333 142q90 35 199 35h436v-21h-352v-756h352v-20zM981 356h63v756h-63q-99 0 -190 -33l-334 -141q-36 -15 -51.5 -23t-36.5 -23.5t-29 -35.5 t-8 -47v-158q0 -30 8.5 -51t28 -36t36.5 -23t50 -21l336 -131q91 -33 190 -33z" />
<glyph unicode="B" horiz-adv-x="1763" d="M881 883v-514h530v512q0 75 -12.5 124.5t-38 76t-56.5 36.5t-77 10h-131q-51 0 -86.5 -9.5t-66.5 -35t-46.5 -75.5t-15.5 -125zM1432 348h-1106v397q0 82 16.5 137.5t48 83t67.5 38t85 10.5h131q35 0 60 -4.5t51.5 -17t45 -40t29.5 -69.5q0 82 17 136.5t51 82t73 37.5 t95 10h131q50 0 84 -10t63 -37.5t43.5 -82.5t14.5 -138v-533zM346 745v-376h514v376q0 81 -14.5 133t-43 76t-57 31.5t-71.5 7.5h-131q-45 0 -78 -10t-61.5 -36t-43 -76.5t-14.5 -125.5z" />
<glyph unicode="C" horiz-adv-x="1769" d="M1417 1149h21v-483q0 -132 -27.5 -203.5t-82 -98t-154.5 -26.5h-574q-76 0 -124.5 14.5t-82 51.5t-47.5 100t-14 162v483h20v-483q0 -122 25 -188.5t77 -93t146 -26.5h574q93 0 143.5 26t75 92.5t24.5 189.5v483z" />
<glyph unicode="D" horiz-adv-x="1769" d="M332 346v467q0 81 15 141t39 95.5t62 56.5t77 28t91 7h543q66 0 111.5 -12t86 -45t61 -100.5t20.5 -170.5v-467h-1106zM352 813v-446h1065v446q0 95 -18.5 158t-55.5 94.5t-79.5 43t-104.5 11.5h-543q-61 0 -105 -12t-82 -44t-57.5 -94.5t-19.5 -156.5z" />
<glyph unicode="E" d="M1454 344h-1106v805h21v-784h514v618h20v-618h531v784h20v-805z" />
<glyph unicode="F" horiz-adv-x="1753" d="M350 350v801h21v-780h585v614h21v-614h479v-21h-1106z" />
<glyph unicode="G" horiz-adv-x="1759" d="M590 336q-76 0 -124.5 14.5t-82 51.5t-47.5 100t-14 162v370h20v-370q0 -122 25 -188.5t77 -93t146 -26.5h573q92 0 143.5 30t76 105.5t24.5 213.5v405h-391v20h411v-425q0 -150 -27.5 -230t-82 -109.5t-154.5 -29.5h-573z" />
<glyph unicode="H" horiz-adv-x="1748" d="M322 346v21h542v741h-542v20h1105v-20h-542v-741h542v-21h-1105z" />
<glyph unicode="I" d="M1434 326v401h-1065v-401h-21v823h21v-401h1065v401h20v-823h-20z" />
<glyph unicode="J" horiz-adv-x="1736" d="M297 1106v20h854q64 0 112 -18.5t86 -61t58 -119.5t20 -188q0 -95 -13.5 -166t-36.5 -116t-58.5 -72.5t-75.5 -38t-92 -10.5h-172v20h172q61 0 106 18.5t80 61t52.5 118.5t17.5 185q0 104 -18 176.5t-53 113.5t-80 59t-105 18h-854z" />
<glyph unicode="K" horiz-adv-x="1748" d="M322 348v21h544v409l-544 236v22l544 -235v84q0 128 47.5 188t153.5 60h360v-21h-360q-96 0 -138 -55t-42 -172v-516h540v-21h-1105z" />
<glyph unicode="L" horiz-adv-x="1751" d="M297 348v21h1085v751h-403v21h424v-793h-1106z" />
<glyph unicode="M" horiz-adv-x="1748" d="M864 729q0 30 -14 44t-72 40l-422 191q-34 15 -34 67v43q0 31 15 45.5t48 14.5l1042 4v-21l-1042 -4q-43 0 -43 -39v-39q0 -14 1 -21.5t8 -17.5t20 -16l417 -191q60 -27 78.5 -45.5t18.5 -54.5t-18.5 -54.5t-78.5 -45.5l-417 -191q-13 -6 -20 -16t-8 -17.5t-1 -21.5v-31 q0 -47 43 -47l1042 -4v-20l-1042 4q-34 0 -48.5 16t-14.5 51v35q0 54 34 68l422 190q55 25 70.5 40t15.5 44z" />
<glyph unicode="N" horiz-adv-x="1748" d="M319 365q0 11 19 30l848 721h-864v21h1105v-21h-210l-869 -741q-6 -6 -6 -10q0 -5 6 -5h1079v-20h-1083q-11 0 -18 7.5t-7 17.5z" />
<glyph unicode="O" horiz-adv-x="1769" d="M1188 1139q65 0 113.5 -20t86 -65t57 -125t19.5 -194t-19 -193t-57 -122.5t-86 -62.5t-114 -19h-604q-66 0 -114 19t-86 62.5t-57.5 122.5t-19.5 193t19.5 194t57.5 125t86.5 65t113.5 20h604zM1188 358q61 0 105.5 18t79.5 59.5t53 116.5t18 183t-18 184t-53 118.5 t-80 61.5t-105 19h-604q-60 0 -105 -19t-80 -61.5t-53 -118.5t-18 -184t18 -183t53 -116.5t79.5 -59.5t105.5 -18h604z" />
<glyph unicode="P" horiz-adv-x="1734" d="M1034 842v-475h404v-21h-1106v496q0 94 20 156.5t60 94.5t86.5 44t111.5 12h152q65 0 110.5 -12t84.5 -44t58 -94.5t19 -156.5zM1014 367v475q0 88 -18 146.5t-54 88t-78 40.5t-102 11h-152q-60 0 -103 -11t-80 -40.5t-56 -88t-19 -146.5v-475h662z" />
<glyph unicode="Q" horiz-adv-x="1912" d="M586 338q-66 0 -114 19t-86 62.5t-57.5 122.5t-19.5 193t19.5 194t57.5 125t86.5 65t113.5 20h604q64 0 112.5 -19.5t86 -63.5t57 -122t20.5 -189h158v-20h-158q-1 -111 -21 -188t-57.5 -119.5t-85 -61t-112.5 -18.5h-604zM1190 358q61 0 105.5 18t79.5 59.5t53 116.5 t18 183t-18 184t-53 118.5t-80 61.5t-105 19h-604q-60 0 -105 -19t-80 -61.5t-53 -118.5t-18 -184t18 -183t53 -116.5t79.5 -59.5t105.5 -18h604z" />
<glyph unicode="R" horiz-adv-x="1759" d="M332 344v467q0 116 63.5 174.5t169.5 58.5h142q101 0 158 -26t79 -96v22q0 120 52 162.5t167 42.5h275v-21h-275q-109 0 -154.5 -36.5t-45.5 -147.5v-579h475v-21h-1106zM352 811v-446h592v446q0 122 -57 167.5t-178 45.5h-144q-99 0 -156 -53.5t-57 -159.5z" />
<glyph unicode="S" horiz-adv-x="1769" d="M332 1116h20v-561q0 -87 44.5 -137.5t121.5 -50.5h189q61 0 100 39t45 106l43 436q18 182 186 182h170q86 0 136.5 -61.5t50.5 -165.5v-596h-21v596q0 95 -45 151t-121 56h-170q-151 0 -166 -166l-43 -436q-8 -75 -52 -118.5t-113 -43.5h-189q-86 0 -136 56t-50 153v561z " />
<glyph unicode="T" horiz-adv-x="1751" d="M1454 727h-1085v-420h-21v860h21v-419h1085v-21z" />
<glyph unicode="U" horiz-adv-x="1759" d="M322 348v21h854q61 0 105.5 17t79.5 57t53 112t18 176q0 109 -18 184.5t-53 118t-79.5 60.5t-105.5 18h-854v21h854q52 0 92.5 -11.5t76 -40t58.5 -73.5t36 -115t13 -162q0 -110 -19 -186.5t-57 -118.5t-86 -60t-114 -18h-854z" />
<glyph unicode="V" horiz-adv-x="1738" d="M758 336h-436v20h436q99 0 190 33l334 141q36 15 51.5 23t36.5 23.5t29 35.5t8 47v158q0 30 -8.5 51t-28 36t-36.5 23t-50 21l-336 131q-91 33 -190 33h-436v21h436q108 0 198 -35l336 -131q36 -15 54.5 -24t40.5 -26.5t31 -41.5t9 -58v-158q0 -33 -9 -56t-31 -40 t-40.5 -26t-56.5 -25l-334 -141q-90 -35 -198 -35z" />
<glyph unicode="W" horiz-adv-x="1748" d="M905 776q0 35 20 58.5t76 42.5l377 127q29 10 29 55v10q0 17 -12.5 30.5t-30.5 16.5l-234 51q-56 11 -206 11h-602v20h604q164 0 207 -10l231 -51q63 -14 63 -68v-14q0 -56 -34 -68l-381 -127q-54 -19 -70 -37.5t-16 -46.5v-51q0 -28 16 -46.5t70 -37.5l381 -133 q34 -12 34 -68v-14q0 -54 -63 -68l-231 -51q-43 -10 -207 -10h-604v20h602q150 0 206 11l234 51q18 3 30.5 16.5t12.5 30.5v10q0 46 -29 56l-377 133q-57 21 -76.5 43t-19.5 57v51z" />
<glyph unicode="X" horiz-adv-x="1748" d="M1335 362h92v-20h-92q-38 0 -58 1t-48.5 8t-50.5 22l-336 225l-332 -225q-46 -31 -158 -31h-30v20h30q106 0 150 29l332 225v248l-332 221q-42 29 -150 29h-30v21h30q39 0 59 -1t49 -8t50 -22l336 -225l332 225q46 31 157 31h92v-21h-92q-105 0 -149 -29l-332 -223v-250 l332 -221q43 -29 149 -29z" />
<glyph unicode="Y" horiz-adv-x="1724" d="M322 342v20h235q106 0 150 29l266 178q74 50 74 131v70q0 83 -74 133l-266 184q-42 29 -150 29h-235v21h235q112 0 158 -31l266 -184q86 -61 86 -152v-22h360v-21h-360v-27q0 -90 -86 -149l-266 -178q-46 -31 -158 -31h-235z" />
<glyph unicode="Z" d="M524 1116l770 -760q21 -16 33 -22t31 -6h28q48 0 48 43v796h20v-796q0 -34 -16.5 -49t-51.5 -15h-32q-32 0 -76 35l-770 760q-28 28 -64 28h-28q-47 0 -47 -43v-763h-21v763q0 34 16.5 49t51.5 15h33q40 0 75 -35z" />
<glyph unicode="[" horiz-adv-x="878" d="M322 1452h280v-20h-260v-1387h260v-20h-280v1427z" />
<glyph unicode="\" horiz-adv-x="1861" d="M195 641l1474 213v-20l-1474 -213v20z" />
<glyph unicode="]" horiz-adv-x="878" d="M557 1452v-1427h-281v20h261v1387h-261v20h281z" />
<glyph unicode="^" horiz-adv-x="1404" d="M1057 1092v-23l-617 -176q-27 -7 -43 -13.5t-33.5 -19t-25.5 -33.5t-8 -51v-149q0 -30 7.5 -50.5t26 -33t33.5 -18.5t45 -15l615 -174v-23l-619 176q-67 18 -98 45t-31 93v149q0 65 31 92t96 45z" />
<glyph unicode="_" horiz-adv-x="708" d="M344 1161h21v-848h-21v848z" />
<glyph unicode="`" horiz-adv-x="536" d="M248 492h-21l62 489h20z" />
<glyph unicode="a" horiz-adv-x="1738" d="M1417 336h-436q-109 0 -199 35l-336 131q-37 15 -54.5 24t-40 26t-31.5 41t-9 58v158q0 33 9 55.5t31.5 40t40.5 26.5t57 25l333 142q90 35 199 35h436v-21h-352v-756h352v-20zM981 356h63v756h-63q-99 0 -190 -33l-334 -141q-36 -15 -51.5 -23t-36.5 -23.5t-29 -35.5 t-8 -47v-158q0 -30 8.5 -51t28 -36t36.5 -23t50 -21l336 -131q91 -33 190 -33z" />
<glyph unicode="b" horiz-adv-x="1763" d="M881 883v-514h530v512q0 75 -12.5 124.5t-38 76t-56.5 36.5t-77 10h-131q-51 0 -86.5 -9.5t-66.5 -35t-46.5 -75.5t-15.5 -125zM1432 348h-1106v397q0 82 16.5 137.5t48 83t67.5 38t85 10.5h131q35 0 60 -4.5t51.5 -17t45 -40t29.5 -69.5q0 82 17 136.5t51 82t73 37.5 t95 10h131q50 0 84 -10t63 -37.5t43.5 -82.5t14.5 -138v-533zM346 745v-376h514v376q0 81 -14.5 133t-43 76t-57 31.5t-71.5 7.5h-131q-45 0 -78 -10t-61.5 -36t-43 -76.5t-14.5 -125.5z" />
<glyph unicode="c" horiz-adv-x="1769" d="M1417 1149h21v-483q0 -132 -27.5 -203.5t-82 -98t-154.5 -26.5h-574q-76 0 -124.5 14.5t-82 51.5t-47.5 100t-14 162v483h20v-483q0 -122 25 -188.5t77 -93t146 -26.5h574q93 0 143.5 26t75 92.5t24.5 189.5v483z" />
<glyph unicode="d" horiz-adv-x="1769" d="M332 346v467q0 81 15 141t39 95.5t62 56.5t77 28t91 7h543q66 0 111.5 -12t86 -45t61 -100.5t20.5 -170.5v-467h-1106zM352 813v-446h1065v446q0 95 -18.5 158t-55.5 94.5t-79.5 43t-104.5 11.5h-543q-61 0 -105 -12t-82 -44t-57.5 -94.5t-19.5 -156.5z" />
<glyph unicode="e" d="M1454 344h-1106v805h21v-784h514v618h20v-618h531v784h20v-805z" />
<glyph unicode="f" horiz-adv-x="1753" d="M350 350v801h21v-780h585v614h21v-614h479v-21h-1106z" />
<glyph unicode="g" horiz-adv-x="1759" d="M590 336q-76 0 -124.5 14.5t-82 51.5t-47.5 100t-14 162v370h20v-370q0 -122 25 -188.5t77 -93t146 -26.5h573q92 0 143.5 30t76 105.5t24.5 213.5v405h-391v20h411v-425q0 -150 -27.5 -230t-82 -109.5t-154.5 -29.5h-573z" />
<glyph unicode="h" horiz-adv-x="1748" d="M322 346v21h542v741h-542v20h1105v-20h-542v-741h542v-21h-1105z" />
<glyph unicode="i" d="M1434 326v401h-1065v-401h-21v823h21v-401h1065v401h20v-823h-20z" />
<glyph unicode="j" horiz-adv-x="1736" d="M297 1106v20h854q64 0 112 -18.5t86 -61t58 -119.5t20 -188q0 -95 -13.5 -166t-36.5 -116t-58.5 -72.5t-75.5 -38t-92 -10.5h-172v20h172q61 0 106 18.5t80 61t52.5 118.5t17.5 185q0 104 -18 176.5t-53 113.5t-80 59t-105 18h-854z" />
<glyph unicode="k" horiz-adv-x="1748" d="M322 348v21h544v409l-544 236v22l544 -235v84q0 128 47.5 188t153.5 60h360v-21h-360q-96 0 -138 -55t-42 -172v-516h540v-21h-1105z" />
<glyph unicode="l" horiz-adv-x="1751" d="M297 348v21h1085v751h-403v21h424v-793h-1106z" />
<glyph unicode="m" horiz-adv-x="1748" d="M864 729q0 30 -14 44t-72 40l-422 191q-34 15 -34 67v43q0 31 15 45.5t48 14.5l1042 4v-21l-1042 -4q-43 0 -43 -39v-39q0 -14 1 -21.5t8 -17.5t20 -16l417 -191q60 -27 78.5 -45.5t18.5 -54.5t-18.5 -54.5t-78.5 -45.5l-417 -191q-13 -6 -20 -16t-8 -17.5t-1 -21.5v-31 q0 -47 43 -47l1042 -4v-20l-1042 4q-34 0 -48.5 16t-14.5 51v35q0 54 34 68l422 190q55 25 70.5 40t15.5 44z" />
<glyph unicode="n" horiz-adv-x="1748" d="M319 365q0 11 19 30l848 721h-864v21h1105v-21h-210l-869 -741q-6 -6 -6 -10q0 -5 6 -5h1079v-20h-1083q-11 0 -18 7.5t-7 17.5z" />
<glyph unicode="o" horiz-adv-x="1769" d="M1188 1139q65 0 113.5 -20t86 -65t57 -125t19.5 -194t-19 -193t-57 -122.5t-86 -62.5t-114 -19h-604q-66 0 -114 19t-86 62.5t-57.5 122.5t-19.5 193t19.5 194t57.5 125t86.5 65t113.5 20h604zM1188 358q61 0 105.5 18t79.5 59.5t53 116.5t18 183t-18 184t-53 118.5 t-80 61.5t-105 19h-604q-60 0 -105 -19t-80 -61.5t-53 -118.5t-18 -184t18 -183t53 -116.5t79.5 -59.5t105.5 -18h604z" />
<glyph unicode="p" horiz-adv-x="1734" d="M1034 842v-475h404v-21h-1106v496q0 94 20 156.5t60 94.5t86.5 44t111.5 12h152q65 0 110.5 -12t84.5 -44t58 -94.5t19 -156.5zM1014 367v475q0 88 -18 146.5t-54 88t-78 40.5t-102 11h-152q-60 0 -103 -11t-80 -40.5t-56 -88t-19 -146.5v-475h662z" />
<glyph unicode="q" horiz-adv-x="1912" d="M586 338q-66 0 -114 19t-86 62.5t-57.5 122.5t-19.5 193t19.5 194t57.5 125t86.5 65t113.5 20h604q64 0 112.5 -19.5t86 -63.5t57 -122t20.5 -189h158v-20h-158q-1 -111 -21 -188t-57.5 -119.5t-85 -61t-112.5 -18.5h-604zM1190 358q61 0 105.5 18t79.5 59.5t53 116.5 t18 183t-18 184t-53 118.5t-80 61.5t-105 19h-604q-60 0 -105 -19t-80 -61.5t-53 -118.5t-18 -184t18 -183t53 -116.5t79.5 -59.5t105.5 -18h604z" />
<glyph unicode="r" horiz-adv-x="1759" d="M332 344v467q0 116 63.5 174.5t169.5 58.5h142q101 0 158 -26t79 -96v22q0 120 52 162.5t167 42.5h275v-21h-275q-109 0 -154.5 -36.5t-45.5 -147.5v-579h475v-21h-1106zM352 811v-446h592v446q0 122 -57 167.5t-178 45.5h-144q-99 0 -156 -53.5t-57 -159.5z" />
<glyph unicode="s" horiz-adv-x="1769" d="M332 1116h20v-561q0 -87 44.5 -137.5t121.5 -50.5h189q61 0 100 39t45 106l43 436q18 182 186 182h170q86 0 136.5 -61.5t50.5 -165.5v-596h-21v596q0 95 -45 151t-121 56h-170q-151 0 -166 -166l-43 -436q-8 -75 -52 -118.5t-113 -43.5h-189q-86 0 -136 56t-50 153v561z " />
<glyph unicode="t" horiz-adv-x="1751" d="M1454 727h-1085v-420h-21v860h21v-419h1085v-21z" />
<glyph unicode="u" horiz-adv-x="1759" d="M322 348v21h854q61 0 105.5 17t79.5 57t53 112t18 176q0 109 -18 184.5t-53 118t-79.5 60.5t-105.5 18h-854v21h854q52 0 92.5 -11.5t76 -40t58.5 -73.5t36 -115t13 -162q0 -110 -19 -186.5t-57 -118.5t-86 -60t-114 -18h-854z" />
<glyph unicode="v" horiz-adv-x="1738" d="M758 336h-436v20h436q99 0 190 33l334 141q36 15 51.5 23t36.5 23.5t29 35.5t8 47v158q0 30 -8.5 51t-28 36t-36.5 23t-50 21l-336 131q-91 33 -190 33h-436v21h436q108 0 198 -35l336 -131q36 -15 54.5 -24t40.5 -26.5t31 -41.5t9 -58v-158q0 -33 -9 -56t-31 -40 t-40.5 -26t-56.5 -25l-334 -141q-90 -35 -198 -35z" />
<glyph unicode="w" horiz-adv-x="1748" d="M905 776q0 35 20 58.5t76 42.5l377 127q29 10 29 55v10q0 17 -12.5 30.5t-30.5 16.5l-234 51q-56 11 -206 11h-602v20h604q164 0 207 -10l231 -51q63 -14 63 -68v-14q0 -56 -34 -68l-381 -127q-54 -19 -70 -37.5t-16 -46.5v-51q0 -28 16 -46.5t70 -37.5l381 -133 q34 -12 34 -68v-14q0 -54 -63 -68l-231 -51q-43 -10 -207 -10h-604v20h602q150 0 206 11l234 51q18 3 30.5 16.5t12.5 30.5v10q0 46 -29 56l-377 133q-57 21 -76.5 43t-19.5 57v51z" />
<glyph unicode="x" horiz-adv-x="1748" d="M1335 362h92v-20h-92q-38 0 -58 1t-48.5 8t-50.5 22l-336 225l-332 -225q-46 -31 -158 -31h-30v20h30q106 0 150 29l332 225v248l-332 221q-42 29 -150 29h-30v21h30q39 0 59 -1t49 -8t50 -22l336 -225l332 225q46 31 157 31h92v-21h-92q-105 0 -149 -29l-332 -223v-250 l332 -221q43 -29 149 -29z" />
<glyph unicode="y" horiz-adv-x="1724" d="M322 342v20h235q106 0 150 29l266 178q74 50 74 131v70q0 83 -74 133l-266 184q-42 29 -150 29h-235v21h235q112 0 158 -31l266 -184q86 -61 86 -152v-22h360v-21h-360v-27q0 -90 -86 -149l-266 -178q-46 -31 -158 -31h-235z" />
<glyph unicode="z" d="M524 1116l770 -760q21 -16 33 -22t31 -6h28q48 0 48 43v796h20v-796q0 -34 -16.5 -49t-51.5 -15h-32q-32 0 -76 35l-770 760q-28 28 -64 28h-28q-47 0 -47 -43v-763h-21v763q0 34 16.5 49t51.5 15h33q40 0 75 -35z" />
<glyph unicode="{" horiz-adv-x="931" d="M655 25q-133 0 -196.5 57t-63.5 174v309q-131 19 -131 142v57q0 122 131 141v316q0 128 61 179.5t199 51.5v-20q-127 0 -183 -46.5t-56 -164.5v-332q-71 -7 -101 -37t-30 -88v-57q0 -58 30.5 -88t100.5 -37v-326q0 -107 59 -159t180 -52v-20z" />
<glyph unicode="|" horiz-adv-x="2109" d="M317 727v21h1475v-21h-1475z" />
<glyph unicode="}" horiz-adv-x="931" d="M537 256q0 -117 -64 -174t-197 -57v20q122 0 181 52t59 159v326q70 7 100.5 37t30.5 88v57q0 58 -30 88t-101 37v332q0 118 -56.5 164.5t-183.5 46.5v20q138 0 199.5 -51.5t61.5 -179.5v-316q131 -19 131 -141v-57q0 -123 -131 -142v-309z" />
<glyph unicode="~" horiz-adv-x="743" d="M375 313h-23q-21 75 -21.5 142t19.5 202l10 82l7 47q28 178 29 231q0 68 -21 144h22q5 -21 9 -39t6 -39t3.5 -34t0 -37.5t-2 -36t-4.5 -42t-6 -43t-8 -52t-8 -56.5l-6 -47l-10 -82q-20 -135 -18.5 -198.5t22.5 -141.5z" />
<glyph unicode="&#xa1;" horiz-adv-x="1699" d="M276 729v21h89v-21h-89zM1403 750v-21h-569v21h569z" />
<glyph unicode="&#xa2;" horiz-adv-x="1904" d="M485 848v256h21v-342q0 -121 25 -187.5t77 -93t146 -26.5h403q93 0 143.5 25.5t75.5 92t25 189.5v342h20v-256h187v-21h-187v-65q0 -132 -27.5 -203.5t-82 -98t-154.5 -26.5h-403q-102 0 -158 27.5t-83.5 98.5t-27.5 202v65h-188v21h188z" />
<glyph unicode="&#xa3;" d="M1454 389h-530v-139h-21v139h-321q-128 0 -181 70.5t-53 210.5v278h21v-278q0 -129 47.5 -194.5t165.5 -65.5h321v208h21v-208h510v712h-281v21h301v-754z" />
<glyph unicode="&#xa4;" horiz-adv-x="1810" d="M1407 221l-197 193q-56 -35 -159 -35h-291q-109 0 -166 37l-195 -191l-12 17l191 186q-99 80 -99 311q0 235 101 310l-193 188l12 16l197 -192q62 37 164 37h291q101 0 157 -35l199 194l12 -16l-192 -188q102 -79 102 -314q0 -240 -102 -313l192 -188zM1309 739 q0 101 -17.5 169t-53.5 104t-80 50.5t-107 14.5h-291q-63 0 -108 -14.5t-81 -50.5t-53.5 -104t-17.5 -169q0 -82 12 -142.5t33.5 -98t55 -60t71.5 -31t88 -8.5h291q63 0 107 14.5t80 50.5t53.5 104.5t17.5 170.5z" />
<glyph unicode="&#xa5;" d="M690 375q-45 -27 -86 -36t-112 -9h-144v20h144q67 0 105.5 8.5t80.5 32.5l235 176q40 31 56 59t16 66v96q0 38 -16 66t-56 59l-235 177q-42 24 -80 32t-106 8h-144v21h144q71 0 112 -9t86 -36l236 -176q45 -33 62.5 -65t17.5 -77v-38h184v329h20v-329h244v-21h-244v-334 h-20v334h-184v-37q0 -45 -17.5 -76.5t-62.5 -64.5z" />
<glyph unicode="&#xa6;" horiz-adv-x="2109" d="M317 727v21h471v-21h-471zM1321 727v21h471v-21h-471z" />
<glyph unicode="&#xa7;" d="M834 412q114 0 182.5 71.5t68.5 216.5v416h-116q-115 0 -183.5 -71.5t-68.5 -217.5v-415h117zM1470 381v432q0 166 -53 234.5t-190 68.5h-121v-416q0 -157 -74.5 -233t-197.5 -76h-259q-147 0 -205.5 73.5t-58.5 250.5v350h21v-350q0 -166 53 -234.5t190 -68.5h121v415 q0 157 74.5 233.5t198.5 76.5h258q147 0 205.5 -73.5t58.5 -250.5v-432h-21z" />
<glyph unicode="&#xa8;" horiz-adv-x="555" d="M326 1008v-21h-97v21h97zM326 479v-20h-97v20h97z" />
<glyph unicode="&#xa9;" horiz-adv-x="2099" d="M625 1409h856q70 0 124 -14t109 -57.5t91 -115.5t58.5 -195t22.5 -290q0 -168 -20.5 -290.5t-54.5 -195.5t-88 -116t-110.5 -57.5t-131.5 -14.5h-856q-51 0 -90 5t-84 21.5t-77.5 45.5t-64 80t-51 120.5t-31.5 171.5t-12 230t12 229.5t31.5 171.5t51 120.5t64 79t77.5 45 t84 21.5t90 5zM1866 737q0 158 -21 276t-55.5 188.5t-86 114t-104 58.5t-118.5 15h-856q-49 0 -86.5 -5.5t-79.5 -22t-73.5 -45t-61 -78t-48 -117t-29.5 -165t-11 -219.5t11 -219.5t29.5 -165.5t48 -117t61 -78t73.5 -45.5t79.5 -22t86.5 -5.5h856q72 0 126.5 15.5t105 58.5 t83 114.5t51.5 188.5t19 276zM1434 977v-248q0 -138 -43 -189t-150 -51h-412q-107 0 -149.5 52t-42.5 188v248h18v-248q0 -126 38.5 -172.5t135.5 -46.5h412q96 0 134 46.5t38 172.5v248h21z" />
<glyph unicode="&#xaa;" d="M1489 1053h16v-631h-16v631zM1085 436h-307q-75 0 -139 25l-238 92q-25 9 -38.5 15.5t-29 18.5t-22 29t-6.5 41v144q0 30 14.5 51t32 31t51.5 24l236 101q61 24 139 24h307v-18h-245v-559h245v-19zM778 455h43v559h-43q-63 0 -133 -25l-235 -98q-26 -12 -36 -17 t-25 -16.5t-20 -25t-5 -33.5v-137q0 -39 19.5 -57t64.5 -36l237 -92q61 -22 133 -22z" />
<glyph unicode="&#xab;" horiz-adv-x="1662" d="M1174 961l202 61v-21l-198 -61q-56 -16 -83.5 -41.5t-27.5 -83.5v-151q0 -58 28 -84.5t81 -40.5l200 -60v-20l-205 59q-62 17 -93 48t-31 98v151q0 66 31 96t96 50zM418 539l200 -60v-20l-204 59q-63 17 -94 48t-31 98v151q0 66 31 96t96 50l202 61v-21l-198 -61 q-57 -18 -84 -43t-27 -82v-151q0 -57 27.5 -83t81.5 -42z" />
<glyph unicode="&#xac;" horiz-adv-x="1175" d="M348 1141v-828h-20v848h516v-20h-496z" />
<glyph unicode="&#xad;" horiz-adv-x="860" d="M594 750v-21h-328v21h328z" />
<glyph unicode="&#xae;" horiz-adv-x="1363" d="M438 1145h492q65 0 109.5 -17t79.5 -61t52 -125.5t17 -204.5q0 -98 -11.5 -169.5t-32 -117t-54 -72.5t-71.5 -37.5t-89 -10.5h-492q-53 0 -91.5 10.5t-72 37.5t-54.5 72.5t-32.5 117t-11.5 169.5q0 123 17 204.5t52.5 125.5t81 61t111.5 17zM1167 737q0 92 -10 159 t-28.5 111t-48.5 70t-66 36.5t-84 10.5h-492q-50 0 -86 -10.5t-66.5 -36.5t-49.5 -70t-29 -111t-10 -159q0 -150 28.5 -236.5t79 -118.5t133.5 -32h492q61 0 102.5 17.5t73 60.5t46.5 119t15 190zM436 567v162q0 68 30.5 102.5t82.5 34.5h59q59 0 82 -39q6 99 96 99h117v-21 h-117q-75 0 -75 -86v-231h192v-21h-467zM457 729v-141h233v141q0 65 -20 91t-62 26h-59q-44 0 -68 -29.5t-24 -87.5z" />
<glyph unicode="&#xaf;" horiz-adv-x="509" d="M246 492v489h20v-489h-20z" />
<glyph unicode="&#xb0;" horiz-adv-x="1105" d="M422 999h264q91 0 126.5 -56t35.5 -206q0 -149 -36 -205.5t-126 -56.5h-264q-91 0 -127.5 56.5t-36.5 205.5q0 150 36.5 206t127.5 56zM827 737q0 136 -30.5 189t-110.5 53h-264q-80 0 -111.5 -53t-31.5 -189q0 -135 31.5 -188t111.5 -53h264q79 0 110 53t31 188z" />
<glyph unicode="&#xb1;" horiz-adv-x="1759" d="M725 313v414h-414v21h414v413h20v-413h414v-21h-414v-414h-20zM1417 313h-20v848h20v-848z" />
<glyph unicode="&#xb2;" horiz-adv-x="1634" d="M862 563l-112 344q-17 39 -68 39h-135q-63 0 -87 -34.5t-24 -104.5v-297h-18v297q0 81 28.5 120.5t100.5 39.5h135q65 0 84 -56l115 -342q14 -41 35.5 -56t68.5 -15h213v497h19v-516h-232q-55 0 -81.5 18t-41.5 66z" />
<glyph unicode="&#xb3;" horiz-adv-x="1634" d="M821 596h-18v121q0 53 -10 87t-31 49.5t-41 20.5t-51 5h-101q-63 0 -98 -38.5t-35 -138.5v-227h-18v227q0 115 40.5 155t116.5 40h95q25 0 43 -3t38.5 -12t35 -30t20.5 -53v22q0 92 40 133t120 41h100q76 0 113 -39t37 -155v-326h-19v326q0 102 -32.5 139t-98.5 37h-100 q-74 0 -110 -38t-36 -120v-223z" />
<glyph unicode="&#xb4;" horiz-adv-x="536" d="M289 492l-62 489h21l61 -489h-20z" />
<glyph unicode="&#xb5;" horiz-adv-x="1626" d="M1305 354h-983v21h546q61 0 105.5 17.5t79.5 58t53 113.5t18 177q0 203 -66 287t-190 84h-546v21h546q65 0 114 -19.5t86.5 -63.5t57 -121.5t19.5 -187.5q0 -306 -166 -366h326v-21z" />
<glyph unicode="&#xb6;" d="M1040 627h414v-21h-414v-8q0 -94 -19 -156.5t-58 -94.5t-84.5 -44t-110.5 -12h-141q-52 0 -91 7t-76 27t-60.5 53.5t-37.5 89t-14 130.5v516h1106v-20h-414v-467zM768 311q48 0 83.5 6.5t68.5 25t54 50t33.5 83t12.5 122.5v496h-651v-496q0 -71 13 -122.5t35 -83t56 -50 t70 -25t84 -6.5h141z" />
<glyph unicode="&#xb7;" horiz-adv-x="890" d="M543 725h-195v20h195v-20z" />
<glyph unicode="&#xb8;" horiz-adv-x="616" d="M104 780l2 21l271 -99v-20z" />
<glyph unicode="&#xb9;" horiz-adv-x="1634" d="M1225 991v-491h-17v248h-772v-220h-18v238h788v225h19z" />
<glyph unicode="&#xba;" horiz-adv-x="1806" d="M1493 1047h16v-631h-16v631zM913 1032q96 0 146.5 -66.5t50.5 -230.5q0 -84 -13.5 -142t-40.5 -90.5t-61.5 -46.5t-81.5 -14h-428q-98 0 -148 65t-50 228q0 85 13.5 143.5t40.5 92t61.5 47.5t82.5 14h428zM913 461q86 0 132.5 61.5t46.5 212.5q0 152 -46.5 215.5 t-132.5 63.5h-428q-86 0 -133 -63.5t-47 -215.5q0 -151 47 -212.5t133 -61.5h428z" />
<glyph unicode="&#xbb;" horiz-adv-x="1662" d="M287 999v21l202 -62q66 -20 96.5 -49.5t30.5 -95.5v-151q0 -67 -31 -98t-93 -48l-205 -59v20l200 60q53 14 81 40.5t28 84.5v151q0 58 -27.5 83.5t-83.5 41.5zM1044 457v20l201 60q54 16 81.5 42t27.5 83v151q0 57 -27 82t-84 43l-199 61v21l203 -62q66 -20 96.5 -49.5 t30.5 -95.5v-151q0 -67 -31 -98t-94 -48z" />
<glyph unicode="&#xbf;" horiz-adv-x="1734" d="M807 952l22 4l60 -442q4 -24 8 -38t13 -30.5t26 -24t43 -7.5h233q91 0 128.5 49t37.5 123v551h21v-551q0 -38 -8.5 -70t-28.5 -61t-58 -45.5t-92 -16.5h-233q-57 0 -80.5 30.5t-30.5 86.5zM276 905h89v-20h-89v20z" />
<glyph unicode="&#xc0;" horiz-adv-x="2078" d="M248 492h-21l62 489h20zM1757 336h-395q-109 0 -199 35l-295 110q-135 52 -135 170v158q0 63 35.5 101.5t101.5 66.5l293 121q85 35 199 35h395v-21h-311v-756h311v-20zM1362 356h63v756h-63q-100 0 -191 -33l-292 -121q-60 -26 -92.5 -61t-32.5 -88v-158 q0 -104 123 -151l294 -111q91 -33 191 -33z" />
<glyph unicode="&#xc1;" horiz-adv-x="2078" d="M1757 336h-395q-109 0 -199 35l-295 110q-135 52 -135 170v158q0 63 35.5 101.5t101.5 66.5l293 121q85 35 199 35h395v-21h-311v-756h311v-20zM1362 356h63v756h-63q-100 0 -191 -33l-292 -121q-60 -26 -92.5 -61t-32.5 -88v-158q0 -104 123 -151l294 -111 q91 -33 191 -33zM289 492l-62 489h21l61 -489h-20z" />
<glyph unicode="&#xc2;" horiz-adv-x="2091" d="M1769 336h-395q-108 0 -198 35l-295 110q-136 52 -136 170v158q0 63 36 101.5t102 66.5l293 121q85 35 198 35h395v-21h-311v-756h311v-20zM1374 356h64v756h-64q-99 0 -190 -33l-293 -121q-60 -26 -92.5 -61t-32.5 -88v-158q0 -104 123 -151l295 -111q91 -33 190 -33z M295 979l-57 -178q-13 -43 -13 -66q0 -22 13 -65l57 -178h-23l-55 170q-12 50 -12 73q0 24 12 74l55 170h23z" />
<glyph unicode="&#xc3;" horiz-adv-x="2058" d="M1737 336h-396q-108 0 -198 35l-295 110q-135 52 -135 170v158q0 63 35.5 101.5t101.5 66.5l293 121q85 35 198 35h396v-21h-312v-756h312v-20zM1341 356h64v756h-64q-99 0 -190 -33l-293 -121q-60 -26 -92.5 -61t-32.5 -88v-158q0 -104 123 -151l295 -111 q91 -33 190 -33zM281 979h20q7 -64 -16 -213l-4 -33l-9 -57q-19 -122 -8 -184h-22q-7 56 10 188l8 57l4 33q23 151 17 209z" />
<glyph unicode="&#xc4;" horiz-adv-x="2080" d="M326 1008v-21h-97v21h97zM326 479v-20h-97v20h97zM1759 336h-395q-109 0 -199 35l-295 110q-135 52 -135 170v158q0 63 35.5 101.5t101.5 66.5l293 121q85 35 199 35h395v-21h-311v-756h311v-20zM1364 356h63v756h-63q-99 0 -190 -33l-293 -121q-60 -26 -92.5 -61 t-32.5 -88v-158q0 -104 123 -151l295 -111q91 -33 190 -33z" />
<glyph unicode="&#xc5;" horiz-adv-x="2070" d="M1749 336h-436q-109 0 -199 35l-295 131q-74 33 -96 52q-39 35 -39 97v158q0 17 3.5 31t6.5 24t14 21.5t15 16.5t22 15.5t22 12.5t27 13t27 13l293 142q74 35 199 35h436v-21h-352v-756h352v-20zM1313 356h63v756h-63q-100 0 -191 -33l-293 -141q-35 -15 -51 -23.5 t-36.5 -23.5t-28.5 -35t-8 -47v-158q0 -30 8 -51t27.5 -36t36.5 -23t50 -21l295 -131q91 -33 191 -33zM436 446h-80q-40 0 -69 6.5t-56 25t-44 50t-27 83.5t-10 124q0 89 14.5 148.5t43.5 90t64 42.5t84 12h80q50 0 84.5 -12t63.5 -42.5t43 -90t14 -148.5q0 -72 -10 -124 t-26.5 -83.5t-43.5 -50t-56 -25t-69 -6.5zM170 735q0 -80 12.5 -134t38 -82.5t57.5 -40t78 -11.5h80q46 0 78 11.5t57 40t37.5 82.5t12.5 134t-12.5 134.5t-37.5 84.5t-57 42t-78 12h-80q-45 0 -77 -12t-58 -42t-38.5 -84.5t-12.5 -134.5z" />
<glyph unicode="&#xc6;" horiz-adv-x="1785" d="M1026 258q-50 0 -74.5 1t-56 6t-57.5 16l-416 172q-53 21 -71.5 43.5t-18.5 60.5v633h20v-297h512v295h21v-295h532v297h21v-318h-355v-593h355v-21h-412zM1026 279h37v593h-711v-315q0 -30 17 -47.5t61 -36.5l416 -172q25 -11 56.5 -16t52 -5.5t71.5 -0.5z" />
<glyph unicode="&#xc7;" horiz-adv-x="1853" d="M1092 338h-492q-76 0 -124.5 14.5t-82 51.5t-47.5 100t-14 162v483h20v-483q0 -122 25 -188.5t77 -93t146 -26.5h492q93 0 143.5 26t75 92.5t24.5 189.5v483h21v-311l258 -95v-20l-258 92v-149q0 -132 -27.5 -203.5t-82 -98t-154.5 -26.5z" />
<glyph unicode="&#xc8;" horiz-adv-x="2105" d="M248 492h-21l62 489h20zM1757 344h-1024v805h21v-784h473v618h20v-618h490v784h20v-805z" />
<glyph unicode="&#xc9;" horiz-adv-x="2105" d="M1757 344h-1024v805h21v-784h473v618h20v-618h490v784h20v-805zM289 492l-62 489h21l61 -489h-20z" />
<glyph unicode="&#xca;" horiz-adv-x="2199" d="M295 979l-57 -178q-13 -43 -13 -66q0 -22 13 -65l57 -178h-23l-55 170q-12 50 -12 73q0 24 12 74l55 170h23zM1851 344h-1106v805h21v-784h514v618h20v-618h531v784h20v-805z" />
<glyph unicode="&#xcb;" horiz-adv-x="2107" d="M326 1008v-21h-97v21h97zM326 479v-20h-97v20h97zM1759 344h-1024v805h21v-784h473v618h20v-618h490v784h20v-805z" />
<glyph unicode="&#xcc;" horiz-adv-x="2105" d="M248 492h-21l62 489h20zM1737 326v401h-983v-401h-21v823h21v-401h983v401h20v-823h-20z" />
<glyph unicode="&#xcd;" horiz-adv-x="2105" d="M1737 326v401h-983v-401h-21v823h21v-401h983v401h20v-823h-20zM289 492l-62 489h21l61 -489h-20z" />
<glyph unicode="&#xce;" horiz-adv-x="2117" d="M295 979l-57 -178q-13 -43 -13 -66q0 -22 13 -65l57 -178h-23l-55 170q-12 50 -12 73q0 24 12 74l55 170h23zM1749 326v401h-983v-401h-21v823h21v-401h983v401h20v-823h-20z" />
<glyph unicode="&#xcf;" horiz-adv-x="2107" d="M326 1008v-21h-97v21h97zM326 479v-20h-97v20h97zM1739 326v401h-983v-401h-21v823h21v-401h983v401h20v-823h-20z" />
<glyph unicode="&#xd0;" d="M903 186v156h-555v461q0 81 15 141t39.5 95t62.5 56t77 28t91 7h543q52 0 90 -6.5t75.5 -27t60.5 -56t37.5 -95t14.5 -142.5v-461h-530v-156h-21zM924 555v-193h510v441q0 95 -18.5 158t-55.5 94.5t-79.5 43t-104.5 11.5h-543q-61 0 -105 -12t-82 -44t-57.5 -94.5 t-19.5 -156.5v-441h534v193h21z" />
<glyph unicode="&#xd1;" horiz-adv-x="2058" d="M281 979h20q7 -64 -16 -213l-4 -33l-9 -57q-19 -122 -8 -184h-22q-7 56 10 188l8 57l4 33q23 151 17 209zM711 365q0 12 18 30l807 721h-823v21h1024v-21h-170l-828 -741q-6 -6 -6 -10q0 -5 6 -5h998v-20h-1002q-11 0 -17.5 7.5t-6.5 17.5z" />
<glyph unicode="&#xd2;" horiz-adv-x="2088" d="M248 492h-21l62 489h20zM1507 1139q65 0 113.5 -20t86.5 -65t57.5 -125t19.5 -194t-19.5 -193t-57.5 -122.5t-86 -62.5t-114 -19h-522q-66 0 -114 19t-86 62.5t-57 122.5t-19 193t19.5 194t57 125t86 65t113.5 20h522zM1507 358q61 0 105.5 18t79.5 59.5t53 116.5t18 183 t-18 184t-53 118.5t-80 61.5t-105 19h-522q-60 0 -105 -19t-80 -61.5t-53 -118.5t-18 -184t18 -183t53 -116.5t79.5 -59.5t105.5 -18h522z" />
<glyph unicode="&#xd3;" horiz-adv-x="2088" d="M289 492l-62 489h21l61 -489h-20zM1507 1139q65 0 113.5 -20t86.5 -65t57.5 -125t19.5 -194t-19.5 -193t-57.5 -122.5t-86 -62.5t-114 -19h-522q-66 0 -114 19t-86 62.5t-57 122.5t-19 193t19.5 194t57 125t86 65t113.5 20h522zM1507 358q61 0 105.5 18t79.5 59.5 t53 116.5t18 183t-18 184t-53 118.5t-80 61.5t-105 19h-522q-60 0 -105 -19t-80 -61.5t-53 -118.5t-18 -184t18 -183t53 -116.5t79.5 -59.5t105.5 -18h522z" />
<glyph unicode="&#xd4;" horiz-adv-x="2101" d="M295 979l-57 -178q-13 -43 -13 -66q0 -22 13 -65l57 -178h-23l-55 170q-12 50 -12 73q0 24 12 74l55 170h23zM1520 1139q65 0 113.5 -20t86 -65t57 -125t19.5 -194t-19 -193t-57 -122.5t-86 -62.5t-114 -19h-523q-66 0 -114 19t-86 62.5t-57 122.5t-19 193t19.5 194 t57 125t86 65t113.5 20h523zM1520 358q61 0 105.5 18t79.5 59.5t53 116.5t18 183t-18 184t-53 118.5t-80 61.5t-105 19h-523q-60 0 -105 -19t-80 -61.5t-53 -118.5t-18 -184t18 -183t53 -116.5t79.5 -59.5t105.5 -18h523z" />
<glyph unicode="&#xd5;" horiz-adv-x="2068" d="M281 979h20q7 -64 -16 -213l-4 -33l-9 -57q-19 -122 -8 -184h-22q-7 56 10 188l8 57l4 33q23 151 17 209zM1487 1139q65 0 113.5 -20t86 -65t57 -125t19.5 -194t-19 -193t-57 -122.5t-86 -62.5t-114 -19h-522q-66 0 -114 19t-86 62.5t-57.5 122.5t-19.5 193t19.5 194 t57.5 125t86.5 65t113.5 20h522zM1487 358q61 0 105.5 18t79.5 59.5t53 116.5t18 183t-18 184t-53 118.5t-80 61.5t-105 19h-522q-60 0 -105 -19t-80 -61.5t-53 -118.5t-18 -184t18 -183t53 -116.5t79.5 -59.5t105.5 -18h522z" />
<glyph unicode="&#xd6;" horiz-adv-x="2091" d="M326 1008v-21h-97v21h97zM326 479v-20h-97v20h97zM1509 1139q65 0 113.5 -20t86.5 -65t57.5 -125t19.5 -194t-19.5 -193t-57.5 -122.5t-86 -62.5t-114 -19h-522q-66 0 -114 19t-86 62.5t-57 122.5t-19 193t19.5 194t57 125t86 65t113.5 20h522zM1509 358q61 0 105.5 18 t79.5 59.5t53 116.5t18 183t-18 184t-53 118.5t-80 61.5t-105 19h-522q-60 0 -105 -19t-80 -61.5t-53 -118.5t-18 -184t18 -183t53 -116.5t79.5 -59.5t105.5 -18h522z" />
<glyph unicode="&#xd7;" horiz-adv-x="1417" d="M1004 428l-293 293l-293 -293l-15 14l293 293l-293 293l15 14l293 -292l293 292l14 -14l-293 -293l293 -293z" />
<glyph unicode="&#xd8;" horiz-adv-x="1810" d="M604 1118q-165 0 -223 -149l1057 -447q26 86 26 213q0 108 -18 184t-53 118.5t-80 61.5t-105 19h-604zM1208 358q167 0 224 144l-1057 448q-27 -93 -27 -215q0 -108 18 -183t53 -116.5t79.5 -59.5t105.5 -18h604zM1208 338h-604q-66 0 -114 19t-86 62.5t-57 122.5 t-19 193q0 134 28 223l-147 62v22l153 -65q60 162 242 162h604q65 0 113.5 -20t86.5 -65t57.5 -125t19.5 -194q0 -132 -29 -221l146 -61v-23l-152 64q-60 -156 -242 -156z" />
<glyph unicode="&#xd9;" horiz-adv-x="2088" d="M248 492h-21l62 489h20zM733 348v21h772q61 0 105.5 17t79.5 57t53 112t18 176q0 109 -18 184.5t-53 118t-79.5 60.5t-105.5 18h-772v21h772q52 0 93 -11.5t76 -40t58.5 -73.5t36.5 -115t13 -162q0 -110 -19.5 -186.5t-57.5 -118.5t-86 -60t-114 -18h-772z" />
<glyph unicode="&#xda;" horiz-adv-x="2088" d="M289 532l-62 490h21l61 -490h-20zM733 348v21h772q61 0 105.5 17t79.5 57t53 112t18 176q0 109 -18 184.5t-53 118t-79.5 60.5t-105.5 18h-772v21h772q52 0 93 -11.5t76 -40t58.5 -73.5t36.5 -115t13 -162q0 -110 -19.5 -186.5t-57.5 -118.5t-86 -60t-114 -18h-772z" />
<glyph unicode="&#xdb;" horiz-adv-x="2101" d="M295 979l-57 -178q-13 -43 -13 -66q0 -22 13 -65l57 -178h-23l-55 170q-12 50 -12 73q0 24 12 74l55 170h23zM745 348v21h773q61 0 105.5 17t79.5 57t53 112t18 176q0 109 -18 184.5t-53 118t-79.5 60.5t-105.5 18h-773v21h773q52 0 92.5 -11.5t76 -40t58.5 -73.5 t36 -115t13 -162q0 -110 -19 -186.5t-57 -118.5t-86 -60t-114 -18h-773z" />
<glyph unicode="&#xdc;" horiz-adv-x="2091" d="M326 1008v-21h-97v21h97zM326 479v-20h-97v20h97zM735 348v21h772q61 0 105.5 17t79.5 57t53 112t18 176q0 109 -18 184.5t-53 118t-79.5 60.5t-105.5 18h-772v21h772q52 0 93 -11.5t76 -40t58.5 -73.5t36.5 -115t13 -162q0 -110 -19.5 -186.5t-57.5 -118.5t-86 -60 t-114 -18h-772z" />
<glyph unicode="&#xdd;" horiz-adv-x="2054" d="M289 532l-62 490h21l61 -490h-20zM733 342v20h176q63 0 93.5 6t56.5 23l268 178q40 26 57 56.5t17 74.5v70q0 44 -17 74.5t-57 58.5l-268 184q-25 17 -55.5 23t-94.5 6h-176v21h176q67 0 98.5 -6t59.5 -25l268 -184q46 -33 66 -67.5t20 -84.5v-22h336v-21h-336v-27 q0 -50 -20 -84t-66 -65l-268 -178q-28 -19 -59.5 -25t-98.5 -6h-176z" />
<glyph unicode="&#xde;" horiz-adv-x="1740" d="M1423 346h-1106v21h209v473q0 94 19.5 156.5t58 94.5t84.5 44t111 12h147q65 0 111 -12t84.5 -44t58 -94.5t19.5 -156.5v-473h204v-21zM1198 367v473q0 88 -18 146.5t-54 88t-78 40.5t-102 11h-147q-60 0 -102 -11t-78 -40.5t-54 -88t-18 -146.5v-473h651z" />
<glyph unicode="&#xdf;" d="M369 367h1085v-21h-1106v510q0 104 57.5 140t172.5 12l294 -62v12q0 101 48.5 151t152.5 50h180q106 0 153.5 -50t47.5 -167v-68h-20v68q0 105 -42.5 151t-138.5 46h-180q-94 0 -137 -45.5t-43 -135.5v-40l-320 69q-204 57 -204 -131v-489z" />
<glyph unicode="&#xe0;" horiz-adv-x="2078" d="M248 492h-21l62 489h20zM1757 336h-395q-109 0 -199 35l-295 110q-135 52 -135 170v158q0 63 35.5 101.5t101.5 66.5l293 121q85 35 199 35h395v-21h-311v-756h311v-20zM1362 356h63v756h-63q-100 0 -191 -33l-292 -121q-60 -26 -92.5 -61t-32.5 -88v-158 q0 -104 123 -151l294 -111q91 -33 191 -33z" />
<glyph unicode="&#xe1;" horiz-adv-x="2078" d="M1757 336h-395q-109 0 -199 35l-295 110q-135 52 -135 170v158q0 63 35.5 101.5t101.5 66.5l293 121q85 35 199 35h395v-21h-311v-756h311v-20zM1362 356h63v756h-63q-100 0 -191 -33l-292 -121q-60 -26 -92.5 -61t-32.5 -88v-158q0 -104 123 -151l294 -111 q91 -33 191 -33zM289 492l-62 489h21l61 -489h-20z" />
<glyph unicode="&#xe2;" horiz-adv-x="2091" d="M1769 336h-395q-108 0 -198 35l-295 110q-136 52 -136 170v158q0 63 36 101.5t102 66.5l293 121q85 35 198 35h395v-21h-311v-756h311v-20zM1374 356h64v756h-64q-99 0 -190 -33l-293 -121q-60 -26 -92.5 -61t-32.5 -88v-158q0 -104 123 -151l295 -111q91 -33 190 -33z M295 979l-57 -178q-13 -43 -13 -66q0 -22 13 -65l57 -178h-23l-55 170q-12 50 -12 73q0 24 12 74l55 170h23z" />
<glyph unicode="&#xe3;" horiz-adv-x="2058" d="M1737 336h-396q-108 0 -198 35l-295 110q-135 52 -135 170v158q0 63 35.5 101.5t101.5 66.5l293 121q85 35 198 35h396v-21h-312v-756h312v-20zM1341 356h64v756h-64q-99 0 -190 -33l-293 -121q-60 -26 -92.5 -61t-32.5 -88v-158q0 -104 123 -151l295 -111 q91 -33 190 -33zM281 979h20q7 -64 -16 -213l-4 -33l-9 -57q-19 -122 -8 -184h-22q-7 56 10 188l8 57l4 33q23 151 17 209z" />
<glyph unicode="&#xe4;" horiz-adv-x="2080" d="M326 1008v-21h-97v21h97zM326 479v-20h-97v20h97zM1759 336h-395q-109 0 -199 35l-295 110q-135 52 -135 170v158q0 63 35.5 101.5t101.5 66.5l293 121q85 35 199 35h395v-21h-311v-756h311v-20zM1364 356h63v756h-63q-99 0 -190 -33l-293 -121q-60 -26 -92.5 -61 t-32.5 -88v-158q0 -104 123 -151l295 -111q91 -33 190 -33z" />
<glyph unicode="&#xe5;" horiz-adv-x="2070" d="M1749 336h-436q-109 0 -199 35l-295 131q-74 33 -96 52q-39 35 -39 97v158q0 17 3.5 31t6.5 24t14 21.5t15 16.5t22 15.5t22 12.5t27 13t27 13l293 142q74 35 199 35h436v-21h-352v-756h352v-20zM1313 356h63v756h-63q-100 0 -191 -33l-293 -141q-35 -15 -51 -23.5 t-36.5 -23.5t-28.5 -35t-8 -47v-158q0 -30 8 -51t27.5 -36t36.5 -23t50 -21l295 -131q91 -33 191 -33zM436 446h-80q-40 0 -69 6.5t-56 25t-44 50t-27 83.5t-10 124q0 89 14.5 148.5t43.5 90t64 42.5t84 12h80q50 0 84.5 -12t63.5 -42.5t43 -90t14 -148.5q0 -72 -10 -124 t-26.5 -83.5t-43.5 -50t-56 -25t-69 -6.5zM170 735q0 -80 12.5 -134t38 -82.5t57.5 -40t78 -11.5h80q46 0 78 11.5t57 40t37.5 82.5t12.5 134t-12.5 134.5t-37.5 84.5t-57 42t-78 12h-80q-45 0 -77 -12t-58 -42t-38.5 -84.5t-12.5 -134.5z" />
<glyph unicode="&#xe6;" horiz-adv-x="1785" d="M1026 258q-50 0 -74.5 1t-56 6t-57.5 16l-416 172q-53 21 -71.5 43.5t-18.5 60.5v633h20v-297h512v295h21v-295h532v297h21v-318h-355v-593h355v-21h-412zM1026 279h37v593h-711v-315q0 -30 17 -47.5t61 -36.5l416 -172q25 -11 56.5 -16t52 -5.5t71.5 -0.5z" />
<glyph unicode="&#xe7;" horiz-adv-x="1853" d="M1092 338h-492q-76 0 -124.5 14.5t-82 51.5t-47.5 100t-14 162v483h20v-483q0 -122 25 -188.5t77 -93t146 -26.5h492q93 0 143.5 26t75 92.5t24.5 189.5v483h21v-311l258 -95v-20l-258 92v-149q0 -132 -27.5 -203.5t-82 -98t-154.5 -26.5z" />
<glyph unicode="&#xe8;" horiz-adv-x="2105" d="M248 492h-21l62 489h20zM1757 344h-1024v805h21v-784h473v618h20v-618h490v784h20v-805z" />
<glyph unicode="&#xe9;" horiz-adv-x="2105" d="M1757 344h-1024v805h21v-784h473v618h20v-618h490v784h20v-805zM289 492l-62 489h21l61 -489h-20z" />
<glyph unicode="&#xea;" horiz-adv-x="2199" d="M295 979l-57 -178q-13 -43 -13 -66q0 -22 13 -65l57 -178h-23l-55 170q-12 50 -12 73q0 24 12 74l55 170h23zM1851 344h-1106v805h21v-784h514v618h20v-618h531v784h20v-805z" />
<glyph unicode="&#xeb;" horiz-adv-x="2107" d="M326 1008v-21h-97v21h97zM326 479v-20h-97v20h97zM1759 344h-1024v805h21v-784h473v618h20v-618h490v784h20v-805z" />
<glyph unicode="&#xec;" horiz-adv-x="2105" d="M248 492h-21l62 489h20zM1737 326v401h-983v-401h-21v823h21v-401h983v401h20v-823h-20z" />
<glyph unicode="&#xed;" horiz-adv-x="2105" d="M1737 326v401h-983v-401h-21v823h21v-401h983v401h20v-823h-20zM289 492l-62 489h21l61 -489h-20z" />
<glyph unicode="&#xee;" horiz-adv-x="2117" d="M295 979l-57 -178q-13 -43 -13 -66q0 -22 13 -65l57 -178h-23l-55 170q-12 50 -12 73q0 24 12 74l55 170h23zM1749 326v401h-983v-401h-21v823h21v-401h983v401h20v-823h-20z" />
<glyph unicode="&#xef;" horiz-adv-x="2107" d="M326 1008v-21h-97v21h97zM326 479v-20h-97v20h97zM1739 326v401h-983v-401h-21v823h21v-401h983v401h20v-823h-20z" />
<glyph unicode="&#xf0;" d="M903 186v156h-555v461q0 81 15 141t39.5 95t62.5 56t77 28t91 7h543q52 0 90 -6.5t75.5 -27t60.5 -56t37.5 -95t14.5 -142.5v-461h-530v-156h-21zM924 555v-193h510v441q0 95 -18.5 158t-55.5 94.5t-79.5 43t-104.5 11.5h-543q-61 0 -105 -12t-82 -44t-57.5 -94.5 t-19.5 -156.5v-441h534v193h21z" />
<glyph unicode="&#xf1;" horiz-adv-x="2058" d="M281 979h20q7 -64 -16 -213l-4 -33l-9 -57q-19 -122 -8 -184h-22q-7 56 10 188l8 57l4 33q23 151 17 209zM711 365q0 12 18 30l807 721h-823v21h1024v-21h-170l-828 -741q-6 -6 -6 -10q0 -5 6 -5h998v-20h-1002q-11 0 -17.5 7.5t-6.5 17.5z" />
<glyph unicode="&#xf2;" horiz-adv-x="2088" d="M248 492h-21l62 489h20zM1507 1139q65 0 113.5 -20t86.5 -65t57.5 -125t19.5 -194t-19.5 -193t-57.5 -122.5t-86 -62.5t-114 -19h-522q-66 0 -114 19t-86 62.5t-57 122.5t-19 193t19.5 194t57 125t86 65t113.5 20h522zM1507 358q61 0 105.5 18t79.5 59.5t53 116.5t18 183 t-18 184t-53 118.5t-80 61.5t-105 19h-522q-60 0 -105 -19t-80 -61.5t-53 -118.5t-18 -184t18 -183t53 -116.5t79.5 -59.5t105.5 -18h522z" />
<glyph unicode="&#xf3;" horiz-adv-x="2088" d="M289 492l-62 489h21l61 -489h-20zM1507 1139q65 0 113.5 -20t86.5 -65t57.5 -125t19.5 -194t-19.5 -193t-57.5 -122.5t-86 -62.5t-114 -19h-522q-66 0 -114 19t-86 62.5t-57 122.5t-19 193t19.5 194t57 125t86 65t113.5 20h522zM1507 358q61 0 105.5 18t79.5 59.5 t53 116.5t18 183t-18 184t-53 118.5t-80 61.5t-105 19h-522q-60 0 -105 -19t-80 -61.5t-53 -118.5t-18 -184t18 -183t53 -116.5t79.5 -59.5t105.5 -18h522z" />
<glyph unicode="&#xf4;" horiz-adv-x="2101" d="M295 979l-57 -178q-13 -43 -13 -66q0 -22 13 -65l57 -178h-23l-55 170q-12 50 -12 73q0 24 12 74l55 170h23zM1520 1139q65 0 113.5 -20t86 -65t57 -125t19.5 -194t-19 -193t-57 -122.5t-86 -62.5t-114 -19h-523q-66 0 -114 19t-86 62.5t-57 122.5t-19 193t19.5 194 t57 125t86 65t113.5 20h523zM1520 358q61 0 105.5 18t79.5 59.5t53 116.5t18 183t-18 184t-53 118.5t-80 61.5t-105 19h-523q-60 0 -105 -19t-80 -61.5t-53 -118.5t-18 -184t18 -183t53 -116.5t79.5 -59.5t105.5 -18h523z" />
<glyph unicode="&#xf5;" horiz-adv-x="2068" d="M281 979h20q7 -64 -16 -213l-4 -33l-9 -57q-19 -122 -8 -184h-22q-7 56 10 188l8 57l4 33q23 151 17 209zM1487 1139q65 0 113.5 -20t86 -65t57 -125t19.5 -194t-19 -193t-57 -122.5t-86 -62.5t-114 -19h-522q-66 0 -114 19t-86 62.5t-57.5 122.5t-19.5 193t19.5 194 t57.5 125t86.5 65t113.5 20h522zM1487 358q61 0 105.5 18t79.5 59.5t53 116.5t18 183t-18 184t-53 118.5t-80 61.5t-105 19h-522q-60 0 -105 -19t-80 -61.5t-53 -118.5t-18 -184t18 -183t53 -116.5t79.5 -59.5t105.5 -18h522z" />
<glyph unicode="&#xf6;" horiz-adv-x="2091" d="M326 1008v-21h-97v21h97zM326 479v-20h-97v20h97zM1509 1139q65 0 113.5 -20t86.5 -65t57.5 -125t19.5 -194t-19.5 -193t-57.5 -122.5t-86 -62.5t-114 -19h-522q-66 0 -114 19t-86 62.5t-57 122.5t-19 193t19.5 194t57 125t86 65t113.5 20h522zM1509 358q61 0 105.5 18 t79.5 59.5t53 116.5t18 183t-18 184t-53 118.5t-80 61.5t-105 19h-522q-60 0 -105 -19t-80 -61.5t-53 -118.5t-18 -184t18 -183t53 -116.5t79.5 -59.5t105.5 -18h522z" />
<glyph unicode="&#xf7;" horiz-adv-x="1511" d="M766 313h-21v848h21v-848zM350 727h-92v21h92v-21zM1253 727h-92v21h92v-21z" />
<glyph unicode="&#xf8;" horiz-adv-x="1810" d="M604 1118q-165 0 -223 -149l1057 -447q26 86 26 213q0 108 -18 184t-53 118.5t-80 61.5t-105 19h-604zM1208 358q167 0 224 144l-1057 448q-27 -93 -27 -215q0 -108 18 -183t53 -116.5t79.5 -59.5t105.5 -18h604zM1208 338h-604q-66 0 -114 19t-86 62.5t-57 122.5 t-19 193q0 134 28 223l-147 62v22l153 -65q60 162 242 162h604q65 0 113.5 -20t86.5 -65t57.5 -125t19.5 -194q0 -132 -29 -221l146 -61v-23l-152 64q-60 -156 -242 -156z" />
<glyph unicode="&#xf9;" horiz-adv-x="2088" d="M248 492h-21l62 489h20zM733 348v21h772q61 0 105.5 17t79.5 57t53 112t18 176q0 109 -18 184.5t-53 118t-79.5 60.5t-105.5 18h-772v21h772q52 0 93 -11.5t76 -40t58.5 -73.5t36.5 -115t13 -162q0 -110 -19.5 -186.5t-57.5 -118.5t-86 -60t-114 -18h-772z" />
<glyph unicode="&#xfa;" horiz-adv-x="2088" d="M289 532l-62 490h21l61 -490h-20zM733 348v21h772q61 0 105.5 17t79.5 57t53 112t18 176q0 109 -18 184.5t-53 118t-79.5 60.5t-105.5 18h-772v21h772q52 0 93 -11.5t76 -40t58.5 -73.5t36.5 -115t13 -162q0 -110 -19.5 -186.5t-57.5 -118.5t-86 -60t-114 -18h-772z" />
<glyph unicode="&#xfb;" horiz-adv-x="2101" d="M295 979l-57 -178q-13 -43 -13 -66q0 -22 13 -65l57 -178h-23l-55 170q-12 50 -12 73q0 24 12 74l55 170h23zM745 348v21h773q61 0 105.5 17t79.5 57t53 112t18 176q0 109 -18 184.5t-53 118t-79.5 60.5t-105.5 18h-773v21h773q52 0 92.5 -11.5t76 -40t58.5 -73.5 t36 -115t13 -162q0 -110 -19 -186.5t-57 -118.5t-86 -60t-114 -18h-773z" />
<glyph unicode="&#xfc;" horiz-adv-x="2091" d="M326 1008v-21h-97v21h97zM326 479v-20h-97v20h97zM735 348v21h772q61 0 105.5 17t79.5 57t53 112t18 176q0 109 -18 184.5t-53 118t-79.5 60.5t-105.5 18h-772v21h772q52 0 93 -11.5t76 -40t58.5 -73.5t36.5 -115t13 -162q0 -110 -19.5 -186.5t-57.5 -118.5t-86 -60 t-114 -18h-772z" />
<glyph unicode="&#xfd;" horiz-adv-x="2054" d="M289 532l-62 490h21l61 -490h-20zM733 342v20h176q63 0 93.5 6t56.5 23l268 178q40 26 57 56.5t17 74.5v70q0 44 -17 74.5t-57 58.5l-268 184q-25 17 -55.5 23t-94.5 6h-176v21h176q67 0 98.5 -6t59.5 -25l268 -184q46 -33 66 -67.5t20 -84.5v-22h336v-21h-336v-27 q0 -50 -20 -84t-66 -65l-268 -178q-28 -19 -59.5 -25t-98.5 -6h-176z" />
<glyph unicode="&#xfe;" horiz-adv-x="1740" d="M1423 346h-1106v21h209v473q0 94 19.5 156.5t58 94.5t84.5 44t111 12h147q65 0 111 -12t84.5 -44t58 -94.5t19.5 -156.5v-473h204v-21zM1198 367v473q0 88 -18 146.5t-54 88t-78 40.5t-102 11h-147q-60 0 -102 -11t-78 -40.5t-54 -88t-18 -146.5v-473h651z" />
<glyph unicode="&#xff;" horiz-adv-x="2056" d="M326 1018v-21h-97v21h97zM326 489v-20h-97v20h97zM735 342v20h176q63 0 93.5 6t56.5 23l268 178q40 26 57 56.5t17 74.5v70q0 44 -17 74.5t-57 58.5l-268 184q-25 17 -55.5 23t-94.5 6h-176v21h176q67 0 98.5 -6t59.5 -25l268 -184q46 -33 66 -67.5t20 -84.5v-22h336v-21 h-336v-27q0 -50 -20 -84t-66 -65l-268 -178q-28 -19 -59.5 -25t-98.5 -6h-176z" />
<glyph unicode="&#x152;" d="M1176 279h-543q-65 0 -112 12t-88.5 43.5t-63 94.5t-21.5 157v624h21v-297h512v295h20v-295h533v297h20v-624q0 -77 -14.5 -133t-37.5 -89t-60.5 -52.5t-75.5 -26t-90 -6.5zM633 299h553q59 1 100 12.5t76.5 41.5t53.5 88t18 145v307h-1065v-307q0 -71 13.5 -122.5 t36 -83t57.5 -50t71.5 -25t85.5 -6.5z" />
<glyph unicode="&#x153;" d="M1176 279h-543q-65 0 -112 12t-88.5 43.5t-63 94.5t-21.5 157v624h21v-297h512v295h20v-295h533v297h20v-624q0 -77 -14.5 -133t-37.5 -89t-60.5 -52.5t-75.5 -26t-90 -6.5zM633 299h553q59 1 100 12.5t76.5 41.5t53.5 88t18 145v307h-1065v-307q0 -71 13.5 -122.5 t36 -83t57.5 -50t71.5 -25t85.5 -6.5z" />
<glyph unicode="&#x178;" horiz-adv-x="2056" d="M326 1018v-21h-97v21h97zM326 489v-20h-97v20h97zM735 342v20h176q63 0 93.5 6t56.5 23l268 178q40 26 57 56.5t17 74.5v70q0 44 -17 74.5t-57 58.5l-268 184q-25 17 -55.5 23t-94.5 6h-176v21h176q67 0 98.5 -6t59.5 -25l268 -184q46 -33 66 -67.5t20 -84.5v-22h336v-21 h-336v-27q0 -50 -20 -84t-66 -65l-268 -178q-28 -19 -59.5 -25t-98.5 -6h-176z" />
<glyph unicode="&#x2c6;" horiz-adv-x="550" d="M295 979l-57 -178q-13 -43 -13 -66q0 -22 13 -65l57 -178h-23l-55 170q-12 50 -12 73q0 24 12 74l55 170h23z" />
<glyph unicode="&#x2dc;" horiz-adv-x="536" d="M281 979h20q7 -64 -16 -213l-4 -33l-9 -57q-19 -122 -8 -184h-22q-7 56 10 188l8 57l4 33q23 151 17 209z" />
<glyph unicode="&#x2000;" horiz-adv-x="744" />
<glyph unicode="&#x2001;" horiz-adv-x="1489" />
<glyph unicode="&#x2002;" horiz-adv-x="744" />
<glyph unicode="&#x2003;" horiz-adv-x="1489" />
<glyph unicode="&#x2004;" horiz-adv-x="496" />
<glyph unicode="&#x2005;" horiz-adv-x="372" />
<glyph unicode="&#x2006;" horiz-adv-x="248" />
<glyph unicode="&#x2007;" horiz-adv-x="248" />
<glyph unicode="&#x2008;" horiz-adv-x="186" />
<glyph unicode="&#x2009;" horiz-adv-x="297" />
<glyph unicode="&#x200a;" horiz-adv-x="82" />
<glyph unicode="&#x2010;" horiz-adv-x="860" d="M594 750v-21h-328v21h328z" />
<glyph unicode="&#x2011;" horiz-adv-x="860" d="M594 750v-21h-328v21h328z" />
<glyph unicode="&#x2012;" horiz-adv-x="860" d="M594 750v-21h-328v21h328z" />
<glyph unicode="&#x2013;" horiz-adv-x="1503" d="M1176 750v-21h-848v21h848z" />
<glyph unicode="&#x2014;" horiz-adv-x="2322" d="M1995 750v-21h-1667v21h1667z" />
<glyph unicode="&#x2018;" horiz-adv-x="1021" d="M659 600h-243q-92 0 -139.5 47.5t-47.5 132.5v94h21v-94q0 -75 42 -117t124 -42h223v253h20v-274z" />
<glyph unicode="&#x2019;" horiz-adv-x="1021" d="M362 874h244q92 0 139.5 -47.5t47.5 -132.5v-94h-21v94q0 75 -42 117.5t-124 42.5h-223v-254h-21v274z" />
<glyph unicode="&#x201a;" horiz-adv-x="1021" d="M362 874h244q92 0 139.5 -47.5t47.5 -132.5v-94h-21v94q0 75 -42 117.5t-124 42.5h-223v-254h-21v274z" />
<glyph unicode="&#x201c;" horiz-adv-x="1021" d="M659 928h-243q-92 0 -139.5 47.5t-47.5 132.5v94h21v-94q0 -75 42 -117.5t124 -42.5h223v254h20v-274zM659 272h-243q-92 0 -139.5 48t-47.5 133v94h21v-94q0 -75 42 -117.5t124 -42.5h223v254h20v-275z" />
<glyph unicode="&#x201d;" horiz-adv-x="1021" d="M362 1202h244q92 0 139.5 -47.5t47.5 -132.5v-94h-21v94q0 75 -42 117.5t-124 42.5h-223v-254h-21v274zM362 547h244q92 0 139.5 -47.5t47.5 -132.5v-95h-21v95q0 75 -42 117t-124 42h-223v-254h-21v275z" />
<glyph unicode="&#x201e;" horiz-adv-x="1021" d="M362 547h244q92 0 139.5 -47.5t47.5 -132.5v-95h-21v95q0 75 -42 117t-124 42h-223v-254h-21v275zM362 1202h244q92 0 139.5 -47.5t47.5 -132.5v-94h-21v94q0 75 -42 117.5t-124 42.5h-223v-254h-21v274z" />
<glyph unicode="&#x2022;" horiz-adv-x="1052" d="M348 913h357v-354h-357v354zM369 893v-313h315v313h-315z" />
<glyph unicode="&#x2026;" horiz-adv-x="890" d="M543 1468h-195v21h195v-21zM543 725h-195v20h195v-20zM543 -18h-195v20h195v-20z" />
<glyph unicode="&#x202f;" horiz-adv-x="297" />
<glyph unicode="&#x2039;" horiz-adv-x="1153" d="M440 547l379 -78v-20l-383 77q-57 11 -82.5 41t-25.5 90v160q0 60 25.5 90t80.5 41l385 78v-20l-381 -78q-46 -9 -68 -34.5t-22 -76.5v-160q0 -51 22 -76t70 -34z" />
<glyph unicode="&#x203a;" horiz-adv-x="1153" d="M334 446v21l379 78q48 9 70 34t22 76v160q0 51 -22 76.5t-68 34.5l-381 78v20l385 -78q55 -11 80.5 -41t25.5 -90v-160q0 -60 -25.5 -90t-82.5 -41z" />
<glyph unicode="&#x205f;" horiz-adv-x="372" />
<glyph unicode="&#x20ac;" d="M731 299v147h-115q-76 0 -124.5 14.5t-82 51.5t-47.5 100t-14 162v352h21v-352q0 -122 24.5 -188t76.5 -92.5t146 -26.5h115v487h21v-487h307v487h20v-487h111q93 0 143.5 25.5t75.5 92t25 189.5v352h20v-352q0 -132 -27.5 -203.5t-82 -98t-154.5 -26.5h-111v-147h-20 v147h-307v-147h-21z" />
<glyph unicode="&#x2122;" horiz-adv-x="1214" d="M924 838v-21h-605q-18 0 -28 11t-10 26v14q0 28 22 43l264 189q13 10 13 16v4q0 5 -2 8t-7 6.5t-6 4.5l-262 186q-22 15 -22 43v14q0 16 10 26.5t28 10.5h605v-20h-605q-18 0 -18 -17v-14q0 -16 14 -27l263 -186q22 -16 22 -35v-4q0 -20 -20 -33l-265 -188 q-14 -11 -14 -27v-14q0 -16 18 -16h605zM281 -70v580h20v-283h623v-20h-623v-277h-20z" />
<glyph unicode="&#x25fc;" horiz-adv-x="1136" d="M0 1137h1137v-1137h-1137v1137z" />
</font>
</defs>
</svg>
