<?xml version="1.0" standalone="no"?>
<!DOCTYPE svg PUBLIC "-//W3C//DTD SVG 1.1//EN" "http://www.w3.org/Graphics/SVG/1.1/DTD/svg11.dtd" >
<svg xmlns="http://www.w3.org/2000/svg" xmlns:xlink="http://www.w3.org/1999/xlink" version="1.1">
<metadata></metadata>
<defs>
<font id="bungee_layersoutline" horiz-adv-x="1509" >
<font-face units-per-em="2048" ascent="1761" descent="-287" />
<missing-glyph horiz-adv-x="460" />
<glyph horiz-adv-x="0" />
<glyph horiz-adv-x="682" />
<glyph unicode=" "  horiz-adv-x="460" />
<glyph unicode="&#x09;" horiz-adv-x="460" />
<glyph unicode="&#xa0;" horiz-adv-x="460" />
<glyph unicode="!" horiz-adv-x="868" d="M690 610q-1 -49 -24.5 -71.5t-73.5 -22.5h-318q-49 0 -71.5 22t-24.5 72l-31 791q-2 50 20 72t71 22h391q49 0 70.5 -22t19.5 -72zM717 74q0 -50 -22.5 -72t-71.5 -22h-377q-50 0 -72 22t-22 72v268q0 51 22 72.5t72 21.5h377q50 0 72 -21.5t22 -72.5v-268z" />
<glyph unicode="&#x22;" horiz-adv-x="1323" d="M598 788q-3 -66 -21.5 -84t-84.5 -18h-295q-66 0 -86 19t-21 86l-16 600q-2 66 16.5 85t85.5 19h338q66 0 83.5 -18.5t16.5 -85.5zM1233 788q-3 -66 -22 -84t-85 -18h-295q-66 0 -85.5 19t-20.5 86l-16 600q-2 66 16.5 85t85.5 19h338q66 0 83.5 -18.5t16.5 -85.5z" />
<glyph unicode="#" horiz-adv-x="1536" d="M874 821h-188l-24 -157h190zM268 -20q-106 0 -94 96l27 180h-56q-50 0 -72 21.5t-22 72.5v219q0 50 22.5 72.5t71.5 22.5h113l23 157h-62q-50 0 -72 21.5t-22 72.5v220q0 49 22.5 71.5t71.5 22.5h121l25 174q6 50 26.5 71t67.5 21h215q106 0 94 -96l-25 -170h191l24 174 q6 50 27 71t68 21h215q106 0 94 -96l-25 -170h54q50 0 72 -21.5t22 -72.5v-220q0 -51 -22 -72.5t-72 -21.5h-111l-25 -157h62q50 0 72 -22t22 -73v-219q0 -51 -22 -72.5t-72 -21.5h-119l-27 -184q-6 -50 -26.5 -71t-67.5 -21h-215q-106 0 -94 96l27 180h-191l-26 -184 q-6 -50 -27 -71t-68 -21h-215z" />
<glyph unicode="$" horiz-adv-x="1331" d="M829 -205h-297q-50 0 -72 22.5t-22 71.5v91h-260q-50 0 -72 22t-22 72v239q0 50 22.5 72.5t71.5 22.5h551q33 0 33 38q0 47 -35 50l-307 43q-166 25 -251 106.5t-85 253.5v215q0 163 92 259t262 118v94q0 49 22 71.5t72 22.5h297q50 0 72.5 -22.5t22.5 -71.5v-90h178 q50 0 72 -22.5t22 -71.5v-244q0 -49 -22 -71.5t-72 -22.5h-477q-17 0 -26 -11.5t-9 -29.5q0 -42 37 -45l305 -41q166 -25 252 -107t86 -254v-215q0 -160 -90 -256t-256 -118v-97q0 -49 -22.5 -71.5t-72.5 -22.5z" />
<glyph unicode="%" horiz-adv-x="2111" d="M836 1241v-389q0 -62 -16 -107t-56 -82t-118 -56t-193 -19t-193.5 19t-119.5 56t-57.5 82t-16.5 107v389q0 62 16.5 107t57.5 82t119.5 56t193.5 19t193 -19t118 -56t56 -82t16 -107zM784 -20q-52 0 -74 25.5t-10 72.5l328 1327q12 47 36 68.5t69 21.5h215q52 0 74 -25.5 t10 -72.5l-328 -1327q-12 -47 -36 -68.5t-69 -21.5h-215zM403 1178v-263q0 -16 50 -16q47 0 47 16v263q0 14 -47 14q-50 0 -50 -14zM2060 621v-390q0 -62 -16 -107t-56 -82t-118 -56t-193 -19t-193.5 19t-119.5 56t-57.5 82t-16.5 107v390q0 62 16.5 107t57.5 82t119.5 56 t193.5 19t193 -19t118 -56t56 -82t16 -107zM1628 557v-262q0 -16 49 -16q47 0 47 16v262q0 14 -47 14q-49 0 -49 -14z" />
<glyph unicode="&#x26;" horiz-adv-x="1568" d="M463 -20q-196 0 -302 102t-106 278v164q0 131 60 216t159 112q-81 65 -81 211v98q0 152 100.5 243t312.5 91h432q50 0 72.5 -22.5t22.5 -71.5v-236q0 -49 -22.5 -71.5t-72.5 -22.5h-299q-57 0 -57 -41v-43q0 -41 57 -41h31q50 0 72 -22t22 -72v-211q0 -49 -22 -71.5 t-72 -22.5h-164q-57 0 -57 -39v-64q0 -41 57 -41h291q32 0 44.5 15t12.5 47v283q0 49 22.5 71.5t72.5 22.5h397q50 0 72 -21.5t22 -72.5v-222q0 -50 -22 -72t-72 -22h-27v-72q0 -176 -100.5 -278t-286.5 -102h-569z" />
<glyph unicode="'" horiz-adv-x="729" d="M618 788q-3 -66 -21.5 -84t-84.5 -18h-295q-66 0 -85.5 19t-20.5 86l-17 600q-2 66 17 85t86 19h338q66 0 83.5 -18.5t16.5 -85.5z" />
<glyph unicode="(" horiz-adv-x="878" d="M807 -90q0 -50 -22.5 -72t-71.5 -22h-111q-148 0 -252.5 31.5t-162.5 91.5t-83.5 136.5t-25.5 178.5v965q0 102 25.5 179t83.5 137.5t162.5 92t252.5 31.5h111q49 0 71.5 -22.5t22.5 -71.5v-248q0 -49 -22.5 -71.5t-71.5 -22.5h-64q-37 0 -50 -19.5t-13 -62.5v-811 q0 -43 13 -62.5t50 -19.5h64q49 0 71.5 -22t22.5 -72v-244z" />
<glyph unicode=")" horiz-adv-x="878" d="M801 254q0 -102 -25.5 -178.5t-84 -136.5t-163 -91.5t-252.5 -31.5h-110q-50 0 -72 22t-22 72v244q0 50 22 72t72 22h63q38 0 51 19.5t13 62.5v811q0 43 -13 62.5t-51 19.5h-63q-50 0 -72 22.5t-22 71.5v248q0 49 22 71.5t72 22.5h110q148 0 252.5 -31.5t163 -92 t84 -137.5t25.5 -179v-965z" />
<glyph unicode="*" horiz-adv-x="1470" d="M1004 297q-58 -37 -80.5 -31.5t-55.5 62.5l-133 254l-131 -254q-33 -55 -57 -61.5t-82 30.5l-193 139q-55 38 -57.5 65.5t43.5 76.5l197 206l-275 45q-67 12 -81 34t7 87l74 228q20 64 45.5 75t83.5 -18l256 -115l-41 269q-9 66 8.5 86t85.5 20h240q68 0 85 -20t5 -86 l-37 -269l248 115q58 29 81.5 19t45.5 -76l76 -228q22 -65 8.5 -87t-80.5 -34l-276 -45l198 -206q46 -49 43.5 -76.5t-57.5 -65.5z" />
<glyph unicode="+" horiz-adv-x="1503" d="M625 109q-51 0 -73 22t-22 72v323h-313q-50 0 -72 22t-22 73v233q0 50 22.5 72t71.5 22h313v324q0 50 22 72t73 22h254q49 0 71.5 -22t22.5 -72v-324h313q50 0 72 -21.5t22 -72.5v-233q0 -51 -22 -73t-72 -22h-313v-323q0 -50 -21.5 -72t-72.5 -22h-254z" />
<glyph unicode="," horiz-adv-x="786" d="M213 -225q-50 0 -72 21.5t-22 72.5v82q0 49 22.5 71.5t71.5 22.5h141q35 0 35 37v10h-203q-50 0 -72 22t-22 72v303q0 50 22.5 72.5t71.5 22.5h414q49 0 71.5 -22.5t22.5 -72.5v-385q0 -163 -85.5 -246t-237.5 -83h-158z" />
<glyph unicode="-" horiz-adv-x="860" d="M705 506h-549q-50 0 -72.5 22t-22.5 72v274q0 50 22.5 72.5t72.5 22.5h549q50 0 72 -22t22 -73v-274q0 -51 -22 -72.5t-72 -21.5z" />
<glyph unicode="." horiz-adv-x="786" d="M694 74q0 -50 -22 -72t-72 -22h-414q-50 0 -72 22t-22 72v415q0 51 22 73t72 22h414q50 0 72 -22t22 -73v-415z" />
<glyph unicode="/" horiz-adv-x="710" d="M84 -205q-106 0 -94 96l246 1696q6 50 26.5 71t67.5 21h297q106 0 94 -96l-246 -1696q-6 -50 -26.5 -71t-67.5 -21h-297z" />
<glyph unicode="0" horiz-adv-x="1488" d="M1391 1085v-698q0 -82 -16 -145t-59.5 -120t-115 -93.5t-186 -58t-269.5 -21.5t-270 21.5t-186.5 58t-114.5 93.5t-59.5 120t-16.5 145v698q0 82 16.5 145.5t59.5 121t114.5 94.5t186.5 58.5t270 21.5t269.5 -21.5t186 -58.5t115 -94.5t59.5 -121t16 -145.5zM602 1012 v-551q0 -39 31.5 -57.5t111.5 -18.5t112 18.5t32 57.5v551q0 37 -32 55t-112 18q-79 0 -111 -18t-32 -55z" />
<glyph unicode="1" horiz-adv-x="1230" d="M172 -20q-50 0 -72 22t-22 72v248q0 50 22 72t72 22h209v643h-168q-49 0 -71.5 22.5t-22.5 71.5v248q0 49 22.5 71.5t71.5 22.5h594q49 0 71.5 -22.5t22.5 -71.5v-985h176q49 0 71.5 -22t22.5 -72v-248q0 -50 -22.5 -72t-71.5 -22h-905z" />
<glyph unicode="2" horiz-adv-x="1308" d="M156 -20q-50 0 -72.5 22.5t-22.5 71.5v352q0 97 17 170.5t43.5 120.5t73 82.5t91 55t111.5 40.5l275 86q24 6 32.5 17t8.5 36q0 20 -7.5 26.5t-27.5 6.5h-445q-49 0 -71.5 22.5t-22.5 71.5v240q0 49 22.5 71.5t71.5 22.5h605q186 0 283.5 -92.5t97.5 -267.5v-193 q0 -106 -41.5 -181.5t-112 -121t-180.5 -80.5l-279 -88q-29 -8 -34 -15q-5 -8 -5 -26v-22h563q50 0 72.5 -23t22.5 -72v-239q0 -49 -22.5 -71.5t-72.5 -22.5h-974z" />
<glyph unicode="3" horiz-adv-x="1304" d="M174 -20q-50 0 -72 22t-22 72v239q0 50 22.5 72.5t71.5 22.5h514q57 0 57 41v55q0 39 -57 39h-348q-50 0 -72 22.5t-22 71.5v219q0 50 22 72t72 22h215q57 0 57 41v31q0 41 -57 41h-381q-50 0 -72 22.5t-22 71.5v244q0 49 22 71.5t72 22.5h571q178 0 267.5 -83t89.5 -230 v-119q0 -146 -82 -211q120 -26 169.5 -99t49.5 -208v-205q0 -169 -106.5 -264.5t-311.5 -95.5h-647z" />
<glyph unicode="4" horiz-adv-x="1452" d="M922 -20q-50 0 -72.5 22.5t-22.5 71.5v248h-325q-210 0 -301.5 86.5t-91.5 273.5v719q0 49 22.5 71.5t71.5 22.5h317q50 0 72 -22.5t22 -71.5v-561q0 -22 11.5 -35.5t31.5 -13.5h170v610q0 49 22.5 71.5t72.5 22.5h315q49 0 71.5 -22.5t22.5 -71.5v-1327q0 -50 -22.5 -72 t-71.5 -22h-315z" />
<glyph unicode="5" horiz-adv-x="1325" d="M186 -20q-50 0 -72 22t-22 72v239q0 50 22.5 72.5t71.5 22.5h529q35 0 35 26v80q0 27 -35 27h-508q-49 0 -71.5 22.5t-22.5 71.5v766q0 49 22.5 71.5t71.5 22.5h883q50 0 72 -22.5t22 -71.5v-244q0 -49 -22 -71.5t-72 -22.5h-472v-92h261q180 0 279 -88.5t99 -257.5v-285 q0 -165 -112.5 -262.5t-306.5 -97.5h-652z" />
<glyph unicode="6" horiz-adv-x="1419" d="M733 -51q-155 0 -268.5 21t-183.5 57t-111.5 92.5t-56.5 118.5t-15 145v672q0 102 25.5 179t84 137.5t163 92t252.5 31.5h471q51 0 72.5 -22t21.5 -72v-242q0 -49 -22 -71.5t-72 -22.5h-383q-64 0 -86.5 -20t-22.5 -82v-17q104 23 240 23q145 0 243 -24.5t154.5 -75.5 t80 -120.5t23.5 -168.5v-197q0 -82 -16 -145t-57 -119t-108.5 -92t-175.5 -57t-253 -21zM719 590q-63 0 -90 -13t-27 -40v-121q0 -29 27 -42.5t90 -13.5q66 0 93.5 13.5t27.5 42.5v121q0 53 -121 53z" />
<glyph unicode="7" horiz-adv-x="1284" d="M301 -20q-49 0 -71.5 22t-22.5 72v370q0 101 19 171t63 118t102 78.5t150 58.5l151 41v148h-540q-50 0 -72.5 22.5t-22.5 71.5v248q0 49 22.5 71.5t72.5 22.5h952q50 0 72 -22.5t22 -71.5v-518q0 -101 -19 -171t-63 -118t-102 -78.5t-150 -58.5l-137 -41v-342 q0 -50 -22.5 -72t-71.5 -22h-332z" />
<glyph unicode="8" horiz-adv-x="1456" d="M729 -51q-153 0 -268 18.5t-187.5 50.5t-117.5 81t-62.5 103.5t-17.5 123.5v198q0 129 50 210t134 114q-88 63 -88 215v119q0 65 16 116t55 95t102 72.5t160 44.5t226 16q160 0 270.5 -23.5t171 -70.5t86 -107t25.5 -143v-119q0 -152 -88 -215q84 -33 134 -114t50 -210 v-198q0 -69 -17.5 -123.5t-62 -103.5t-116.5 -81t-187 -50.5t-268 -18.5zM621 1073v-90q0 -29 23.5 -42t84.5 -13q62 0 84.5 13t22.5 42v90q0 28 -23 40.5t-84 12.5q-60 0 -84 -13t-24 -40zM569 512v-109q0 -55 160 -55q82 0 120 13t38 42v109q0 53 -158 53q-160 0 -160 -53 z" />
<glyph unicode="9" horiz-adv-x="1419" d="M326 -20q-51 0 -73 22t-22 72v241q0 49 22.5 72t72.5 23h383q64 0 86 20t22 82v16q-99 -22 -239 -22q-116 0 -202 16.5t-143.5 47t-92.5 79t-49.5 108t-14.5 138.5v197q0 82 16 145t57 119t108.5 92t175.5 57t253 21q155 0 268.5 -21t183.5 -57t111.5 -92.5t56.5 -118.5 t15 -145v-672q0 -102 -25.5 -179t-83.5 -137.5t-162.5 -92t-252.5 -31.5h-471zM700 885q63 0 90 13t27 40v121q0 28 -27 41.5t-90 13.5q-66 0 -93 -13t-27 -42v-121q0 -27 28 -40t92 -13z" />
<glyph unicode=":" horiz-adv-x="786" d="M694 74q0 -50 -22 -72t-72 -22h-414q-50 0 -72 22t-22 72v415q0 51 22 73t72 22h414q50 0 72 -22t22 -73v-415zM694 801q0 -49 -22 -71.5t-72 -22.5h-414q-50 0 -72 22.5t-22 71.5v416q0 51 22 72.5t72 21.5h414q50 0 72 -21.5t22 -72.5v-416z" />
<glyph unicode=";" horiz-adv-x="786" d="M213 -225q-50 0 -72 21.5t-22 72.5v82q0 49 22.5 71.5t71.5 22.5h141q35 0 35 37v10h-203q-50 0 -72 22t-22 72v303q0 50 22.5 72.5t71.5 22.5h414q49 0 71.5 -22.5t22.5 -72.5v-385q0 -163 -85.5 -246t-237.5 -83h-158zM694 801q0 -49 -22 -71.5t-72 -22.5h-414 q-50 0 -72 22.5t-22 71.5v416q0 51 22 72.5t72 21.5h414q50 0 72 -21.5t22 -72.5v-416z" />
<glyph unicode="&#x3c;" horiz-adv-x="1462" d="M1298 184q0 -54 -23.5 -73.5t-74.5 -10.5h-2l-780 224q-72 21 -119.5 45t-84.5 62.5t-54 95t-17 135.5v147q0 79 17 135.5t54 95t84.5 62.5t119.5 45l782 223q51 9 74.5 -10.5t23.5 -73.5v-270q0 -49 -21 -73t-69 -32h2l-589 -157q-19 -3 -19 -19q0 -9 4.5 -12.5 t16.5 -5.5l587 -158h-2q48 -8 69 -31.5t21 -72.5v-271z" />
<glyph unicode="=" horiz-adv-x="1503" d="M1286 834h-1069q-50 0 -72 21.5t-22 72.5v233q0 49 22.5 71.5t71.5 22.5h1069q50 0 72 -21.5t22 -72.5v-233q0 -51 -22 -72.5t-72 -21.5zM1286 219h-1069q-50 0 -72 21.5t-22 72.5v234q0 49 22.5 71.5t71.5 22.5h1069q50 0 72 -21.5t22 -72.5v-234q0 -51 -22 -72.5 t-72 -21.5z" />
<glyph unicode="&#x3e;" horiz-adv-x="1462" d="M262 100q-51 -9 -74.5 10.5t-23.5 73.5v271q0 49 21 72.5t69 31.5h-2l590 158q10 1 14 5t4 13q0 17 -20 19l-588 157h2q-48 8 -69 32t-21 73v270q0 54 23.5 73.5t76.5 10.5l780 -223q72 -21 119.5 -45t84.5 -62.5t54 -95t17 -135.5v-147q0 -79 -17 -135.5t-54 -95 t-84.5 -62.5t-119.5 -45z" />
<glyph unicode="?" horiz-adv-x="1343" d="M381 463q-49 -6 -71.5 12t-30.5 68l-43 270q-14 97 86 109l407 57q21 3 29 12.5t8 30.5q0 37 -35 37h-565q-50 0 -72 21.5t-22 72.5v248q0 49 22 71.5t72 22.5h661q212 0 328.5 -98.5t116.5 -282.5v-215q0 -173 -85 -255t-251 -105zM799 74q0 -50 -22.5 -72t-71.5 -22 h-375q-51 0 -72.5 22t-21.5 72v268q0 51 21.5 72.5t72.5 21.5h375q50 0 72 -21.5t22 -72.5v-268z" />
<glyph unicode="@" horiz-adv-x="1775" d="M889 -207q-188 0 -327 25.5t-226.5 69.5t-140.5 111.5t-73 142.5t-20 173v840q0 98 20 174t73 144t140.5 112.5t226.5 70t327 25.5t327.5 -25.5t226 -70t139 -112.5t72 -143.5t19.5 -174.5v-532q0 -84 -11 -146t-42 -120t-83.5 -94t-138.5 -57.5t-204 -21.5h-387 q-108 0 -184 23t-118 67t-60.5 100t-18.5 130v395q0 75 18 131t60.5 100.5t118.5 67.5t184 23h461q38 0 55.5 -18t17.5 -56v-692q52 7 69 48t17 115v545q0 68 -25.5 117t-85.5 87.5t-166.5 57.5t-260.5 19q-124 0 -217.5 -13t-154.5 -36t-99 -59t-54 -77.5t-16 -95.5v-856 q0 -67 26 -115.5t86.5 -86t167.5 -56t261 -18.5h389q50 0 70 -20.5t20 -69.5v-58q0 -49 -20 -69.5t-70 -20.5h-389zM850 506h117v412h-97q-69 0 -69 -54v-309q0 -49 49 -49z" />
<glyph unicode="A" horiz-adv-x="1495" d="M784 1038l2 -2q-1 1 -2.5 4t-2 4.5t-2 4t-2 3.5t-2 2.5t-3 2.5t-3 1.5t-3.5 0.5h-51q-9 0 -21 -23l2 2l-88 -284h264zM184 -20q-50 0 -72 22t-22 72v540q0 125 82 336l178 463q26 82 123 82h551q95 0 121 -80l178 -465q82 -211 82 -336v-540q0 -50 -22.5 -72t-71.5 -22 h-310q-52 0 -76 23t-24 71v266h-321v-266q0 -49 -22.5 -71.5t-72.5 -22.5h-301z" />
<glyph unicode="B" horiz-adv-x="1484" d="M215 -20q-49 0 -71.5 22t-22.5 72v1327q0 49 22.5 71.5t71.5 22.5h653q214 0 314 -82t100 -252v-98q0 -145 -82 -209q111 -26 165 -106t54 -224v-188q0 -182 -101 -269t-317 -87h-786zM776 1106h-153v-180h153q58 0 58 61v57q0 62 -58 62zM868 569h-245v-200h245 q58 0 58 61v80q0 59 -58 59z" />
<glyph unicode="C" horiz-adv-x="1286" d="M1217 74q0 -49 -22.5 -71.5t-72.5 -22.5h-499q-269 0 -397 107.5t-128 330.5v637q0 225 128 332.5t397 107.5h499q50 0 72.5 -22.5t22.5 -71.5v-248q0 -49 -22.5 -71.5t-72.5 -22.5h-411q-105 0 -105 -82v-488q0 -41 26 -59t79 -18h411q50 0 72.5 -23t22.5 -72v-243z" />
<glyph unicode="D" horiz-adv-x="1527" d="M1430 418q0 -223 -128 -330.5t-397 -107.5h-690q-49 0 -71.5 22t-22.5 72v1327q0 49 22.5 71.5t71.5 22.5h690q269 0 397 -107.5t128 -330.5v-639zM850 1063h-223v-655h223q76 0 76 79v498q0 78 -76 78z" />
<glyph unicode="E" horiz-adv-x="1339" d="M215 -20q-49 0 -71.5 22t-22.5 72v1327q0 49 22.5 71.5t71.5 22.5h950q50 0 72.5 -22.5t22.5 -71.5v-240q0 -49 -22.5 -71.5t-72.5 -22.5h-544v-117h378q50 0 72.5 -22.5t22.5 -71.5v-219q0 -49 -22.5 -71.5t-72.5 -22.5h-378v-135h544q49 0 72 -23t23 -72v-239 q0 -49 -22.5 -71.5t-72.5 -22.5h-950z" />
<glyph unicode="F" horiz-adv-x="1265" d="M215 -20q-49 0 -71.5 22t-22.5 72v1327q0 49 22.5 71.5t71.5 22.5h913q50 0 72.5 -22.5t22.5 -71.5v-244q0 -49 -22.5 -71.5t-72.5 -22.5h-501v-172h336q49 0 71.5 -22.5t22.5 -71.5v-246q0 -49 -22.5 -71.5t-71.5 -22.5h-336v-383q0 -49 -22.5 -71.5t-72.5 -22.5h-317z " />
<glyph unicode="G" horiz-adv-x="1449" d="M623 -20q-269 0 -397 107.5t-128 330.5v639q0 223 128 330.5t397 107.5h512q49 0 71.5 -22.5t22.5 -71.5v-248q0 -49 -22.5 -71.5t-71.5 -22.5h-426q-105 0 -105 -82v-490q0 -41 18 -60t56 -19h178v299q0 49 22 71.5t72 22.5h318q50 0 72 -22.5t22 -71.5v-633 q0 -50 -22 -72t-72 -22h-645z" />
<glyph unicode="H" horiz-adv-x="1554" d="M215 -20q-49 0 -71.5 22t-22.5 72v1327q0 49 22.5 71.5t71.5 22.5h317q50 0 72.5 -22.5t22.5 -71.5v-424h301v424q0 49 22 71.5t72 22.5h317q50 0 72.5 -22.5t22.5 -71.5v-1327q0 -49 -22.5 -71.5t-72.5 -22.5h-317q-50 0 -72 22t-22 72v434h-301v-434q0 -49 -22.5 -71.5 t-72.5 -22.5h-317z" />
<glyph unicode="I" horiz-adv-x="1239" d="M182 -20q-50 0 -72 22t-22 72v243q0 50 22.5 72.5t71.5 22.5h183v647h-183q-50 0 -72 22.5t-22 71.5v248q0 49 22 71.5t72 22.5h873q49 0 71.5 -22.5t22.5 -71.5v-248q0 -49 -22.5 -71.5t-71.5 -22.5h-178v-647h178q49 0 71.5 -22.5t22.5 -72.5v-243q0 -50 -22.5 -72 t-71.5 -22h-873z" />
<glyph unicode="J" horiz-adv-x="1409" d="M1298 1401v-1014q0 -82 -15.5 -145t-57 -120t-110 -93.5t-178.5 -58t-259 -21.5q-147 0 -256 21.5t-177 58t-109.5 93.5t-57 120t-15.5 145v332q0 50 22.5 72t72.5 22h297q50 0 72 -21.5t22 -72.5v-250q0 -38 27 -57t98 -19q66 0 90 18.5t24 57.5v932q0 49 22.5 71.5 t72.5 22.5h321q50 0 72 -22.5t22 -71.5z" />
<glyph unicode="K" horiz-adv-x="1527" d="M532 -20h-317q-49 0 -71.5 22t-22.5 72v1327q0 49 22.5 71.5t71.5 22.5h317q50 0 72.5 -22.5t22.5 -71.5v-451h49l205 465q19 43 46 61.5t74 18.5h316q51 0 67 -25t-4 -71l-196 -451q111 -15 176 -94t65 -203v-577q0 -50 -22.5 -72t-71.5 -22h-315q-50 0 -72 22t-22 72 v399q0 49 -45 49h-250v-448q0 -49 -22.5 -71.5t-72.5 -22.5z" />
<glyph unicode="L" horiz-adv-x="1423" d="M215 -20q-49 0 -71.5 22t-22.5 72v1327q0 49 22.5 71.5t71.5 22.5h317q50 0 72.5 -22.5t22.5 -71.5v-993h239v311q0 49 22.5 71.5t72.5 22.5h296q50 0 72.5 -22.5t22.5 -71.5v-645q0 -49 -22.5 -71.5t-72.5 -22.5h-1042z" />
<glyph unicode="M" horiz-adv-x="1738" d="M520 -20h-305q-49 0 -71.5 22t-22.5 72v1327q0 49 22.5 71.5t71.5 22.5h330q38 0 63.5 -16t48.5 -56l185 -333q1 -2 4.5 -11t6 -11.5t7.5 -2.5h19q5 0 7.5 2.5t6 11.5t4.5 11l182 333q23 40 49 56t64 16h332q50 0 72 -22.5t22 -71.5v-1327q0 -50 -22 -72t-72 -22h-316 q-51 0 -72.5 22t-21.5 72v639l-82 -152q-22 -40 -52 -58t-75 -18h-82q-45 0 -75 18t-52 58l-82 152v-639q0 -50 -22 -72t-72 -22z" />
<glyph unicode="N" horiz-adv-x="1542" d="M522 -20h-307q-49 0 -71.5 22t-22.5 72v1327q0 49 22.5 71.5t71.5 22.5h213q44 0 75 -13.5t62 -47.5l361 -412v379q0 49 22 71.5t72 22.5h307q49 0 71.5 -22.5t22.5 -71.5v-1327q0 -50 -22.5 -72t-71.5 -22h-307q-50 0 -72 22t-22 72v243l-310 375v-618q0 -50 -22 -72 t-72 -22z" />
<glyph unicode="O" d="M1411 1085v-698q0 -82 -16.5 -145t-60 -120t-116 -93.5t-188.5 -58t-274 -21.5t-274.5 21.5t-189.5 58t-117 93.5t-60.5 120t-16.5 145v698q0 82 16.5 145.5t60.5 121t117 94.5t189.5 58.5t274.5 21.5t274.5 -21.5t188.5 -58.5t115.5 -94.5t60 -121t16.5 -145.5z M604 1012v-551q0 -39 34 -57.5t118 -18.5t117.5 18.5t33.5 57.5v551q0 37 -33.5 55t-117.5 18q-83 0 -117.5 -18t-34.5 -55z" />
<glyph unicode="P" horiz-adv-x="1396" d="M215 -20q-49 0 -71.5 22t-22.5 72v1327q0 49 22.5 71.5t71.5 22.5h627q115 0 202.5 -20t144 -56t92.5 -89.5t50.5 -115t14.5 -139.5v-262q0 -78 -14.5 -139.5t-50.5 -115t-92.5 -89.5t-144 -56t-202.5 -20h-215v-319q0 -49 -22.5 -71.5t-72.5 -22.5h-317zM786 1071h-163 v-268h163q76 0 76 80v108q0 80 -76 80z" />
<glyph unicode="Q" d="M596 -205q-50 0 -72 22.5t-22 71.5v95q-117 19 -197.5 57.5t-124.5 95t-63 121t-19 148.5v679q0 82 16.5 145.5t60.5 121t117 94.5t189.5 58.5t274.5 21.5t274.5 -21.5t188.5 -58.5t115.5 -94.5t60 -121t16.5 -145.5v-679q0 -84 -18.5 -148.5t-62 -121.5t-125 -95 t-199.5 -57v-95q0 -49 -22.5 -71.5t-72.5 -22.5h-315zM604 1010v-559q0 -39 34 -57.5t118 -18.5t117.5 18.5t33.5 57.5v559q0 37 -33.5 55t-117.5 18q-83 0 -117.5 -18t-34.5 -55z" />
<glyph unicode="R" horiz-adv-x="1521" d="M758 1085h-133v-221h133q40 0 54.5 20t14.5 56v70q0 36 -14.5 55.5t-54.5 19.5zM530 -20h-315q-49 0 -71.5 22t-22.5 72v1327q0 49 22.5 71.5t71.5 22.5h682q119 0 203 -26t131.5 -76t68.5 -113t21 -147v-95q0 -157 -80 -223q99 -28 156 -108t57 -199v-434q0 -50 -22 -72 t-72 -22h-318q-50 0 -72 22t-22 72v313q0 35 -13 51.5t-44 16.5h-266v-381q0 -49 -22.5 -71.5t-72.5 -22.5z" />
<glyph unicode="S" horiz-adv-x="1331" d="M1270 360q0 -183 -117 -281.5t-328 -98.5h-647q-50 0 -72 22t-22 72v239q0 50 22.5 72.5t71.5 22.5h551q33 0 33 38q0 47 -35 50l-307 43q-166 25 -251 106.5t-85 253.5v215q0 184 116 282.5t328 98.5h574q50 0 72 -22.5t22 -71.5v-244q0 -49 -22 -71.5t-72 -22.5h-477 q-17 0 -26 -11.5t-9 -29.5q0 -42 37 -45l305 -41q166 -25 252 -107t86 -254v-215z" />
<glyph unicode="T" horiz-adv-x="1343" d="M506 -20q-50 0 -72 22t-22 72v985h-281q-49 0 -71.5 22.5t-22.5 71.5v248q0 49 22.5 71.5t71.5 22.5h1081q50 0 72.5 -22.5t22.5 -71.5v-248q0 -49 -22.5 -71.5t-72.5 -22.5h-280v-985q0 -50 -22 -72t-72 -22h-332z" />
<glyph unicode="U" horiz-adv-x="1527" d="M1417 1401v-1014q0 -82 -16.5 -145t-60.5 -120t-116 -93.5t-188 -58t-272 -21.5t-272 21.5t-188 58t-116 93.5t-60.5 120t-16.5 145v1014q0 49 22.5 71.5t71.5 22.5h321q50 0 72.5 -22.5t22.5 -71.5v-934q0 -39 33 -57.5t114 -18.5q83 0 116.5 18.5t33.5 57.5v934 q0 50 21.5 72t72.5 22h311q49 0 71.5 -22.5t22.5 -71.5z" />
<glyph unicode="V" horiz-adv-x="1495" d="M1137 59q-18 -44 -46.5 -61.5t-76.5 -17.5h-533q-48 0 -76.5 17.5t-46.5 61.5l-200 502q-43 107 -55.5 156.5t-12.5 142.5v541q0 49 22 71.5t72 22.5h326q100 0 100 -94v-565q0 -24 15 -78l98 -287q3 -12 6.5 -16t11.5 -4h23q8 0 11.5 4t8.5 16l97 289q14 51 14 78v563 q0 49 22.5 71.5t71.5 22.5h322q51 0 72.5 -22t21.5 -72v-541q0 -93 -12.5 -142.5t-55.5 -156.5z" />
<glyph unicode="W" horiz-adv-x="1701" d="M623 -20h-271q-39 0 -67.5 23.5t-40.5 64.5l-103 282q-18 48 -27 95.5t-10.5 77t-1.5 87.5v791q0 49 22.5 71.5t72.5 22.5h315q50 0 72 -22.5t22 -71.5v-662l80 174q20 41 49.5 58.5t77.5 17.5h86q48 0 77.5 -17.5t49.5 -58.5l80 -174v662q0 50 21.5 72t72.5 22h305 q49 0 71.5 -22.5t22.5 -71.5v-795q0 -60 -1 -88t-10 -76t-27 -96l-103 -278q-28 -88 -100 -88h-273q-90 0 -114 75l-94 334q-3 21 -17 21h-18q-14 0 -17 -21l-96 -334q-24 -75 -106 -75z" />
<glyph unicode="X" d="M502 -20h-305q-50 0 -72.5 22.5t-22.5 71.5v219q0 98 16 147.5t66 116.5l158 211l-158 211q-50 67 -66 116.5t-16 147.5v158q0 49 22.5 71.5t72.5 22.5h315q50 0 72 -22.5t22 -71.5v-141q0 -52 15 -74l94 -137q1 -1 4 -5.5l4 -6t4 -5t4.5 -4.5l4.5 -3t6 -2.5t6 -0.5h24 q3 0 6 0.5t6 2.5l4.5 3t4.5 4.5t4 5l4 6t4 5.5l94 137q14 20 14 74v141q0 49 22.5 71.5t72.5 22.5h305q49 0 71.5 -22.5t22.5 -71.5v-158q0 -98 -16 -147.5t-66 -116.5l-158 -213l158 -209q50 -67 66 -116.5t16 -147.5v-219q0 -50 -22.5 -72t-71.5 -22h-316q-49 0 -71.5 22 t-22.5 72v202q0 49 -14 74l-94 137q-2 2 -5.5 7t-5 7t-4.5 5.5t-5 4.5t-5.5 2t-7.5 1h-25q-5 0 -8.5 -1t-6.5 -4t-5 -5.5t-6 -8t-6 -8.5l-95 -135q-14 -27 -14 -76v-202q0 -50 -22 -72t-72 -22z" />
<glyph unicode="Y" horiz-adv-x="1443" d="M557 -20q-51 0 -72.5 22t-21.5 72v256l-309 413q-50 67 -66 117t-16 148v393q0 49 22 71.5t72 22.5h315q49 0 71.5 -22.5t22.5 -71.5v-336q0 -47 15 -76l96 -147q12 -25 31 -25h20q17 0 33 25l94 147q15 29 15 76v336q0 49 22.5 71.5t71.5 22.5h305q50 0 72 -22.5 t22 -71.5v-393q0 -98 -16 -148t-66 -117l-307 -415v-254q0 -50 -22.5 -72t-71.5 -22h-332z" />
<glyph unicode="Z" horiz-adv-x="1351" d="M168 -20q-50 0 -72 22t-22 72v274q0 81 55 139l471 572h-395q-49 0 -71.5 22.5t-22.5 71.5v248q0 49 22.5 71.5t71.5 22.5h942q49 0 71.5 -22.5t22.5 -71.5v-305q0 -84 -55 -142l-449 -542h447q49 0 71.5 -22.5t22.5 -72.5v-243q0 -50 -22 -72t-72 -22h-1016z" />
<glyph unicode="[" horiz-adv-x="878" d="M172 -184q-50 0 -72 22t-22 72v1655q0 49 22 71.5t72 22.5h541q49 0 71.5 -22.5t22.5 -71.5v-248q0 -49 -22.5 -71.5t-71.5 -22.5h-127v-975h127q49 0 71.5 -22t22.5 -72v-244q0 -50 -22.5 -72t-71.5 -22h-541z" />
<glyph unicode="\" horiz-adv-x="710" d="M330 -205q-47 0 -67.5 21t-26.5 71l-246 1696q-12 96 94 96h297q47 0 67.5 -21t26.5 -71l246 -1696q12 -96 -94 -96h-297z" />
<glyph unicode="]" horiz-adv-x="878" d="M166 -184q-50 0 -72 22t-22 72v244q0 50 22 72t72 22h127v975h-127q-50 0 -72 22.5t-22 71.5v248q0 49 22 71.5t72 22.5h541q49 0 71.5 -22.5t22.5 -71.5v-1655q0 -50 -22.5 -72t-71.5 -22h-541z" />
<glyph unicode="^" horiz-adv-x="1462" d="M518 420q-6 -48 -30.5 -69.5t-73.5 -20.5l-271 2q-51 0 -71 23.5t-11 74.5v2l222 780q21 73 45 120.5t62.5 85t95 54.5t135.5 17h149q79 0 135 -17t94.5 -55t62.5 -85t46 -120l221 -782q9 -51 -11 -74.5t-71 -23.5l-270 -2q-49 -1 -74 20.5t-31 69.5v-4l-159 594 q-1 8 -2 11t-4 5.5t-9 1.5h-4q-9 1 -12 -3t-4 -14v-3l-160 -592v4z" />
<glyph unicode="_" horiz-adv-x="1503" d="M1286 -231h-1069q-50 0 -72 21.5t-22 72.5v274q0 49 22.5 71.5t71.5 22.5h1069q50 0 72 -21.5t22 -72.5v-274q0 -51 -22 -72.5t-72 -21.5z" />
<glyph unicode="`" horiz-adv-x="1024" d="M961 1610q0 -48 -24 -71t-69 -17l-714 88q-50 6 -71.5 27t-21.5 67v197q0 48 24 71t69 17l714 -88q50 -6 71.5 -27t21.5 -68v-196z" />
<glyph unicode="a" horiz-adv-x="1495" d="M784 1038l2 -2q-1 1 -2.5 4t-2 4.5t-2 4t-2 3.5t-2 2.5t-3 2.5t-3 1.5t-3.5 0.5h-51q-9 0 -21 -23l2 2l-88 -284h264zM184 -20q-50 0 -72 22t-22 72v540q0 125 82 336l178 463q26 82 123 82h551q95 0 121 -80l178 -465q82 -211 82 -336v-540q0 -50 -22.5 -72t-71.5 -22 h-310q-52 0 -76 23t-24 71v266h-321v-266q0 -49 -22.5 -71.5t-72.5 -22.5h-301z" />
<glyph unicode="b" horiz-adv-x="1484" d="M215 -20q-49 0 -71.5 22t-22.5 72v1327q0 49 22.5 71.5t71.5 22.5h653q214 0 314 -82t100 -252v-98q0 -145 -82 -209q111 -26 165 -106t54 -224v-188q0 -182 -101 -269t-317 -87h-786zM776 1106h-153v-180h153q58 0 58 61v57q0 62 -58 62zM868 569h-245v-200h245 q58 0 58 61v80q0 59 -58 59z" />
<glyph unicode="c" horiz-adv-x="1286" d="M1217 74q0 -49 -22.5 -71.5t-72.5 -22.5h-499q-269 0 -397 107.5t-128 330.5v637q0 225 128 332.5t397 107.5h499q50 0 72.5 -22.5t22.5 -71.5v-248q0 -49 -22.5 -71.5t-72.5 -22.5h-411q-105 0 -105 -82v-488q0 -41 26 -59t79 -18h411q50 0 72.5 -23t22.5 -72v-243z" />
<glyph unicode="d" horiz-adv-x="1527" d="M1430 418q0 -223 -128 -330.5t-397 -107.5h-690q-49 0 -71.5 22t-22.5 72v1327q0 49 22.5 71.5t71.5 22.5h690q269 0 397 -107.5t128 -330.5v-639zM850 1063h-223v-655h223q76 0 76 79v498q0 78 -76 78z" />
<glyph unicode="e" horiz-adv-x="1339" d="M215 -20q-49 0 -71.5 22t-22.5 72v1327q0 49 22.5 71.5t71.5 22.5h950q50 0 72.5 -22.5t22.5 -71.5v-240q0 -49 -22.5 -71.5t-72.5 -22.5h-544v-117h378q50 0 72.5 -22.5t22.5 -71.5v-219q0 -49 -22.5 -71.5t-72.5 -22.5h-378v-135h544q49 0 72 -23t23 -72v-239 q0 -49 -22.5 -71.5t-72.5 -22.5h-950z" />
<glyph unicode="f" horiz-adv-x="1265" d="M215 -20q-49 0 -71.5 22t-22.5 72v1327q0 49 22.5 71.5t71.5 22.5h913q50 0 72.5 -22.5t22.5 -71.5v-244q0 -49 -22.5 -71.5t-72.5 -22.5h-501v-172h336q49 0 71.5 -22.5t22.5 -71.5v-246q0 -49 -22.5 -71.5t-71.5 -22.5h-336v-383q0 -49 -22.5 -71.5t-72.5 -22.5h-317z " />
<glyph unicode="g" horiz-adv-x="1449" d="M623 -20q-269 0 -397 107.5t-128 330.5v639q0 223 128 330.5t397 107.5h512q49 0 71.5 -22.5t22.5 -71.5v-248q0 -49 -22.5 -71.5t-71.5 -22.5h-426q-105 0 -105 -82v-490q0 -41 18 -60t56 -19h178v299q0 49 22 71.5t72 22.5h318q50 0 72 -22.5t22 -71.5v-633 q0 -50 -22 -72t-72 -22h-645z" />
<glyph unicode="h" horiz-adv-x="1554" d="M215 -20q-49 0 -71.5 22t-22.5 72v1327q0 49 22.5 71.5t71.5 22.5h317q50 0 72.5 -22.5t22.5 -71.5v-424h301v424q0 49 22 71.5t72 22.5h317q50 0 72.5 -22.5t22.5 -71.5v-1327q0 -49 -22.5 -71.5t-72.5 -22.5h-317q-50 0 -72 22t-22 72v434h-301v-434q0 -49 -22.5 -71.5 t-72.5 -22.5h-317z" />
<glyph unicode="i" horiz-adv-x="1239" d="M182 -20q-50 0 -72 22t-22 72v243q0 50 22.5 72.5t71.5 22.5h183v647h-183q-50 0 -72 22.5t-22 71.5v248q0 49 22 71.5t72 22.5h873q49 0 71.5 -22.5t22.5 -71.5v-248q0 -49 -22.5 -71.5t-71.5 -22.5h-178v-647h178q49 0 71.5 -22.5t22.5 -72.5v-243q0 -50 -22.5 -72 t-71.5 -22h-873z" />
<glyph unicode="j" horiz-adv-x="1409" d="M1298 1401v-1014q0 -82 -15.5 -145t-57 -120t-110 -93.5t-178.5 -58t-259 -21.5q-147 0 -256 21.5t-177 58t-109.5 93.5t-57 120t-15.5 145v332q0 50 22.5 72t72.5 22h297q50 0 72 -21.5t22 -72.5v-250q0 -38 27 -57t98 -19q66 0 90 18.5t24 57.5v932q0 49 22.5 71.5 t72.5 22.5h321q50 0 72 -22.5t22 -71.5z" />
<glyph unicode="k" horiz-adv-x="1527" d="M532 -20h-317q-49 0 -71.5 22t-22.5 72v1327q0 49 22.5 71.5t71.5 22.5h317q50 0 72.5 -22.5t22.5 -71.5v-451h49l205 465q19 43 46 61.5t74 18.5h316q51 0 67 -25t-4 -71l-196 -451q111 -15 176 -94t65 -203v-577q0 -50 -22.5 -72t-71.5 -22h-315q-50 0 -72 22t-22 72 v399q0 49 -45 49h-250v-448q0 -49 -22.5 -71.5t-72.5 -22.5z" />
<glyph unicode="l" horiz-adv-x="1423" d="M215 -20q-49 0 -71.5 22t-22.5 72v1327q0 49 22.5 71.5t71.5 22.5h317q50 0 72.5 -22.5t22.5 -71.5v-993h239v311q0 49 22.5 71.5t72.5 22.5h296q50 0 72.5 -22.5t22.5 -71.5v-645q0 -49 -22.5 -71.5t-72.5 -22.5h-1042z" />
<glyph unicode="m" horiz-adv-x="1738" d="M520 -20h-305q-49 0 -71.5 22t-22.5 72v1327q0 49 22.5 71.5t71.5 22.5h330q38 0 63.5 -16t48.5 -56l185 -333q1 -2 4.5 -11t6 -11.5t7.5 -2.5h19q5 0 7.5 2.5t6 11.5t4.5 11l182 333q23 40 49 56t64 16h332q50 0 72 -22.5t22 -71.5v-1327q0 -50 -22 -72t-72 -22h-316 q-51 0 -72.5 22t-21.5 72v639l-82 -152q-22 -40 -52 -58t-75 -18h-82q-45 0 -75 18t-52 58l-82 152v-639q0 -50 -22 -72t-72 -22z" />
<glyph unicode="n" horiz-adv-x="1542" d="M522 -20h-307q-49 0 -71.5 22t-22.5 72v1327q0 49 22.5 71.5t71.5 22.5h213q44 0 75 -13.5t62 -47.5l361 -412v379q0 49 22 71.5t72 22.5h307q49 0 71.5 -22.5t22.5 -71.5v-1327q0 -50 -22.5 -72t-71.5 -22h-307q-50 0 -72 22t-22 72v243l-310 375v-618q0 -50 -22 -72 t-72 -22z" />
<glyph unicode="o" d="M1411 1085v-698q0 -82 -16.5 -145t-60 -120t-116 -93.5t-188.5 -58t-274 -21.5t-274.5 21.5t-189.5 58t-117 93.5t-60.5 120t-16.5 145v698q0 82 16.5 145.5t60.5 121t117 94.5t189.5 58.5t274.5 21.5t274.5 -21.5t188.5 -58.5t115.5 -94.5t60 -121t16.5 -145.5z M604 1012v-551q0 -39 34 -57.5t118 -18.5t117.5 18.5t33.5 57.5v551q0 37 -33.5 55t-117.5 18q-83 0 -117.5 -18t-34.5 -55z" />
<glyph unicode="p" horiz-adv-x="1396" d="M215 -20q-49 0 -71.5 22t-22.5 72v1327q0 49 22.5 71.5t71.5 22.5h627q115 0 202.5 -20t144 -56t92.5 -89.5t50.5 -115t14.5 -139.5v-262q0 -78 -14.5 -139.5t-50.5 -115t-92.5 -89.5t-144 -56t-202.5 -20h-215v-319q0 -49 -22.5 -71.5t-72.5 -22.5h-317zM786 1071h-163 v-268h163q76 0 76 80v108q0 80 -76 80z" />
<glyph unicode="q" d="M596 -205q-50 0 -72 22.5t-22 71.5v95q-117 19 -197.5 57.5t-124.5 95t-63 121t-19 148.5v679q0 82 16.5 145.5t60.5 121t117 94.5t189.5 58.5t274.5 21.5t274.5 -21.5t188.5 -58.5t115.5 -94.5t60 -121t16.5 -145.5v-679q0 -84 -18.5 -148.5t-62 -121.5t-125 -95 t-199.5 -57v-95q0 -49 -22.5 -71.5t-72.5 -22.5h-315zM604 1010v-559q0 -39 34 -57.5t118 -18.5t117.5 18.5t33.5 57.5v559q0 37 -33.5 55t-117.5 18q-83 0 -117.5 -18t-34.5 -55z" />
<glyph unicode="r" horiz-adv-x="1521" d="M758 1085h-133v-221h133q40 0 54.5 20t14.5 56v70q0 36 -14.5 55.5t-54.5 19.5zM530 -20h-315q-49 0 -71.5 22t-22.5 72v1327q0 49 22.5 71.5t71.5 22.5h682q119 0 203 -26t131.5 -76t68.5 -113t21 -147v-95q0 -157 -80 -223q99 -28 156 -108t57 -199v-434q0 -50 -22 -72 t-72 -22h-318q-50 0 -72 22t-22 72v313q0 35 -13 51.5t-44 16.5h-266v-381q0 -49 -22.5 -71.5t-72.5 -22.5z" />
<glyph unicode="s" horiz-adv-x="1331" d="M1270 360q0 -183 -117 -281.5t-328 -98.5h-647q-50 0 -72 22t-22 72v239q0 50 22.5 72.5t71.5 22.5h551q33 0 33 38q0 47 -35 50l-307 43q-166 25 -251 106.5t-85 253.5v215q0 184 116 282.5t328 98.5h574q50 0 72 -22.5t22 -71.5v-244q0 -49 -22 -71.5t-72 -22.5h-477 q-17 0 -26 -11.5t-9 -29.5q0 -42 37 -45l305 -41q166 -25 252 -107t86 -254v-215z" />
<glyph unicode="t" horiz-adv-x="1343" d="M506 -20q-50 0 -72 22t-22 72v985h-281q-49 0 -71.5 22.5t-22.5 71.5v248q0 49 22.5 71.5t71.5 22.5h1081q50 0 72.5 -22.5t22.5 -71.5v-248q0 -49 -22.5 -71.5t-72.5 -22.5h-280v-985q0 -50 -22 -72t-72 -22h-332z" />
<glyph unicode="u" horiz-adv-x="1527" d="M1417 1401v-1014q0 -82 -16.5 -145t-60.5 -120t-116 -93.5t-188 -58t-272 -21.5t-272 21.5t-188 58t-116 93.5t-60.5 120t-16.5 145v1014q0 49 22.5 71.5t71.5 22.5h321q50 0 72.5 -22.5t22.5 -71.5v-934q0 -39 33 -57.5t114 -18.5q83 0 116.5 18.5t33.5 57.5v934 q0 50 21.5 72t72.5 22h311q49 0 71.5 -22.5t22.5 -71.5z" />
<glyph unicode="v" horiz-adv-x="1495" d="M1137 59q-18 -44 -46.5 -61.5t-76.5 -17.5h-533q-48 0 -76.5 17.5t-46.5 61.5l-200 502q-43 107 -55.5 156.5t-12.5 142.5v541q0 49 22 71.5t72 22.5h326q100 0 100 -94v-565q0 -24 15 -78l98 -287q3 -12 6.5 -16t11.5 -4h23q8 0 11.5 4t8.5 16l97 289q14 51 14 78v563 q0 49 22.5 71.5t71.5 22.5h322q51 0 72.5 -22t21.5 -72v-541q0 -93 -12.5 -142.5t-55.5 -156.5z" />
<glyph unicode="w" horiz-adv-x="1701" d="M623 -20h-271q-39 0 -67.5 23.5t-40.5 64.5l-103 282q-18 48 -27 95.5t-10.5 77t-1.5 87.5v791q0 49 22.5 71.5t72.5 22.5h315q50 0 72 -22.5t22 -71.5v-662l80 174q20 41 49.5 58.5t77.5 17.5h86q48 0 77.5 -17.5t49.5 -58.5l80 -174v662q0 50 21.5 72t72.5 22h305 q49 0 71.5 -22.5t22.5 -71.5v-795q0 -60 -1 -88t-10 -76t-27 -96l-103 -278q-28 -88 -100 -88h-273q-90 0 -114 75l-94 334q-3 21 -17 21h-18q-14 0 -17 -21l-96 -334q-24 -75 -106 -75z" />
<glyph unicode="x" d="M502 -20h-305q-50 0 -72.5 22.5t-22.5 71.5v219q0 98 16 147.5t66 116.5l158 211l-158 211q-50 67 -66 116.5t-16 147.5v158q0 49 22.5 71.5t72.5 22.5h315q50 0 72 -22.5t22 -71.5v-141q0 -52 15 -74l94 -137q1 -1 4 -5.5l4 -6t4 -5t4.5 -4.5l4.5 -3t6 -2.5t6 -0.5h24 q3 0 6 0.5t6 2.5l4.5 3t4.5 4.5t4 5l4 6t4 5.5l94 137q14 20 14 74v141q0 49 22.5 71.5t72.5 22.5h305q49 0 71.5 -22.5t22.5 -71.5v-158q0 -98 -16 -147.5t-66 -116.5l-158 -213l158 -209q50 -67 66 -116.5t16 -147.5v-219q0 -50 -22.5 -72t-71.5 -22h-316q-49 0 -71.5 22 t-22.5 72v202q0 49 -14 74l-94 137q-2 2 -5.5 7t-5 7t-4.5 5.5t-5 4.5t-5.5 2t-7.5 1h-25q-5 0 -8.5 -1t-6.5 -4t-5 -5.5t-6 -8t-6 -8.5l-95 -135q-14 -27 -14 -76v-202q0 -50 -22 -72t-72 -22z" />
<glyph unicode="y" horiz-adv-x="1443" d="M557 -20q-51 0 -72.5 22t-21.5 72v256l-309 413q-50 67 -66 117t-16 148v393q0 49 22 71.5t72 22.5h315q49 0 71.5 -22.5t22.5 -71.5v-336q0 -47 15 -76l96 -147q12 -25 31 -25h20q17 0 33 25l94 147q15 29 15 76v336q0 49 22.5 71.5t71.5 22.5h305q50 0 72 -22.5 t22 -71.5v-393q0 -98 -16 -148t-66 -117l-307 -415v-254q0 -50 -22.5 -72t-71.5 -22h-332z" />
<glyph unicode="z" horiz-adv-x="1351" d="M168 -20q-50 0 -72 22t-22 72v274q0 81 55 139l471 572h-395q-49 0 -71.5 22.5t-22.5 71.5v248q0 49 22.5 71.5t71.5 22.5h942q49 0 71.5 -22.5t22.5 -71.5v-305q0 -84 -55 -142l-449 -542h447q49 0 71.5 -22.5t22.5 -72.5v-243q0 -50 -22 -72t-72 -22h-1016z" />
<glyph unicode="{" horiz-adv-x="931" d="M676 -184q-148 0 -252.5 31.5t-162.5 91.5t-83.5 136.5t-25.5 178.5v250q-67 25 -99.5 72t-32.5 122v72q0 75 32.5 121.5t99.5 71.5v256q0 102 25.5 179t83.5 137.5t162.5 92t252.5 31.5h90q50 0 72 -22.5t22 -71.5v-248q0 -49 -22 -71.5t-72 -22.5h-43q-38 0 -51 -19.5 t-13 -62.5v-240q0 -72 -23.5 -104.5t-84.5 -42.5l-70 -13q-8 0 -8 -8t10 -8l68 -12q61 -10 84.5 -43t23.5 -105v-235q0 -43 13 -62.5t51 -19.5h43q50 0 72 -22t22 -72v-244q0 -50 -22 -72t-72 -22h-90z" />
<glyph unicode="|" horiz-adv-x="710" d="M504 1679q50 0 72 -22.5t22 -71.5v-1696q0 -49 -22 -71.5t-72 -22.5h-297q-49 0 -71.5 22.5t-22.5 71.5v1696q0 49 22.5 71.5t71.5 22.5h297z" />
<glyph unicode="}" horiz-adv-x="931" d="M166 -184q-50 0 -72 22t-22 72v244q0 50 22 72t72 22h43q37 0 50 19.5t13 62.5v235q0 72 24 105t85 43l68 12q10 0 10 8t-8 8h-2l-68 13q-61 10 -85 42.5t-24 104.5v240q0 43 -13 62.5t-50 19.5h-43q-50 0 -72 22.5t-22 71.5v248q0 49 22 71.5t72 22.5h90 q148 0 252.5 -31.5t162.5 -92t83.5 -137.5t25.5 -179v-256q67 -25 99 -71.5t32 -121.5v-72q0 -76 -32 -122.5t-99 -71.5v-250q0 -102 -25.5 -178.5t-83.5 -136.5t-162.5 -91.5t-252.5 -31.5h-90z" />
<glyph unicode="~" horiz-adv-x="1503" d="M1290 567q-149 -53 -238.5 -54.5t-254.5 28.5l-47 6l-82 10q-108 16 -174.5 17t-109.5 -8t-130 -36q-69 -18 -100 3.5t-31 68.5v217q0 58 23.5 85.5t66.5 41.5q150 53 237.5 55t254.5 -28l49 -6l63 -9q80 -12 129 -16t80.5 -7t73 6t60 14t87.5 26q133 38 133 -84v-203 q0 -57 -24.5 -84.5t-65.5 -42.5z" />
<glyph unicode="&#xa1;" horiz-adv-x="866" d="M623 1454q53 0 53 -53v-268q0 -29 -12.5 -41.5t-40.5 -12.5h-377q-28 0 -40.5 12.5t-12.5 41.5v268q0 53 53 53h377zM592 918q54 0 57 -54l29 -790q3 -54 -49 -54h-391q-53 0 -50 54l31 790q3 54 55 54h318z" />
<glyph unicode="&#xa2;" horiz-adv-x="1286" d="M594 -123q-50 0 -72 22.5t-22 71.5v97q-218 25 -310 136t-92 296v473q0 90 20 161t65.5 129t125 94.5t191.5 49.5v96q0 49 22 71.5t72 22.5h297q49 0 71.5 -22.5t22.5 -71.5v-90h137q50 0 72.5 -22.5t22.5 -71.5v-248q0 -49 -22.5 -71.5t-72.5 -22.5h-411 q-60 0 -82.5 -22t-22.5 -60v-324q0 -38 23 -57.5t82 -19.5h411q50 0 72.5 -23t22.5 -72v-243q0 -50 -22.5 -72.5t-72.5 -22.5h-137v-90q0 -49 -22.5 -71.5t-71.5 -22.5h-297z" />
<glyph unicode="&#xa3;" horiz-adv-x="1423" d="M215 -20q-49 0 -71.5 22t-22.5 72v448h-6q-50 0 -72.5 22t-22.5 72v220q0 49 22.5 71.5t72.5 22.5h6v127q0 102 25.5 178.5t83.5 136.5t162.5 91.5t252.5 31.5h389q50 0 72 -22.5t22 -71.5v-248q0 -49 -22 -71.5t-72 -22.5h-303q-60 0 -82 -21.5t-22 -60.5v-47h78 q50 0 72 -21.5t22 -72.5v-220q0 -51 -22 -72.5t-72 -21.5h-78v-114h239v188q0 49 22.5 71.5t72.5 22.5h296q50 0 72.5 -22.5t22.5 -71.5v-522q0 -49 -22.5 -71.5t-72.5 -22.5h-1042z" />
<glyph unicode="&#xa4;" horiz-adv-x="1681" d="M391 2q-31 -35 -60.5 -35.5t-68.5 35.5l-156 156q-66 69 0 129l185 184q-2 20 -2 61v408q0 44 2 64l-185 184q-68 62 0 127l156 155q68 70 129 0l164 -163q122 32 291 32q173 0 284 -30l162 161q62 71 127 0l156 -155q71 -65 0 -127l-178 -178q4 -46 4 -70v-408 q0 -47 -4 -67l178 -178q36 -31 36.5 -60.5t-36.5 -68.5l-156 -156q-65 -68 -127 0l-164 164q-115 -31 -282 -31q-183 0 -289 33zM702 881v-289q0 -37 32.5 -54.5t111.5 -17.5q80 0 111.5 17.5t31.5 54.5v289q0 35 -32 52t-111 17t-111.5 -17t-32.5 -52z" />
<glyph unicode="&#xa5;" horiz-adv-x="1439" d="M565 -20q-51 0 -72.5 22t-21.5 72v172h-203q-50 0 -72 21.5t-22 72.5v199q0 49 22 71.5t72 22.5h68l-203 260q-29 39 -43.5 86.5t-17 85.5t-2.5 106v230q0 49 22 71.5t72 22.5h317q49 0 71.5 -22.5t22.5 -71.5v-295q0 -36 13 -74l94 -131q20 -27 37 -27h24q19 0 37 27 l88 129q13 25 13 74v297q0 50 21.5 72t72.5 22h301q50 0 72 -22.5t22 -71.5v-232q0 -98 -11.5 -160t-51.5 -118l-199 -258h66q50 0 72 -21.5t22 -72.5v-199q0 -51 -22 -72.5t-72 -21.5h-203v-172q0 -50 -22.5 -72t-71.5 -22h-312z" />
<glyph unicode="&#xa6;" horiz-adv-x="710" d="M504 1679q50 0 72 -22.5t22 -71.5v-692q0 -49 -22 -71.5t-72 -22.5h-297q-49 0 -71.5 22.5t-22.5 71.5v692q0 49 22.5 71.5t71.5 22.5h297zM504 676q50 0 72 -22t22 -72v-693q0 -49 -22 -71.5t-72 -22.5h-297q-49 0 -71.5 22.5t-22.5 71.5v693q0 50 22.5 72t71.5 22h297z " />
<glyph unicode="&#xa7;" horiz-adv-x="1331" d="M201 -20q-50 0 -72.5 22.5t-22.5 71.5v166q0 49 22.5 71.5t72.5 22.5h477q95 0 102 65h-170q-148 0 -252.5 31.5t-162.5 92t-83.5 137t-25.5 178.5v217q0 102 25.5 179t83.5 137.5t162.5 92t252.5 31.5h492q50 0 72 -22.5t22 -71.5v-166q0 -49 -22 -71.5t-72 -22.5h-424 q-96 0 -103 -66h170q148 0 252.5 -31.5t163 -91.5t84 -136.5t25.5 -178.5v-217q0 -102 -25.5 -179t-84 -137.5t-163 -92t-252.5 -31.5h-544zM678 688h104v21q0 38 -22.5 57.5t-81.5 19.5h-105v-20q0 -38 23 -58t82 -20z" />
<glyph unicode="&#xa8;" horiz-adv-x="1024" d="M473 1624q0 -46 -21 -67t-67 -21h-283q-90 0 -90 88v248q0 88 90 88h283q46 0 67 -21t21 -67v-248zM1001 1624q0 -46 -21 -67t-67 -21h-282q-46 0 -67 21t-21 67v248q0 46 21 67t67 21h282q46 0 67 -21t21 -67v-248z" />
<glyph unicode="&#xa9;" horiz-adv-x="1775" d="M1673 1155v-840q0 -98 -19.5 -173t-72 -143t-139 -111.5t-226 -69t-327.5 -25.5t-327 25.5t-226.5 69.5t-140.5 111.5t-73 142.5t-20 173v840q0 98 20 174t73 144t140.5 112.5t226.5 70t327 25.5t327.5 -25.5t226 -70t139 -112.5t72 -143.5t19.5 -174.5zM889 31 q154 0 260.5 18.5t166.5 56t85.5 86t25.5 115.5v856q0 68 -25.5 117t-85.5 87.5t-166.5 57.5t-260.5 19q-124 0 -217.5 -13t-154.5 -36t-99 -59t-54 -77.5t-16 -95.5v-856q0 -67 26 -115.5t86.5 -86t167.5 -56t261 -18.5zM1280 279q0 -74 -74 -74h-358q-87 0 -153.5 15.5 t-109 43t-69.5 68.5t-38 87.5t-11 104.5v457q0 74 18.5 130t60.5 101t118 68t184 23h358q74 0 74 -74v-178q0 -72 -74 -72h-295q-69 0 -69 -53v-351q0 -25 15 -37t54 -12h295q38 0 56 -17.5t18 -55.5v-174z" />
<glyph unicode="&#xaa;" horiz-adv-x="1064" d="M518 1157l-63 -188h145l-59 186q2 8 0 8h-27l3 -4h1v-2zM135 393q-82 0 -82 82v367q0 122 45 227q20 56 62.5 174t62.5 174q20 43 44.5 60.5t72.5 17.5h387q46 0 71 -18t44 -62l127 -346q43 -114 43 -227v-367q0 -42 -19.5 -62t-62.5 -20h-221q-82 0 -82 82v174h-199 v-174q0 -82 -82 -82h-211zM918 -20h-771q-50 0 -72 21.5t-22 72.5v137q0 49 22.5 71.5t71.5 22.5h771q50 0 72 -21.5t22 -72.5v-137q0 -51 -22 -72.5t-72 -21.5z" />
<glyph unicode="&#xab;" horiz-adv-x="1662" d="M1561 287q0 -52 -26 -74.5t-75 -9.5l-346 98q-72 21 -119.5 45t-84.5 62.5t-53.5 95t-16.5 135.5v152q0 80 16.5 135.5t53 94t84 62.5t120.5 45l346 101q45 13 73 -10.5t28 -73.5v-234q0 -87 -86 -118h-2v-2l-195 -58q-1 0 -5 -1.5t-5 -1.5t-4 -1t-3.5 -2l-1.5 -3 t-1.5 -4t-0.5 -5q0 -5 1 -8t5 -5.5t5.5 -3t9.5 -2.5l195 -55q88 -27 88 -121v-233zM823 281q0 -52 -25.5 -74.5t-74.5 -9.5l-367 104q-72 21 -119.5 45t-84.5 62.5t-53.5 95t-16.5 135.5v152q0 79 16.5 135t54 94t84 62t119.5 46l367 107q45 11 72.5 -10t27.5 -74v-240 q0 -87 -86 -118h-2l-194 -60l2 2q-2 -1 -9 -3.5t-8.5 -3.5t-3.5 -4.5t-2 -8.5t1 -8t5 -5.5t5.5 -3t9.5 -2.5l194 -55q88 -27 88 -121v-239z" />
<glyph unicode="&#xac;" horiz-adv-x="1503" d="M1032 109q-51 0 -72.5 22t-21.5 72v405h-721q-50 0 -72 21.5t-22 72.5v234q0 50 22.5 72t71.5 22h1069q50 0 72 -21.5t22 -72.5v-733q0 -50 -21.5 -72t-72.5 -22h-254z" />
<glyph unicode="&#xad;" horiz-adv-x="860" d="M705 506h-549q-50 0 -72.5 22t-22.5 72v274q0 50 22.5 72.5t72.5 22.5h549q50 0 72 -22t22 -73v-274q0 -51 -22 -72.5t-72 -21.5z" />
<glyph unicode="&#xae;" horiz-adv-x="1146" d="M1053 1210v-503q0 -60 -12 -105.5t-43.5 -87.5t-84.5 -69.5t-138.5 -43.5t-201.5 -16q-115 0 -200.5 16t-138 43.5t-84.5 69.5t-44 88t-12 105v503q0 61 12 107.5t44 89t84.5 70t138 43.5t200.5 16q116 0 201.5 -16t138.5 -43.5t84.5 -70t43.5 -89t12 -107.5zM573 545 q173 0 244.5 39t71.5 118v515q0 79 -72 119t-244 40t-243.5 -40t-71.5 -119v-515q0 -79 71 -118t244 -39zM571 1102h-43v-68h43q17 0 17 21v26q0 21 -17 21zM479 647h-129q-27 0 -39 12t-12 39v543q0 28 11.5 39.5t39.5 11.5h279q103 0 144.5 -41t41.5 -118v-39 q0 -56 -24 -86q77 -38 77 -131v-179q0 -51 -49 -51h-131q-51 0 -51 51v136q0 14 -10 14h-99v-150q0 -51 -49 -51z" />
<glyph unicode="&#xaf;" horiz-adv-x="1024" d="M961 1630q0 -49 -22.5 -71.5t-72.5 -22.5h-710q-50 0 -72.5 22.5t-22.5 71.5v191q0 49 22.5 71.5t72.5 22.5h710q50 0 72.5 -22.5t22.5 -71.5v-191z" />
<glyph unicode="&#xb0;" horiz-adv-x="989" d="M918 1247v-377q0 -61 -17 -104.5t-61 -80t-130 -55t-214 -18.5q-103 0 -179 13t-122.5 34.5t-74.5 55.5t-38 70.5t-10 84.5v377q0 48 10 84.5t38 70.5t74.5 55.5t122.5 34.5t179 13q128 0 214 -18.5t130 -55t61 -80t17 -104.5zM414 1145v-174q0 -35 82 -35t82 35v174 q0 37 -82 37t-82 -37z" />
<glyph unicode="&#xb1;" horiz-adv-x="1503" d="M625 236q-51 0 -73 22t-22 72v323h-313q-50 0 -72 22t-22 73v233q0 49 22.5 71.5t71.5 22.5h313v324q0 50 22 72t73 22h254q49 0 71.5 -22.5t22.5 -71.5v-324h313q50 0 72 -21.5t22 -72.5v-233q0 -51 -22 -73t-72 -22h-313v-323q0 -50 -21.5 -72t-72.5 -22h-254z M1286 -18h-1069q-50 0 -72 21.5t-22 72.5v233q0 49 22.5 71.5t71.5 22.5h1069q50 0 72 -21.5t22 -72.5v-233q0 -51 -22 -72.5t-72 -21.5z" />
<glyph unicode="&#xb2;" horiz-adv-x="993" d="M135 393q-74 0 -74 74v254q0 71 12.5 124.5t32 87.5t54 60t66.5 40.5t81 29.5l197 59q14 6 20 13.5t6 21.5q0 11 -4.5 15t-15.5 4h-320q-38 0 -55.5 17.5t-17.5 55.5v172q0 38 17.5 56t55.5 18h435q136 0 208 -68t72 -196v-139q0 -115 -60.5 -179.5t-182.5 -101.5 l-201 -61q-2 -1 -5 -2l-4.5 -1.5t-4 -1.5t-3.5 -2t-3 -2.5t-2.5 -3t-1 -3.5t-1 -5t-0.5 -6v-10h400q38 0 55.5 -18t17.5 -56v-172q0 -38 -17.5 -56t-55.5 -18h-701z" />
<glyph unicode="&#xb3;" horiz-adv-x="991" d="M154 393q-74 0 -74 74v172q0 74 74 74h370q35 0 35 22v41q0 23 -35 23h-250q-38 0 -55.5 17.5t-17.5 55.5v158q0 38 17.5 56t55.5 18h154q37 0 37 22v23q0 25 -37 25h-274q-38 0 -56 17.5t-18 55.5v174q0 74 74 74h411q131 0 196.5 -61t65.5 -170v-86q0 -100 -51 -148 q83 -21 117.5 -75t34.5 -150v-148q0 -124 -78 -194t-229 -70h-467z" />
<glyph unicode="&#xb4;" horiz-adv-x="1024" d="M154 1522q-45 -6 -69 17t-24 71v196q0 47 21.5 68t71.5 27l714 88q45 6 69 -17t24 -71v-197q0 -46 -21.5 -67t-71.5 -27z" />
<glyph unicode="&#xb5;" horiz-adv-x="1460" d="M516 -205h-317q-50 0 -72.5 22.5t-22.5 71.5v1205q0 49 22.5 71.5t72.5 22.5h317q83 0 92 -74h2v-668q0 -37 28.5 -56t98.5 -19q72 0 100.5 18.5t28.5 56.5v648q0 50 22 72t73 22h311q50 0 72 -22t22 -72v-707q0 -82 -15 -145t-55 -120t-105.5 -93.5t-170.5 -58 t-246 -21.5q-90 0 -164 12v-72q0 -49 -22 -71.5t-72 -22.5z" />
<glyph unicode="&#xb6;" horiz-adv-x="1396" d="M748 578v-21h20zM385 557h21v21zM748 74q0 -54 -54 -54h-235q-53 0 -53 54v370q-169 28 -241.5 121.5t-72.5 247.5v262q0 89 23 155.5t75 118.5t143.5 78.5t221.5 26.5h627q53 0 53 -53v-1327q0 -54 -53 -54h-236q-53 0 -53 54v360h-145v-360z" />
<glyph unicode="&#xb7;" horiz-adv-x="745" d="M674 524q0 -50 -22 -72t-72 -22h-414q-50 0 -72 22t-22 72v416q0 51 22 72.5t72 21.5h414q50 0 72 -21.5t22 -72.5v-416z" />
<glyph unicode="&#xb8;" horiz-adv-x="1024" d="M653 -203q-12 -39 -38 -57.5t-74 -18.5h-258q-123 0 -80 109l174 471q15 45 41 58t74 -5l237 -88q85 -28 53 -106z" />
<glyph unicode="&#xb9;" horiz-adv-x="935" d="M152 393q-74 0 -74 74v178q0 74 74 74h145v450h-117q-74 0 -74 74v178q0 74 74 74h428q74 0 74 -74v-702h121q74 0 74 -74v-178q0 -74 -74 -74h-651z" />
<glyph unicode="&#xba;" horiz-adv-x="1075" d="M1016 1190v-494q0 -60 -11.5 -106t-43.5 -88.5t-84.5 -69.5t-137.5 -43t-200 -16q-143 0 -240 23t-148 68.5t-71.5 100.5t-20.5 131v494q0 61 12 107.5t44 89t85 70t138.5 43.5t200.5 16t200 -16t137.5 -43.5t84.5 -70t43.5 -89t11.5 -107.5zM446 1137v-389q0 -37 93 -37 q92 0 92 37v389q0 39 -92 39q-93 0 -93 -39zM922 -20h-768q-50 0 -72.5 22t-22.5 72v137q0 49 22.5 71.5t72.5 22.5h768q50 0 72 -21.5t22 -72.5v-137q0 -51 -22 -72.5t-72 -21.5z" />
<glyph unicode="&#xbb;" horiz-adv-x="1662" d="M940 197q-100 -27 -100 84v239q0 94 88 121l194 53q18 8 20 13q1 3 1 8t-2 8.5t-3.5 4.5t-8.5 3.5t-9 3.5l2 -2l-194 58q-88 27 -88 120v240q0 111 100 84l367 -107q72 -21 119.5 -45t84.5 -62t53.5 -94.5t16.5 -135.5v-152q0 -79 -16.5 -135.5t-53.5 -95t-84.5 -62.5 t-119.5 -45zM203 203q-101 -28 -101 84v233q0 94 88 121l195 55l12 4t6 4.5t3 10.5q0 8 -3.5 11.5t-12.5 5.5q-3 1 -5 1l-195 60h-2q-86 31 -86 118v234q0 55 26.5 77t74.5 7l346 -101q73 -21 120.5 -45t84 -62.5t53 -94t16.5 -135.5v-152q0 -79 -16.5 -135.5t-53.5 -95 t-84.5 -62.5t-119.5 -45z" />
<glyph unicode="&#xbc;" horiz-adv-x="2463" d="M152 393q-74 0 -74 74v178q0 74 74 74h145v450h-117q-74 0 -74 74v178q0 74 74 74h428q74 0 74 -74v-702h121q74 0 74 -74v-178q0 -74 -74 -74h-651zM2083 -20q-38 0 -56 17.5t-18 55.5v172h-229q-154 0 -221.5 63.5t-67.5 200.5v519q0 38 18 55.5t56 17.5h229 q38 0 55 -17.5t17 -55.5v-404q0 -13 7 -22t19 -9h117v435q0 38 18 55.5t56 17.5h227q38 0 55 -17.5t17 -55.5v-955q0 -38 -17 -55.5t-55 -17.5h-227zM944 -20q-54 0 -78.5 24.5t-15.5 73.5l246 1327q11 52 29.5 71t64.5 19h235q54 0 79 -24.5t16 -73.5l-246 -1327 q-11 -52 -29.5 -71t-64.5 -19h-236z" />
<glyph unicode="&#xbd;" horiz-adv-x="2375" d="M152 393q-74 0 -74 74v178q0 74 74 74h145v450h-117q-74 0 -74 74v178q0 74 74 74h428q74 0 74 -74v-702h121q74 0 74 -74v-178q0 -74 -74 -74h-651zM1518 -20q-38 0 -56 17.5t-18 55.5v254q0 71 12.5 124.5t32 87.5t54 60t66.5 40.5t81 29.5l196 60q15 7 21 13.5t6 20.5 q0 19 -21 19h-319q-74 0 -74 74v172q0 38 18 55.5t56 17.5h434q136 0 208.5 -68t72.5 -196v-139q0 -115 -60.5 -179.5t-183.5 -101.5l-201 -61q-1 0 -5 -1.5t-4.5 -2t-3.5 -1.5t-3.5 -2t-2.5 -2.5t-2.5 -3t-1.5 -3.5t-1 -5v-6v-10h399q74 0 74 -74v-172q0 -38 -18 -55.5 t-56 -17.5h-700zM944 -20q-54 0 -78.5 24.5t-15.5 73.5l246 1327q11 52 29.5 71t64.5 19h235q54 0 79 -24.5t16 -73.5l-246 -1327q-11 -52 -29.5 -71t-64.5 -19h-236z" />
<glyph unicode="&#xbe;" horiz-adv-x="2484" d="M154 393q-74 0 -74 74v172q0 74 74 74h370q35 0 35 22v41q0 23 -35 23h-250q-38 0 -55.5 17.5t-17.5 55.5v158q0 38 17.5 56t55.5 18h154q37 0 37 22v23q0 25 -37 25h-274q-38 0 -56 17.5t-18 55.5v174q0 74 74 74h411q131 0 196.5 -61t65.5 -170v-86q0 -100 -51 -148 q83 -21 117.5 -75t34.5 -150v-148q0 -124 -78 -194t-229 -70h-467zM2103 -20q-38 0 -55.5 17.5t-17.5 55.5v172h-230q-154 0 -221.5 63.5t-67.5 200.5v519q0 38 18 55.5t56 17.5h230q38 0 54.5 -17t16.5 -56v-404q0 -12 7.5 -21.5t19.5 -9.5h117v435q0 38 17.5 55.5 t55.5 17.5h228q38 0 54.5 -17t16.5 -56v-955q0 -39 -16.5 -56t-54.5 -17h-228zM965 -20q-54 0 -79 24.5t-16 73.5l246 1327q11 52 29.5 71t64.5 19h236q54 0 78.5 -24.5t15.5 -73.5l-246 -1327q-11 -52 -29.5 -71t-64.5 -19h-235z" />
<glyph unicode="&#xbf;" horiz-adv-x="1343" d="M545 1401q0 49 22.5 71.5t71.5 22.5h375q51 0 72.5 -22t21.5 -72v-268q0 -51 -21.5 -73t-72.5 -22h-375q-50 0 -72 22t-22 73v268zM516 -20q-212 0 -328 98.5t-116 281.5v215q0 173 85 255.5t251 105.5l555 76q49 6 71.5 -12t30.5 -68l43 -270q14 -97 -86 -109l-408 -57 q-20 -3 -28 -12t-8 -31q0 -37 34 -37h566q50 0 72 -21.5t22 -72.5v-248q0 -50 -22 -72t-72 -22h-662z" />
<glyph unicode="&#xc0;" horiz-adv-x="1495" d="M784 1038l2 -2q-1 1 -2.5 4t-2 4.5t-2 4t-2 3.5t-2 2.5t-3 2.5t-3 1.5t-3.5 0.5h-51q-9 0 -21 -23l2 2l-88 -284h264zM184 -20q-50 0 -72 22t-22 72v540q0 125 82 336l178 463q26 82 123 82h551q95 0 121 -80l178 -465q82 -211 82 -336v-540q0 -50 -22.5 -72t-71.5 -22 h-310q-52 0 -76 23t-24 71v266h-321v-266q0 -49 -22.5 -71.5t-72.5 -22.5h-301zM1196 1610q0 -48 -23.5 -71t-68.5 -17l-715 88q-50 6 -71 26.5t-21 67.5v197q0 48 23.5 71t68.5 17l715 -88q50 -6 71 -27t21 -68v-196z" />
<glyph unicode="&#xc1;" horiz-adv-x="1495" d="M784 1038l2 -2q-1 1 -2.5 4t-2 4.5t-2 4t-2 3.5t-2 2.5t-3 2.5t-3 1.5t-3.5 0.5h-51q-9 0 -21 -23l2 2l-88 -284h264zM184 -20q-50 0 -72 22t-22 72v540q0 125 82 336l178 463q26 82 123 82h551q95 0 121 -80l178 -465q82 -211 82 -336v-540q0 -50 -22.5 -72t-71.5 -22 h-310q-52 0 -76 23t-24 71v266h-321v-266q0 -49 -22.5 -71.5t-72.5 -22.5h-301zM389 1522q-45 -6 -68.5 17t-23.5 71v196q0 47 21 68t71 27l715 88q45 6 68.5 -17t23.5 -71v-197q0 -47 -21 -67.5t-71 -26.5z" />
<glyph unicode="&#xc2;" horiz-adv-x="1495" d="M784 1038l2 -2q-1 1 -2.5 4t-2 4.5t-2 4t-2 3.5t-2 2.5t-3 2.5t-3 1.5t-3.5 0.5h-51q-9 0 -21 -23l2 2l-88 -284h264zM184 -20q-50 0 -72 22t-22 72v540q0 125 82 336l178 463q26 82 123 82h551q95 0 121 -80l178 -465q82 -211 82 -336v-540q0 -50 -22.5 -72t-71.5 -22 h-310q-52 0 -76 23t-24 71v266h-321v-266q0 -49 -22.5 -71.5t-72.5 -22.5h-301zM408 1530q-68 -22 -89.5 -5.5t-21.5 89.5v166q0 61 17.5 81.5t80.5 45.5l260 94q37 16 88 20q48 0 72 -12l283 -102q64 -24 81 -44.5t17 -82.5v-166q0 -73 -21 -89t-92 5l-280 82 q-57 16 -115 0z" />
<glyph unicode="&#xc3;" horiz-adv-x="1495" d="M784 1038l2 -2q-1 1 -2.5 4t-2 4.5t-2 4t-2 3.5t-2 2.5t-3 2.5t-3 1.5t-3.5 0.5h-51q-9 0 -21 -23l2 2l-88 -284h264zM184 -20q-50 0 -72 22t-22 72v540q0 125 82 336l178 463q26 82 123 82h551q95 0 121 -80l178 -465q82 -211 82 -336v-540q0 -50 -22.5 -72t-71.5 -22 h-310q-52 0 -76 23t-24 71v266h-321v-266q0 -49 -22.5 -71.5t-72.5 -22.5h-301zM1106 1550q-96 -28 -152 -29t-178 19l-33 4l-57 8q-120 15 -162.5 12t-126.5 -30q-51 -14 -75.5 4t-24.5 70v207q0 43 19 63t67 39h2v2q96 28 151 29t177 -19l35 -4l45 -6q90 -14 134.5 -15.5 t70.5 4t96 27.5q51 14 75.5 -3.5t24.5 -69.5v-207q0 -43 -19.5 -63.5t-66.5 -39.5h-2v-2z" />
<glyph unicode="&#xc4;" horiz-adv-x="1495" d="M784 1038l2 -2q-1 1 -2.5 4t-2 4.5t-2 4t-2 3.5t-2 2.5t-3 2.5t-3 1.5t-3.5 0.5h-51q-9 0 -21 -23l2 2l-88 -284h264zM184 -20q-50 0 -72 22t-22 72v540q0 125 82 336l178 463q26 82 123 82h551q95 0 121 -80l178 -465q82 -211 82 -336v-540q0 -50 -22.5 -72t-71.5 -22 h-310q-52 0 -76 23t-24 71v266h-321v-266q0 -49 -22.5 -71.5t-72.5 -22.5h-301zM709 1624q0 -46 -21 -67t-67 -21h-283q-90 0 -90 88v248q0 88 90 88h283q46 0 67 -21t21 -67v-248zM1237 1624q0 -46 -21 -67t-67 -21h-283q-46 0 -67 21t-21 67v248q0 46 21 67t67 21h283 q46 0 67 -21t21 -67v-248z" />
<glyph unicode="&#xc5;" horiz-adv-x="1495" d="M750 1497q57 0 78.5 15t21.5 53v71q0 34 -21.5 48t-78.5 14q-55 0 -76 -14.5t-21 -47.5v-71q0 -38 20 -53t77 -15zM696 1038l-88 -284h264l-86 284q-7 21 -20 21h-51q-14 0 -21 -21h2zM184 -20q-50 0 -72 22t-22 72v540q0 125 82 336l168 436q-57 68 -57 193v119 q0 58 11.5 103t42.5 85.5t82.5 67t134 42t194.5 15.5q139 0 232.5 -22.5t143 -66.5t69 -97t19.5 -127v-119q0 -125 -57 -193l168 -436q82 -211 82 -336v-540q0 -50 -22.5 -72t-71.5 -22h-310q-52 0 -76 23t-24 71v266h-321v-266q0 -49 -22.5 -71.5t-72.5 -22.5h-301z" />
<glyph unicode="&#xc6;" horiz-adv-x="2058" d="M702 1047l-98 -293h277v313h-158q-6 0 -10 -3t-5.5 -5.5t-5.5 -11.5zM184 -20q-50 0 -72 22t-22 72v520q0 156 62 313l178 490q18 55 51 76.5t94 21.5h1409q50 0 72 -22.5t22 -71.5v-240q0 -49 -22 -71.5t-72 -22.5h-498v-117h332q50 0 72 -21.5t22 -72.5v-219 q0 -49 -22 -71.5t-72 -22.5h-332v-135h498q49 0 71.5 -22.5t22.5 -72.5v-239q0 -50 -22 -72t-72 -22h-909q-49 0 -71.5 22t-22.5 72v266h-303v-266q0 -49 -22.5 -71.5t-72.5 -22.5h-299z" />
<glyph unicode="&#xc7;" horiz-adv-x="1286" d="M909 -203q-12 -39 -38 -57.5t-74 -18.5h-258q-123 0 -80 109l57 154q-214 20 -316 127t-102 307v637q0 225 128 332.5t397 107.5h499q50 0 72.5 -22.5t22.5 -71.5v-248q0 -49 -22.5 -71.5t-72.5 -22.5h-411q-105 0 -105 -82v-488q0 -41 26 -59t79 -18h411q50 0 72.5 -23 t22.5 -72v-243q0 -49 -22.5 -71.5t-72.5 -22.5h-147z" />
<glyph unicode="&#xc8;" horiz-adv-x="1339" d="M215 -20q-49 0 -71.5 22t-22.5 72v1327q0 49 22.5 71.5t71.5 22.5h950q50 0 72.5 -22.5t22.5 -71.5v-240q0 -49 -22.5 -71.5t-72.5 -22.5h-544v-117h378q50 0 72.5 -22.5t22.5 -71.5v-219q0 -49 -22.5 -71.5t-72.5 -22.5h-378v-135h544q49 0 72 -23t23 -72v-239 q0 -49 -22.5 -71.5t-72.5 -22.5h-950zM1118 1610q0 -48 -23.5 -71t-68.5 -17l-715 88q-50 6 -71 26.5t-21 67.5v197q0 48 23.5 71t68.5 17l715 -88q50 -6 71 -27t21 -68v-196z" />
<glyph unicode="&#xc9;" horiz-adv-x="1339" d="M215 -20q-49 0 -71.5 22t-22.5 72v1327q0 49 22.5 71.5t71.5 22.5h950q50 0 72.5 -22.5t22.5 -71.5v-240q0 -49 -22.5 -71.5t-72.5 -22.5h-544v-117h378q50 0 72.5 -22.5t22.5 -71.5v-219q0 -49 -22.5 -71.5t-72.5 -22.5h-378v-135h544q49 0 72 -23t23 -72v-239 q0 -49 -22.5 -71.5t-72.5 -22.5h-950zM373 1522q-45 -6 -68.5 17t-23.5 71v196q0 47 21 68t71 27l714 88q45 6 69 -17t24 -71v-197q0 -46 -21.5 -67t-71.5 -27z" />
<glyph unicode="&#xca;" horiz-adv-x="1339" d="M215 -20q-49 0 -71.5 22t-22.5 72v1327q0 49 22.5 71.5t71.5 22.5h950q50 0 72.5 -22.5t22.5 -71.5v-240q0 -49 -22.5 -71.5t-72.5 -22.5h-544v-117h378q50 0 72.5 -22.5t22.5 -71.5v-219q0 -49 -22.5 -71.5t-72.5 -22.5h-378v-135h544q49 0 72 -23t23 -72v-239 q0 -49 -22.5 -71.5t-72.5 -22.5h-950zM350 1530q-68 -22 -89 -5.5t-21 89.5v166q0 61 17.5 81.5t80.5 45.5l260 94q37 16 88 20q48 0 72 -12l282 -102q65 -24 82 -44.5t17 -82.5v-166q0 -73 -21.5 -89t-91.5 5l-281 82q-57 16 -114 0z" />
<glyph unicode="&#xcb;" horiz-adv-x="1339" d="M215 -20q-49 0 -71.5 22t-22.5 72v1327q0 49 22.5 71.5t71.5 22.5h950q50 0 72.5 -22.5t22.5 -71.5v-240q0 -49 -22.5 -71.5t-72.5 -22.5h-544v-117h378q50 0 72.5 -22.5t22.5 -71.5v-219q0 -49 -22.5 -71.5t-72.5 -22.5h-378v-135h544q49 0 72 -23t23 -72v-239 q0 -49 -22.5 -71.5t-72.5 -22.5h-950zM672 1624q0 -46 -21 -67t-67 -21h-283q-90 0 -90 88v248q0 88 90 88h283q46 0 67 -21t21 -67v-248zM1200 1624q0 -46 -21 -67t-67 -21h-283q-46 0 -67 21t-21 67v248q0 46 21 67t67 21h283q46 0 67 -21t21 -67v-248z" />
<glyph unicode="&#xcc;" horiz-adv-x="1239" d="M182 -20q-50 0 -72 22t-22 72v243q0 50 22.5 72.5t71.5 22.5h183v647h-183q-50 0 -72 22.5t-22 71.5v248q0 49 22 71.5t72 22.5h873q49 0 71.5 -22.5t22.5 -71.5v-248q0 -49 -22.5 -71.5t-71.5 -22.5h-178v-647h178q49 0 71.5 -22.5t22.5 -72.5v-243q0 -50 -22.5 -72 t-71.5 -22h-873zM1067 1610q0 -48 -23.5 -71t-68.5 -17l-715 88q-50 6 -71 26.5t-21 67.5v197q0 48 23.5 71t68.5 17l715 -88q50 -6 71 -27t21 -68v-196z" />
<glyph unicode="&#xcd;" horiz-adv-x="1239" d="M182 -20q-50 0 -72 22t-22 72v243q0 50 22.5 72.5t71.5 22.5h183v647h-183q-50 0 -72 22.5t-22 71.5v248q0 49 22 71.5t72 22.5h873q49 0 71.5 -22.5t22.5 -71.5v-248q0 -49 -22.5 -71.5t-71.5 -22.5h-178v-647h178q49 0 71.5 -22.5t22.5 -72.5v-243q0 -50 -22.5 -72 t-71.5 -22h-873zM260 1522q-45 -6 -68.5 17t-23.5 71v196q0 47 21 68t71 27l715 88q45 6 68.5 -17t23.5 -71v-197q0 -47 -21 -67.5t-71 -26.5z" />
<glyph unicode="&#xce;" horiz-adv-x="1239" d="M182 -20q-50 0 -72 22t-22 72v243q0 50 22.5 72.5t71.5 22.5h183v647h-183q-50 0 -72 22.5t-22 71.5v248q0 49 22 71.5t72 22.5h873q49 0 71.5 -22.5t22.5 -71.5v-248q0 -49 -22.5 -71.5t-71.5 -22.5h-178v-647h178q49 0 71.5 -22.5t22.5 -72.5v-243q0 -50 -22.5 -72 t-71.5 -22h-873zM279 1530q-67 -22 -89 -5.5t-22 89.5v166q0 61 17.5 81.5t80.5 45.5l260 94q37 16 88 20q48 0 72 -12l283 -102q64 -24 81 -44.5t17 -82.5v-166q0 -73 -21.5 -89t-91.5 5l-280 82q-58 16 -115 0z" />
<glyph unicode="&#xcf;" horiz-adv-x="1239" d="M182 -20q-50 0 -72 22t-22 72v243q0 50 22.5 72.5t71.5 22.5h183v647h-183q-50 0 -72 22.5t-22 71.5v248q0 49 22 71.5t72 22.5h873q49 0 71.5 -22.5t22.5 -71.5v-248q0 -49 -22.5 -71.5t-71.5 -22.5h-178v-647h178q49 0 71.5 -22.5t22.5 -72.5v-243q0 -50 -22.5 -72 t-71.5 -22h-873zM580 1624q0 -46 -21 -67t-67 -21h-283q-90 0 -90 88v248q0 88 90 88h283q46 0 67 -21t21 -67v-248zM1108 1624q0 -46 -21 -67t-67 -21h-283q-46 0 -67 21t-21 67v248q0 46 21 67t67 21h283q46 0 67 -21t21 -67v-248z" />
<glyph unicode="&#xd0;" horiz-adv-x="1548" d="M236 -20q-50 0 -72.5 22.5t-22.5 71.5v448h-26q-50 0 -72.5 22t-22.5 72v220q0 49 22.5 71.5t72.5 22.5h26v471q0 49 22.5 71.5t72.5 22.5h690q148 0 252.5 -31.5t162.5 -91.5t83.5 -136.5t25.5 -178.5v-639q0 -102 -25.5 -178.5t-83.5 -136.5t-162.5 -91.5t-252.5 -31.5 h-690zM705 522h-64v-114h229q45 0 60.5 20.5t15.5 58.5v498q0 37 -15.5 57.5t-60.5 20.5h-229v-133h64q50 0 72 -21.5t22 -72.5v-220q0 -51 -22 -72.5t-72 -21.5z" />
<glyph unicode="&#xd1;" horiz-adv-x="1542" d="M522 -20h-307q-49 0 -71.5 22t-22.5 72v1327q0 49 22.5 71.5t71.5 22.5h213q44 0 75 -13.5t62 -47.5l361 -412v379q0 49 22 71.5t72 22.5h307q49 0 71.5 -22.5t22.5 -71.5v-1327q0 -50 -22.5 -72t-71.5 -22h-307q-50 0 -72 22t-22 72v243l-310 375v-618q0 -50 -22 -72 t-72 -22zM1128 1550q-96 -28 -151.5 -29t-177.5 19l-33 4l-57 8q-120 15 -162.5 12t-126.5 -30q-101 -27 -101 74v207q0 43 19.5 63t67.5 39h2v2q96 28 150.5 29t176.5 -19l35 -4l45 -6q90 -14 134.5 -15.5t70.5 4t96 27.5q52 14 76.5 -3.5t24.5 -69.5v-207 q0 -43 -19.5 -63.5t-67.5 -39.5h-2v-2z" />
<glyph unicode="&#xd2;" d="M1411 1085v-698q0 -82 -16.5 -145t-60 -120t-116 -93.5t-188.5 -58t-274 -21.5t-274.5 21.5t-189.5 58t-117 93.5t-60.5 120t-16.5 145v698q0 82 16.5 145.5t60.5 121t117 94.5t189.5 58.5t274.5 21.5t274.5 -21.5t188.5 -58.5t115.5 -94.5t60 -121t16.5 -145.5z M604 1012v-551q0 -39 34 -57.5t118 -18.5t117.5 18.5t33.5 57.5v551q0 37 -33.5 55t-117.5 18q-83 0 -117.5 -18t-34.5 -55zM1202 1610q0 -48 -23.5 -71t-68.5 -17l-715 88q-50 6 -71 26.5t-21 67.5v197q0 48 23.5 71t68.5 17l715 -88q50 -6 71 -27t21 -68v-196z" />
<glyph unicode="&#xd3;" d="M1411 1085v-698q0 -82 -16.5 -145t-60 -120t-116 -93.5t-188.5 -58t-274 -21.5t-274.5 21.5t-189.5 58t-117 93.5t-60.5 120t-16.5 145v698q0 82 16.5 145.5t60.5 121t117 94.5t189.5 58.5t274.5 21.5t274.5 -21.5t188.5 -58.5t115.5 -94.5t60 -121t16.5 -145.5z M604 1012v-551q0 -39 34 -57.5t118 -18.5t117.5 18.5t33.5 57.5v551q0 37 -33.5 55t-117.5 18q-83 0 -117.5 -18t-34.5 -55zM395 1522q-45 -6 -68.5 17t-23.5 71v196q0 47 21 68t71 27l715 88q45 6 68.5 -17t23.5 -71v-197q0 -47 -21 -67.5t-71 -26.5z" />
<glyph unicode="&#xd4;" d="M1411 1085v-698q0 -82 -16.5 -145t-60 -120t-116 -93.5t-188.5 -58t-274 -21.5t-274.5 21.5t-189.5 58t-117 93.5t-60.5 120t-16.5 145v698q0 82 16.5 145.5t60.5 121t117 94.5t189.5 58.5t274.5 21.5t274.5 -21.5t188.5 -58.5t115.5 -94.5t60 -121t16.5 -145.5z M604 1012v-551q0 -39 34 -57.5t118 -18.5t117.5 18.5t33.5 57.5v551q0 37 -33.5 55t-117.5 18q-83 0 -117.5 -18t-34.5 -55zM414 1530q-68 -22 -89.5 -5.5t-21.5 89.5v166q0 61 17.5 81.5t80.5 45.5l261 94q37 16 88 20q47 0 71 -12l283 -102q64 -24 81 -44.5t17 -82.5v-166 q0 -73 -21 -89t-91 5l-281 82q-57 16 -115 0z" />
<glyph unicode="&#xd5;" d="M1411 1085v-698q0 -82 -16.5 -145t-60 -120t-116 -93.5t-188.5 -58t-274 -21.5t-274.5 21.5t-189.5 58t-117 93.5t-60.5 120t-16.5 145v698q0 82 16.5 145.5t60.5 121t117 94.5t189.5 58.5t274.5 21.5t274.5 -21.5t188.5 -58.5t115.5 -94.5t60 -121t16.5 -145.5z M604 1012v-551q0 -39 34 -57.5t118 -18.5t117.5 18.5t33.5 57.5v551q0 37 -33.5 55t-117.5 18q-83 0 -117.5 -18t-34.5 -55zM1112 1550q-96 -28 -152 -29t-178 19l-32 4l-58 8q-120 15 -162.5 12t-126.5 -30q-51 -14 -75.5 4t-24.5 70v207q0 43 19 63t67 39h2v2 q96 28 151 29t177 -19l35 -4l45 -6q90 -14 134.5 -15.5t70.5 4t96 27.5q51 14 75.5 -3.5t24.5 -69.5v-207q0 -43 -19.5 -63.5t-66.5 -39.5h-2v-2z" />
<glyph unicode="&#xd6;" d="M1411 1085v-698q0 -82 -16.5 -145t-60 -120t-116 -93.5t-188.5 -58t-274 -21.5t-274.5 21.5t-189.5 58t-117 93.5t-60.5 120t-16.5 145v698q0 82 16.5 145.5t60.5 121t117 94.5t189.5 58.5t274.5 21.5t274.5 -21.5t188.5 -58.5t115.5 -94.5t60 -121t16.5 -145.5z M604 1012v-551q0 -39 34 -57.5t118 -18.5t117.5 18.5t33.5 57.5v551q0 37 -33.5 55t-117.5 18q-83 0 -117.5 -18t-34.5 -55zM715 1624q0 -46 -21 -67t-67 -21h-283q-90 0 -90 88v248q0 88 90 88h283q46 0 67 -21t21 -67v-248zM1243 1624q0 -46 -21 -67t-67 -21h-283 q-46 0 -67 21t-21 67v248q0 46 21 67t67 21h283q46 0 67 -21t21 -67v-248z" />
<glyph unicode="&#xd7;" horiz-adv-x="1503" d="M1155 170q-37 -36 -68.5 -36t-64.5 36l-270 270l-271 -270q-33 -36 -64.5 -36t-68.5 36l-164 164q-69 69 0 133l271 270l-271 271q-36 33 -36 64.5t36 68.5l164 164q69 69 133 0l271 -271l270 271q33 36 64.5 36t68.5 -36l164 -164q36 -37 36 -68.5t-36 -64.5l-270 -271 l270 -270q36 -33 36 -64.5t-36 -68.5z" />
<glyph unicode="&#xd8;" d="M750 1106q-105 0 -146 -23.5t-41 -70.5v-346zM758 365q108 0 149 23.5t41 72.5v354zM274 -164q-56 0 -76 29.5t5 75.5v-2l49 114q-84 55 -119 138t-35 196v698q0 82 16.5 145.5t60.5 121t117 94.5t189.5 58.5t274.5 21.5q44 0 118 -4l13 30v2q27 46 49 65t63 19h236 q56 0 76.5 -29t-4.5 -75v2l-50 -115q84 -55 119 -139t35 -197v-698q0 -82 -16.5 -145t-60 -120t-116 -93.5t-188.5 -58t-274 -21.5q-43 0 -121 4l-12 -31v-2q-27 -45 -49.5 -64.5t-63.5 -19.5h-236z" />
<glyph unicode="&#xd9;" horiz-adv-x="1527" d="M1417 1401v-1014q0 -82 -16.5 -145t-60.5 -120t-116 -93.5t-188 -58t-272 -21.5t-272 21.5t-188 58t-116 93.5t-60.5 120t-16.5 145v1014q0 49 22.5 71.5t71.5 22.5h321q50 0 72.5 -22.5t22.5 -71.5v-934q0 -39 33 -57.5t114 -18.5q83 0 116.5 18.5t33.5 57.5v934 q0 50 21.5 72t72.5 22h311q49 0 71.5 -22.5t22.5 -71.5zM1192 1610q0 -48 -23.5 -71t-68.5 -17l-715 88q-50 6 -71 26.5t-21 67.5v197q0 48 23.5 71t68.5 17l715 -88q50 -6 71 -27t21 -68v-196z" />
<glyph unicode="&#xda;" horiz-adv-x="1527" d="M1417 1401v-1014q0 -82 -16.5 -145t-60.5 -120t-116 -93.5t-188 -58t-272 -21.5t-272 21.5t-188 58t-116 93.5t-60.5 120t-16.5 145v1014q0 49 22.5 71.5t71.5 22.5h321q50 0 72.5 -22.5t22.5 -71.5v-934q0 -39 33 -57.5t114 -18.5q83 0 116.5 18.5t33.5 57.5v934 q0 50 21.5 72t72.5 22h311q49 0 71.5 -22.5t22.5 -71.5zM426 1522q-45 -6 -68.5 17t-23.5 71v196q0 47 21 68t71 27l715 88q45 6 68.5 -17t23.5 -71v-197q0 -47 -21 -67.5t-71 -26.5z" />
<glyph unicode="&#xdb;" horiz-adv-x="1527" d="M1417 1401v-1014q0 -82 -16.5 -145t-60.5 -120t-116 -93.5t-188 -58t-272 -21.5t-272 21.5t-188 58t-116 93.5t-60.5 120t-16.5 145v1014q0 49 22.5 71.5t71.5 22.5h321q50 0 72.5 -22.5t22.5 -71.5v-934q0 -39 33 -57.5t114 -18.5q83 0 116.5 18.5t33.5 57.5v934 q0 50 21.5 72t72.5 22h311q49 0 71.5 -22.5t22.5 -71.5zM424 1530q-68 -22 -89.5 -5.5t-21.5 89.5v166q0 61 18 81.5t81 45.5l260 94q37 16 88 20q47 0 71 -12l283 -102q64 -24 81 -44.5t17 -82.5v-166q0 -73 -21 -89t-91 5l-281 82q-57 16 -114 0z" />
<glyph unicode="&#xdc;" horiz-adv-x="1527" d="M1417 1401v-1014q0 -82 -16.5 -145t-60.5 -120t-116 -93.5t-188 -58t-272 -21.5t-272 21.5t-188 58t-116 93.5t-60.5 120t-16.5 145v1014q0 49 22.5 71.5t71.5 22.5h321q50 0 72.5 -22.5t22.5 -71.5v-934q0 -39 33 -57.5t114 -18.5q83 0 116.5 18.5t33.5 57.5v934 q0 50 21.5 72t72.5 22h311q49 0 71.5 -22.5t22.5 -71.5zM725 1624q0 -46 -21 -67t-67 -21h-283q-90 0 -90 88v248q0 88 90 88h283q46 0 67 -21t21 -67v-248zM1253 1624q0 -46 -21 -67t-67 -21h-282q-46 0 -67 21t-21 67v248q0 46 21 67t67 21h282q46 0 67 -21t21 -67v-248z " />
<glyph unicode="&#xdd;" horiz-adv-x="1443" d="M557 -20q-51 0 -72.5 22t-21.5 72v256l-309 413q-50 67 -66 117t-16 148v393q0 49 22 71.5t72 22.5h315q49 0 71.5 -22.5t22.5 -71.5v-336q0 -47 15 -76l96 -147q12 -25 31 -25h20q17 0 33 25l94 147q15 29 15 76v336q0 49 22.5 71.5t71.5 22.5h305q50 0 72 -22.5 t22 -71.5v-393q0 -98 -16 -148t-66 -117l-307 -415v-254q0 -50 -22.5 -72t-71.5 -22h-332zM383 1522q-45 -6 -68.5 17t-23.5 71v196q0 47 21 68t71 27l715 88q45 6 68.5 -17t23.5 -71v-197q0 -47 -21 -67.5t-71 -26.5z" />
<glyph unicode="&#xde;" horiz-adv-x="1417" d="M215 -20q-49 0 -71.5 22t-22.5 72v1327q0 49 22.5 71.5t71.5 22.5h317q50 0 72.5 -22.5t22.5 -71.5v-111h215q115 0 202.5 -20t144 -56t92.5 -89.5t50.5 -115t14.5 -139.5v-262q0 -78 -14.5 -139.5t-50.5 -115t-92.5 -89.5t-144 -56t-202.5 -20h-215v-114 q0 -49 -22.5 -71.5t-72.5 -22.5h-317zM786 866h-163v-268h163q76 0 76 80v108q0 80 -76 80z" />
<glyph unicode="&#xdf;" horiz-adv-x="1554" d="M532 -20h-317q-49 0 -71.5 22t-22.5 72v1327q0 94 94 94h760q192 0 278.5 -117.5t36.5 -300.5l-41 -147q114 -28 185 -114t71 -224v-252q0 -165 -113 -262.5t-307 -97.5h-282q-49 0 -71.5 22t-22.5 72v239q0 50 22.5 72.5t71.5 22.5h160q34 0 34 26v101q0 26 -34 26h-148 q-125 0 -96 139l67 334q4 12 0 22.5t-18 10.5h-141v-993q0 -49 -22.5 -71.5t-72.5 -22.5z" />
<glyph unicode="&#xe0;" horiz-adv-x="1495" d="M784 1038l2 -2q-1 1 -2.5 4t-2 4.5t-2 4t-2 3.5t-2 2.5t-3 2.5t-3 1.5t-3.5 0.5h-51q-9 0 -21 -23l2 2l-88 -284h264zM184 -20q-50 0 -72 22t-22 72v540q0 125 82 336l178 463q26 82 123 82h551q95 0 121 -80l178 -465q82 -211 82 -336v-540q0 -50 -22.5 -72t-71.5 -22 h-310q-52 0 -76 23t-24 71v266h-321v-266q0 -49 -22.5 -71.5t-72.5 -22.5h-301zM1196 1610q0 -48 -23.5 -71t-68.5 -17l-715 88q-50 6 -71 26.5t-21 67.5v197q0 48 23.5 71t68.5 17l715 -88q50 -6 71 -27t21 -68v-196z" />
<glyph unicode="&#xe1;" horiz-adv-x="1495" d="M784 1038l2 -2q-1 1 -2.5 4t-2 4.5t-2 4t-2 3.5t-2 2.5t-3 2.5t-3 1.5t-3.5 0.5h-51q-9 0 -21 -23l2 2l-88 -284h264zM184 -20q-50 0 -72 22t-22 72v540q0 125 82 336l178 463q26 82 123 82h551q95 0 121 -80l178 -465q82 -211 82 -336v-540q0 -50 -22.5 -72t-71.5 -22 h-310q-52 0 -76 23t-24 71v266h-321v-266q0 -49 -22.5 -71.5t-72.5 -22.5h-301zM389 1522q-45 -6 -68.5 17t-23.5 71v196q0 47 21 68t71 27l715 88q45 6 68.5 -17t23.5 -71v-197q0 -47 -21 -67.5t-71 -26.5z" />
<glyph unicode="&#xe2;" horiz-adv-x="1495" d="M784 1038l2 -2q-1 1 -2.5 4t-2 4.5t-2 4t-2 3.5t-2 2.5t-3 2.5t-3 1.5t-3.5 0.5h-51q-9 0 -21 -23l2 2l-88 -284h264zM184 -20q-50 0 -72 22t-22 72v540q0 125 82 336l178 463q26 82 123 82h551q95 0 121 -80l178 -465q82 -211 82 -336v-540q0 -50 -22.5 -72t-71.5 -22 h-310q-52 0 -76 23t-24 71v266h-321v-266q0 -49 -22.5 -71.5t-72.5 -22.5h-301zM408 1530q-68 -22 -89.5 -5.5t-21.5 89.5v166q0 61 17.5 81.5t80.5 45.5l260 94q37 16 88 20q48 0 72 -12l283 -102q64 -24 81 -44.5t17 -82.5v-166q0 -73 -21 -89t-92 5l-280 82 q-57 16 -115 0z" />
<glyph unicode="&#xe3;" horiz-adv-x="1495" d="M784 1038l2 -2q-1 1 -2.5 4t-2 4.5t-2 4t-2 3.5t-2 2.5t-3 2.5t-3 1.5t-3.5 0.5h-51q-9 0 -21 -23l2 2l-88 -284h264zM184 -20q-50 0 -72 22t-22 72v540q0 125 82 336l178 463q26 82 123 82h551q95 0 121 -80l178 -465q82 -211 82 -336v-540q0 -50 -22.5 -72t-71.5 -22 h-310q-52 0 -76 23t-24 71v266h-321v-266q0 -49 -22.5 -71.5t-72.5 -22.5h-301zM1106 1550q-96 -28 -152 -29t-178 19l-33 4l-57 8q-120 15 -162.5 12t-126.5 -30q-51 -14 -75.5 4t-24.5 70v207q0 43 19 63t67 39h2v2q96 28 151 29t177 -19l35 -4l45 -6q90 -14 134.5 -15.5 t70.5 4t96 27.5q51 14 75.5 -3.5t24.5 -69.5v-207q0 -43 -19.5 -63.5t-66.5 -39.5h-2v-2z" />
<glyph unicode="&#xe4;" horiz-adv-x="1495" d="M784 1038l2 -2q-1 1 -2.5 4t-2 4.5t-2 4t-2 3.5t-2 2.5t-3 2.5t-3 1.5t-3.5 0.5h-51q-9 0 -21 -23l2 2l-88 -284h264zM184 -20q-50 0 -72 22t-22 72v540q0 125 82 336l178 463q26 82 123 82h551q95 0 121 -80l178 -465q82 -211 82 -336v-540q0 -50 -22.5 -72t-71.5 -22 h-310q-52 0 -76 23t-24 71v266h-321v-266q0 -49 -22.5 -71.5t-72.5 -22.5h-301zM709 1624q0 -46 -21 -67t-67 -21h-283q-90 0 -90 88v248q0 88 90 88h283q46 0 67 -21t21 -67v-248zM1237 1624q0 -46 -21 -67t-67 -21h-283q-46 0 -67 21t-21 67v248q0 46 21 67t67 21h283 q46 0 67 -21t21 -67v-248z" />
<glyph unicode="&#xe5;" horiz-adv-x="1495" d="M750 1497q57 0 78.5 15t21.5 53v71q0 34 -21.5 48t-78.5 14q-55 0 -76 -14.5t-21 -47.5v-71q0 -38 20 -53t77 -15zM696 1038l-88 -284h264l-86 284q-7 21 -20 21h-51q-14 0 -21 -21h2zM184 -20q-50 0 -72 22t-22 72v540q0 125 82 336l168 436q-57 68 -57 193v119 q0 58 11.5 103t42.5 85.5t82.5 67t134 42t194.5 15.5q139 0 232.5 -22.5t143 -66.5t69 -97t19.5 -127v-119q0 -125 -57 -193l168 -436q82 -211 82 -336v-540q0 -50 -22.5 -72t-71.5 -22h-310q-52 0 -76 23t-24 71v266h-321v-266q0 -49 -22.5 -71.5t-72.5 -22.5h-301z" />
<glyph unicode="&#xe6;" horiz-adv-x="2058" d="M702 1047l-98 -293h277v313h-158q-6 0 -10 -3t-5.5 -5.5t-5.5 -11.5zM184 -20q-50 0 -72 22t-22 72v520q0 156 62 313l178 490q18 55 51 76.5t94 21.5h1409q50 0 72 -22.5t22 -71.5v-240q0 -49 -22 -71.5t-72 -22.5h-498v-117h332q50 0 72 -21.5t22 -72.5v-219 q0 -49 -22 -71.5t-72 -22.5h-332v-135h498q49 0 71.5 -22.5t22.5 -72.5v-239q0 -50 -22 -72t-72 -22h-909q-49 0 -71.5 22t-22.5 72v266h-303v-266q0 -49 -22.5 -71.5t-72.5 -22.5h-299z" />
<glyph unicode="&#xe7;" horiz-adv-x="1286" d="M909 -203q-12 -39 -38 -57.5t-74 -18.5h-258q-123 0 -80 109l57 154q-214 20 -316 127t-102 307v637q0 225 128 332.5t397 107.5h499q50 0 72.5 -22.5t22.5 -71.5v-248q0 -49 -22.5 -71.5t-72.5 -22.5h-411q-105 0 -105 -82v-488q0 -41 26 -59t79 -18h411q50 0 72.5 -23 t22.5 -72v-243q0 -49 -22.5 -71.5t-72.5 -22.5h-147z" />
<glyph unicode="&#xe8;" horiz-adv-x="1339" d="M215 -20q-49 0 -71.5 22t-22.5 72v1327q0 49 22.5 71.5t71.5 22.5h950q50 0 72.5 -22.5t22.5 -71.5v-240q0 -49 -22.5 -71.5t-72.5 -22.5h-544v-117h378q50 0 72.5 -22.5t22.5 -71.5v-219q0 -49 -22.5 -71.5t-72.5 -22.5h-378v-135h544q49 0 72 -23t23 -72v-239 q0 -49 -22.5 -71.5t-72.5 -22.5h-950zM1118 1610q0 -48 -23.5 -71t-68.5 -17l-715 88q-50 6 -71 26.5t-21 67.5v197q0 48 23.5 71t68.5 17l715 -88q50 -6 71 -27t21 -68v-196z" />
<glyph unicode="&#xe9;" horiz-adv-x="1339" d="M215 -20q-49 0 -71.5 22t-22.5 72v1327q0 49 22.5 71.5t71.5 22.5h950q50 0 72.5 -22.5t22.5 -71.5v-240q0 -49 -22.5 -71.5t-72.5 -22.5h-544v-117h378q50 0 72.5 -22.5t22.5 -71.5v-219q0 -49 -22.5 -71.5t-72.5 -22.5h-378v-135h544q49 0 72 -23t23 -72v-239 q0 -49 -22.5 -71.5t-72.5 -22.5h-950zM373 1522q-45 -6 -68.5 17t-23.5 71v196q0 47 21 68t71 27l714 88q45 6 69 -17t24 -71v-197q0 -46 -21.5 -67t-71.5 -27z" />
<glyph unicode="&#xea;" horiz-adv-x="1339" d="M215 -20q-49 0 -71.5 22t-22.5 72v1327q0 49 22.5 71.5t71.5 22.5h950q50 0 72.5 -22.5t22.5 -71.5v-240q0 -49 -22.5 -71.5t-72.5 -22.5h-544v-117h378q50 0 72.5 -22.5t22.5 -71.5v-219q0 -49 -22.5 -71.5t-72.5 -22.5h-378v-135h544q49 0 72 -23t23 -72v-239 q0 -49 -22.5 -71.5t-72.5 -22.5h-950zM350 1530q-68 -22 -89 -5.5t-21 89.5v166q0 61 17.5 81.5t80.5 45.5l260 94q37 16 88 20q48 0 72 -12l282 -102q65 -24 82 -44.5t17 -82.5v-166q0 -73 -21.5 -89t-91.5 5l-281 82q-57 16 -114 0z" />
<glyph unicode="&#xeb;" horiz-adv-x="1339" d="M215 -20q-49 0 -71.5 22t-22.5 72v1327q0 49 22.5 71.5t71.5 22.5h950q50 0 72.5 -22.5t22.5 -71.5v-240q0 -49 -22.5 -71.5t-72.5 -22.5h-544v-117h378q50 0 72.5 -22.5t22.5 -71.5v-219q0 -49 -22.5 -71.5t-72.5 -22.5h-378v-135h544q49 0 72 -23t23 -72v-239 q0 -49 -22.5 -71.5t-72.5 -22.5h-950zM672 1624q0 -46 -21 -67t-67 -21h-283q-90 0 -90 88v248q0 88 90 88h283q46 0 67 -21t21 -67v-248zM1200 1624q0 -46 -21 -67t-67 -21h-283q-46 0 -67 21t-21 67v248q0 46 21 67t67 21h283q46 0 67 -21t21 -67v-248z" />
<glyph unicode="&#xec;" horiz-adv-x="1239" d="M182 -20q-50 0 -72 22t-22 72v243q0 50 22.5 72.5t71.5 22.5h183v647h-183q-50 0 -72 22.5t-22 71.5v248q0 49 22 71.5t72 22.5h873q49 0 71.5 -22.5t22.5 -71.5v-248q0 -49 -22.5 -71.5t-71.5 -22.5h-178v-647h178q49 0 71.5 -22.5t22.5 -72.5v-243q0 -50 -22.5 -72 t-71.5 -22h-873zM1067 1610q0 -48 -23.5 -71t-68.5 -17l-715 88q-50 6 -71 26.5t-21 67.5v197q0 48 23.5 71t68.5 17l715 -88q50 -6 71 -27t21 -68v-196z" />
<glyph unicode="&#xed;" horiz-adv-x="1239" d="M182 -20q-50 0 -72 22t-22 72v243q0 50 22.5 72.5t71.5 22.5h183v647h-183q-50 0 -72 22.5t-22 71.5v248q0 49 22 71.5t72 22.5h873q49 0 71.5 -22.5t22.5 -71.5v-248q0 -49 -22.5 -71.5t-71.5 -22.5h-178v-647h178q49 0 71.5 -22.5t22.5 -72.5v-243q0 -50 -22.5 -72 t-71.5 -22h-873zM260 1522q-45 -6 -68.5 17t-23.5 71v196q0 47 21 68t71 27l715 88q45 6 68.5 -17t23.5 -71v-197q0 -47 -21 -67.5t-71 -26.5z" />
<glyph unicode="&#xee;" horiz-adv-x="1239" d="M182 -20q-50 0 -72 22t-22 72v243q0 50 22.5 72.5t71.5 22.5h183v647h-183q-50 0 -72 22.5t-22 71.5v248q0 49 22 71.5t72 22.5h873q49 0 71.5 -22.5t22.5 -71.5v-248q0 -49 -22.5 -71.5t-71.5 -22.5h-178v-647h178q49 0 71.5 -22.5t22.5 -72.5v-243q0 -50 -22.5 -72 t-71.5 -22h-873zM279 1530q-67 -22 -89 -5.5t-22 89.5v166q0 61 17.5 81.5t80.5 45.5l260 94q37 16 88 20q48 0 72 -12l283 -102q64 -24 81 -44.5t17 -82.5v-166q0 -73 -21.5 -89t-91.5 5l-280 82q-58 16 -115 0z" />
<glyph unicode="&#xef;" horiz-adv-x="1239" d="M182 -20q-50 0 -72 22t-22 72v243q0 50 22.5 72.5t71.5 22.5h183v647h-183q-50 0 -72 22.5t-22 71.5v248q0 49 22 71.5t72 22.5h873q49 0 71.5 -22.5t22.5 -71.5v-248q0 -49 -22.5 -71.5t-71.5 -22.5h-178v-647h178q49 0 71.5 -22.5t22.5 -72.5v-243q0 -50 -22.5 -72 t-71.5 -22h-873zM580 1624q0 -46 -21 -67t-67 -21h-283q-90 0 -90 88v248q0 88 90 88h283q46 0 67 -21t21 -67v-248zM1108 1624q0 -46 -21 -67t-67 -21h-283q-46 0 -67 21t-21 67v248q0 46 21 67t67 21h283q46 0 67 -21t21 -67v-248z" />
<glyph unicode="&#xf0;" horiz-adv-x="1548" d="M236 -20q-50 0 -72.5 22.5t-22.5 71.5v448h-26q-50 0 -72.5 22t-22.5 72v220q0 49 22.5 71.5t72.5 22.5h26v471q0 49 22.5 71.5t72.5 22.5h690q148 0 252.5 -31.5t162.5 -91.5t83.5 -136.5t25.5 -178.5v-639q0 -102 -25.5 -178.5t-83.5 -136.5t-162.5 -91.5t-252.5 -31.5 h-690zM705 522h-64v-114h229q45 0 60.5 20.5t15.5 58.5v498q0 37 -15.5 57.5t-60.5 20.5h-229v-133h64q50 0 72 -21.5t22 -72.5v-220q0 -51 -22 -72.5t-72 -21.5z" />
<glyph unicode="&#xf1;" horiz-adv-x="1542" d="M522 -20h-307q-49 0 -71.5 22t-22.5 72v1327q0 49 22.5 71.5t71.5 22.5h213q44 0 75 -13.5t62 -47.5l361 -412v379q0 49 22 71.5t72 22.5h307q49 0 71.5 -22.5t22.5 -71.5v-1327q0 -50 -22.5 -72t-71.5 -22h-307q-50 0 -72 22t-22 72v243l-310 375v-618q0 -50 -22 -72 t-72 -22zM1128 1550q-96 -28 -151.5 -29t-177.5 19l-33 4l-57 8q-120 15 -162.5 12t-126.5 -30q-101 -27 -101 74v207q0 43 19.5 63t67.5 39h2v2q96 28 150.5 29t176.5 -19l35 -4l45 -6q90 -14 134.5 -15.5t70.5 4t96 27.5q52 14 76.5 -3.5t24.5 -69.5v-207 q0 -43 -19.5 -63.5t-67.5 -39.5h-2v-2z" />
<glyph unicode="&#xf2;" d="M1411 1085v-698q0 -82 -16.5 -145t-60 -120t-116 -93.5t-188.5 -58t-274 -21.5t-274.5 21.5t-189.5 58t-117 93.5t-60.5 120t-16.5 145v698q0 82 16.5 145.5t60.5 121t117 94.5t189.5 58.5t274.5 21.5t274.5 -21.5t188.5 -58.5t115.5 -94.5t60 -121t16.5 -145.5z M604 1012v-551q0 -39 34 -57.5t118 -18.5t117.5 18.5t33.5 57.5v551q0 37 -33.5 55t-117.5 18q-83 0 -117.5 -18t-34.5 -55zM1202 1610q0 -48 -23.5 -71t-68.5 -17l-715 88q-50 6 -71 26.5t-21 67.5v197q0 48 23.5 71t68.5 17l715 -88q50 -6 71 -27t21 -68v-196z" />
<glyph unicode="&#xf3;" d="M1411 1085v-698q0 -82 -16.5 -145t-60 -120t-116 -93.5t-188.5 -58t-274 -21.5t-274.5 21.5t-189.5 58t-117 93.5t-60.5 120t-16.5 145v698q0 82 16.5 145.5t60.5 121t117 94.5t189.5 58.5t274.5 21.5t274.5 -21.5t188.5 -58.5t115.5 -94.5t60 -121t16.5 -145.5z M604 1012v-551q0 -39 34 -57.5t118 -18.5t117.5 18.5t33.5 57.5v551q0 37 -33.5 55t-117.5 18q-83 0 -117.5 -18t-34.5 -55zM395 1522q-45 -6 -68.5 17t-23.5 71v196q0 47 21 68t71 27l715 88q45 6 68.5 -17t23.5 -71v-197q0 -47 -21 -67.5t-71 -26.5z" />
<glyph unicode="&#xf4;" d="M1411 1085v-698q0 -82 -16.5 -145t-60 -120t-116 -93.5t-188.5 -58t-274 -21.5t-274.5 21.5t-189.5 58t-117 93.5t-60.5 120t-16.5 145v698q0 82 16.5 145.5t60.5 121t117 94.5t189.5 58.5t274.5 21.5t274.5 -21.5t188.5 -58.5t115.5 -94.5t60 -121t16.5 -145.5z M604 1012v-551q0 -39 34 -57.5t118 -18.5t117.5 18.5t33.5 57.5v551q0 37 -33.5 55t-117.5 18q-83 0 -117.5 -18t-34.5 -55zM414 1530q-68 -22 -89.5 -5.5t-21.5 89.5v166q0 61 17.5 81.5t80.5 45.5l261 94q37 16 88 20q47 0 71 -12l283 -102q64 -24 81 -44.5t17 -82.5v-166 q0 -73 -21 -89t-91 5l-281 82q-57 16 -115 0z" />
<glyph unicode="&#xf5;" d="M1411 1085v-698q0 -82 -16.5 -145t-60 -120t-116 -93.5t-188.5 -58t-274 -21.5t-274.5 21.5t-189.5 58t-117 93.5t-60.5 120t-16.5 145v698q0 82 16.5 145.5t60.5 121t117 94.5t189.5 58.5t274.5 21.5t274.5 -21.5t188.5 -58.5t115.5 -94.5t60 -121t16.5 -145.5z M604 1012v-551q0 -39 34 -57.5t118 -18.5t117.5 18.5t33.5 57.5v551q0 37 -33.5 55t-117.5 18q-83 0 -117.5 -18t-34.5 -55zM1112 1550q-96 -28 -152 -29t-178 19l-32 4l-58 8q-120 15 -162.5 12t-126.5 -30q-51 -14 -75.5 4t-24.5 70v207q0 43 19 63t67 39h2v2 q96 28 151 29t177 -19l35 -4l45 -6q90 -14 134.5 -15.5t70.5 4t96 27.5q51 14 75.5 -3.5t24.5 -69.5v-207q0 -43 -19.5 -63.5t-66.5 -39.5h-2v-2z" />
<glyph unicode="&#xf6;" d="M1411 1085v-698q0 -82 -16.5 -145t-60 -120t-116 -93.5t-188.5 -58t-274 -21.5t-274.5 21.5t-189.5 58t-117 93.5t-60.5 120t-16.5 145v698q0 82 16.5 145.5t60.5 121t117 94.5t189.5 58.5t274.5 21.5t274.5 -21.5t188.5 -58.5t115.5 -94.5t60 -121t16.5 -145.5z M604 1012v-551q0 -39 34 -57.5t118 -18.5t117.5 18.5t33.5 57.5v551q0 37 -33.5 55t-117.5 18q-83 0 -117.5 -18t-34.5 -55zM715 1624q0 -46 -21 -67t-67 -21h-283q-90 0 -90 88v248q0 88 90 88h283q46 0 67 -21t21 -67v-248zM1243 1624q0 -46 -21 -67t-67 -21h-283 q-46 0 -67 21t-21 67v248q0 46 21 67t67 21h283q46 0 67 -21t21 -67v-248z" />
<glyph unicode="&#xf7;" horiz-adv-x="1503" d="M1012 1063q0 -49 -22 -71.5t-72 -22.5h-332q-50 0 -72 22.5t-22 71.5v252q0 51 22 72.5t72 21.5h332q50 0 72 -21.5t22 -72.5v-252zM1286 547h-1069q-50 0 -72 21.5t-22 72.5v193q0 50 22.5 72t71.5 22h1069q50 0 72 -21.5t22 -72.5v-193q0 -51 -22 -72.5t-72 -21.5z M1012 160q0 -50 -22 -72t-72 -22h-332q-50 0 -72 22t-22 72v252q0 51 22 72.5t72 21.5h332q50 0 72 -21.5t22 -72.5v-252z" />
<glyph unicode="&#xf8;" d="M750 1106q-105 0 -146 -23.5t-41 -70.5v-346zM758 365q108 0 149 23.5t41 72.5v354zM274 -164q-56 0 -76 29.5t5 75.5v-2l49 114q-84 55 -119 138t-35 196v698q0 82 16.5 145.5t60.5 121t117 94.5t189.5 58.5t274.5 21.5q44 0 118 -4l13 30v2q27 46 49 65t63 19h236 q56 0 76.5 -29t-4.5 -75v2l-50 -115q84 -55 119 -139t35 -197v-698q0 -82 -16.5 -145t-60 -120t-116 -93.5t-188.5 -58t-274 -21.5q-43 0 -121 4l-12 -31v-2q-27 -45 -49.5 -64.5t-63.5 -19.5h-236z" />
<glyph unicode="&#xf9;" horiz-adv-x="1527" d="M1417 1401v-1014q0 -82 -16.5 -145t-60.5 -120t-116 -93.5t-188 -58t-272 -21.5t-272 21.5t-188 58t-116 93.5t-60.5 120t-16.5 145v1014q0 49 22.5 71.5t71.5 22.5h321q50 0 72.5 -22.5t22.5 -71.5v-934q0 -39 33 -57.5t114 -18.5q83 0 116.5 18.5t33.5 57.5v934 q0 50 21.5 72t72.5 22h311q49 0 71.5 -22.5t22.5 -71.5zM1192 1610q0 -48 -23.5 -71t-68.5 -17l-715 88q-50 6 -71 26.5t-21 67.5v197q0 48 23.5 71t68.5 17l715 -88q50 -6 71 -27t21 -68v-196z" />
<glyph unicode="&#xfa;" horiz-adv-x="1527" d="M1417 1401v-1014q0 -82 -16.5 -145t-60.5 -120t-116 -93.5t-188 -58t-272 -21.5t-272 21.5t-188 58t-116 93.5t-60.5 120t-16.5 145v1014q0 49 22.5 71.5t71.5 22.5h321q50 0 72.5 -22.5t22.5 -71.5v-934q0 -39 33 -57.5t114 -18.5q83 0 116.5 18.5t33.5 57.5v934 q0 50 21.5 72t72.5 22h311q49 0 71.5 -22.5t22.5 -71.5zM426 1522q-45 -6 -68.5 17t-23.5 71v196q0 47 21 68t71 27l715 88q45 6 68.5 -17t23.5 -71v-197q0 -47 -21 -67.5t-71 -26.5z" />
<glyph unicode="&#xfb;" horiz-adv-x="1527" d="M1417 1401v-1014q0 -82 -16.5 -145t-60.5 -120t-116 -93.5t-188 -58t-272 -21.5t-272 21.5t-188 58t-116 93.5t-60.5 120t-16.5 145v1014q0 49 22.5 71.5t71.5 22.5h321q50 0 72.5 -22.5t22.5 -71.5v-934q0 -39 33 -57.5t114 -18.5q83 0 116.5 18.5t33.5 57.5v934 q0 50 21.5 72t72.5 22h311q49 0 71.5 -22.5t22.5 -71.5zM424 1530q-68 -22 -89.5 -5.5t-21.5 89.5v166q0 61 18 81.5t81 45.5l260 94q37 16 88 20q47 0 71 -12l283 -102q64 -24 81 -44.5t17 -82.5v-166q0 -73 -21 -89t-91 5l-281 82q-57 16 -114 0z" />
<glyph unicode="&#xfc;" horiz-adv-x="1527" d="M1417 1401v-1014q0 -82 -16.5 -145t-60.5 -120t-116 -93.5t-188 -58t-272 -21.5t-272 21.5t-188 58t-116 93.5t-60.5 120t-16.5 145v1014q0 49 22.5 71.5t71.5 22.5h321q50 0 72.5 -22.5t22.5 -71.5v-934q0 -39 33 -57.5t114 -18.5q83 0 116.5 18.5t33.5 57.5v934 q0 50 21.5 72t72.5 22h311q49 0 71.5 -22.5t22.5 -71.5zM725 1624q0 -46 -21 -67t-67 -21h-283q-90 0 -90 88v248q0 88 90 88h283q46 0 67 -21t21 -67v-248zM1253 1624q0 -46 -21 -67t-67 -21h-282q-46 0 -67 21t-21 67v248q0 46 21 67t67 21h282q46 0 67 -21t21 -67v-248z " />
<glyph unicode="&#xfd;" horiz-adv-x="1443" d="M557 -20q-51 0 -72.5 22t-21.5 72v256l-309 413q-50 67 -66 117t-16 148v393q0 49 22 71.5t72 22.5h315q49 0 71.5 -22.5t22.5 -71.5v-336q0 -47 15 -76l96 -147q12 -25 31 -25h20q17 0 33 25l94 147q15 29 15 76v336q0 49 22.5 71.5t71.5 22.5h305q50 0 72 -22.5 t22 -71.5v-393q0 -98 -16 -148t-66 -117l-307 -415v-254q0 -50 -22.5 -72t-71.5 -22h-332zM383 1522q-45 -6 -68.5 17t-23.5 71v196q0 47 21 68t71 27l715 88q45 6 68.5 -17t23.5 -71v-197q0 -47 -21 -67.5t-71 -26.5z" />
<glyph unicode="&#xfe;" horiz-adv-x="1417" d="M215 -20q-49 0 -71.5 22t-22.5 72v1327q0 49 22.5 71.5t71.5 22.5h317q50 0 72.5 -22.5t22.5 -71.5v-111h215q115 0 202.5 -20t144 -56t92.5 -89.5t50.5 -115t14.5 -139.5v-262q0 -78 -14.5 -139.5t-50.5 -115t-92.5 -89.5t-144 -56t-202.5 -20h-215v-114 q0 -49 -22.5 -71.5t-72.5 -22.5h-317zM786 866h-163v-268h163q76 0 76 80v108q0 80 -76 80z" />
<glyph unicode="&#xff;" horiz-adv-x="1443" d="M557 -20q-51 0 -72.5 22t-21.5 72v256l-309 413q-50 67 -66 117t-16 148v393q0 49 22 71.5t72 22.5h315q49 0 71.5 -22.5t22.5 -71.5v-336q0 -47 15 -76l96 -147q12 -25 31 -25h20q17 0 33 25l94 147q15 29 15 76v336q0 49 22.5 71.5t71.5 22.5h305q50 0 72 -22.5 t22 -71.5v-393q0 -98 -16 -148t-66 -117l-307 -415v-254q0 -50 -22.5 -72t-71.5 -22h-332zM682 1624q0 -46 -21 -67t-67 -21h-283q-90 0 -90 88v248q0 88 90 88h283q46 0 67 -21t21 -67v-248zM1210 1624q0 -46 -21 -67t-67 -21h-282q-46 0 -67 21t-21 67v248q0 46 21 67 t67 21h282q46 0 67 -21t21 -67v-248z" />
<glyph unicode="&#x152;" horiz-adv-x="2078" d="M623 -20q-148 0 -252.5 31.5t-163 91.5t-84 136.5t-25.5 178.5v639q0 102 25.5 178.5t84 136.5t163 91.5t252.5 31.5h1282q49 0 71.5 -22.5t22.5 -71.5v-240q0 -49 -22.5 -71.5t-71.5 -22.5h-519v-117h353q50 0 72 -21.5t22 -72.5v-219q0 -49 -22.5 -71.5t-71.5 -22.5 h-353v-135h519q49 0 71.5 -22.5t22.5 -72.5v-239q0 -50 -22.5 -72t-71.5 -22h-1282zM678 408h203v655h-203q-45 0 -60.5 -20.5t-15.5 -57.5v-498q0 -38 15.5 -58.5t60.5 -20.5z" />
<glyph unicode="&#x153;" horiz-adv-x="2078" d="M623 -20q-148 0 -252.5 31.5t-163 91.5t-84 136.5t-25.5 178.5v639q0 102 25.5 178.5t84 136.5t163 91.5t252.5 31.5h1282q49 0 71.5 -22.5t22.5 -71.5v-240q0 -49 -22.5 -71.5t-71.5 -22.5h-519v-117h353q50 0 72 -21.5t22 -72.5v-219q0 -49 -22.5 -71.5t-71.5 -22.5 h-353v-135h519q49 0 71.5 -22.5t22.5 -72.5v-239q0 -50 -22.5 -72t-71.5 -22h-1282zM678 408h203v655h-203q-45 0 -60.5 -20.5t-15.5 -57.5v-498q0 -38 15.5 -58.5t60.5 -20.5z" />
<glyph unicode="&#x178;" horiz-adv-x="1443" d="M557 -20q-51 0 -72.5 22t-21.5 72v256l-309 413q-50 67 -66 117t-16 148v393q0 49 22 71.5t72 22.5h315q49 0 71.5 -22.5t22.5 -71.5v-336q0 -47 15 -76l96 -147q12 -25 31 -25h20q17 0 33 25l94 147q15 29 15 76v336q0 49 22.5 71.5t71.5 22.5h305q50 0 72 -22.5 t22 -71.5v-393q0 -98 -16 -148t-66 -117l-307 -415v-254q0 -50 -22.5 -72t-71.5 -22h-332zM682 1624q0 -46 -21 -67t-67 -21h-283q-90 0 -90 88v248q0 88 90 88h283q46 0 67 -21t21 -67v-248zM1210 1624q0 -46 -21 -67t-67 -21h-282q-46 0 -67 21t-21 67v248q0 46 21 67 t67 21h282q46 0 67 -21t21 -67v-248z" />
<glyph unicode="&#x2c6;" horiz-adv-x="1024" d="M172 1530q-68 -22 -89.5 -5.5t-21.5 89.5v166q0 61 18 81.5t81 45.5l260 94q37 16 88 20q48 0 72 -12l282 -102q65 -24 82 -44.5t17 -82.5v-166q0 -73 -21.5 -89t-91.5 5l-281 82q-57 16 -114 0z" />
<glyph unicode="&#x2dc;" horiz-adv-x="1024" d="M870 1550q-96 -28 -151.5 -29t-177.5 19l-33 4l-57 8q-120 15 -162.5 12t-126.5 -30q-101 -27 -101 74v207q0 43 19 63t67 39h3v2q96 28 150.5 29t176.5 -19l35 -4l45 -6q90 -14 134.5 -15.5t70.5 4t96 27.5q51 14 75.5 -3.5t24.5 -69.5v-207q0 -43 -19.5 -63.5 t-66.5 -39.5h-2v-2z" />
<glyph unicode="&#x2000;" horiz-adv-x="1010" />
<glyph unicode="&#x2001;" horiz-adv-x="2021" />
<glyph unicode="&#x2002;" horiz-adv-x="1010" />
<glyph unicode="&#x2003;" horiz-adv-x="2021" />
<glyph unicode="&#x2004;" horiz-adv-x="673" />
<glyph unicode="&#x2005;" horiz-adv-x="505" />
<glyph unicode="&#x2006;" horiz-adv-x="336" />
<glyph unicode="&#x2007;" horiz-adv-x="336" />
<glyph unicode="&#x2008;" horiz-adv-x="252" />
<glyph unicode="&#x2009;" horiz-adv-x="404" />
<glyph unicode="&#x200a;" horiz-adv-x="112" />
<glyph unicode="&#x2010;" horiz-adv-x="860" d="M705 506h-549q-50 0 -72.5 22t-22.5 72v274q0 50 22.5 72.5t72.5 22.5h549q50 0 72 -22t22 -73v-274q0 -51 -22 -72.5t-72 -21.5z" />
<glyph unicode="&#x2011;" horiz-adv-x="860" d="M705 506h-549q-50 0 -72.5 22t-22.5 72v274q0 50 22.5 72.5t72.5 22.5h549q50 0 72 -22t22 -73v-274q0 -51 -22 -72.5t-72 -21.5z" />
<glyph unicode="&#x2012;" horiz-adv-x="860" d="M705 506h-549q-50 0 -72.5 22t-22.5 72v274q0 50 22.5 72.5t72.5 22.5h549q50 0 72 -22t22 -73v-274q0 -51 -22 -72.5t-72 -21.5z" />
<glyph unicode="&#x2013;" horiz-adv-x="1503" d="M1286 506h-1069q-50 0 -72 21.5t-22 72.5v274q0 50 22.5 72.5t71.5 22.5h1069q50 0 72 -22t22 -73v-274q0 -51 -22 -72.5t-72 -21.5z" />
<glyph unicode="&#x2014;" horiz-adv-x="2322" d="M2105 506h-1888q-50 0 -72 21.5t-22 72.5v274q0 50 22.5 72.5t71.5 22.5h1888q50 0 72.5 -22t22.5 -73v-274q0 -50 -22.5 -72t-72.5 -22z" />
<glyph unicode="&#x2018;" horiz-adv-x="786" d="M186 686q-50 0 -72 22t-22 72v385q0 163 86 246.5t238 83.5h157q50 0 72.5 -22t22.5 -72v-82q0 -49 -22.5 -71.5t-72.5 -22.5h-141q-35 0 -35 -37v-10h203q49 0 71.5 -22.5t22.5 -72.5v-303q0 -50 -22 -72t-72 -22h-414z" />
<glyph unicode="&#x2019;" horiz-adv-x="786" d="M213 686q-50 0 -72 21.5t-22 72.5v82q0 50 22.5 72t71.5 22h141q35 0 35 37v11h-203q-50 0 -72 22t-22 72v303q0 49 22 71.5t72 22.5h414q50 0 72 -22.5t22 -71.5v-385q0 -163 -85.5 -246.5t-237.5 -83.5h-158z" />
<glyph unicode="&#x201a;" horiz-adv-x="786" d="M213 -225q-50 0 -72 21.5t-22 72.5v82q0 49 22.5 71.5t71.5 22.5h141q35 0 35 37v10h-203q-50 0 -72 22t-22 72v303q0 50 22.5 72.5t71.5 22.5h414q49 0 71.5 -22.5t22.5 -72.5v-385q0 -163 -85.5 -246t-237.5 -83h-158z" />
<glyph unicode="&#x201c;" horiz-adv-x="1400" d="M821 686q-49 0 -71.5 22t-22.5 72v385q0 163 86 246.5t238 83.5h157q50 0 72.5 -22t22.5 -72v-82q0 -49 -22.5 -71.5t-72.5 -22.5h-141q-35 0 -35 -37v-10h203q49 0 71.5 -22.5t22.5 -72.5v-303q0 -50 -22.5 -72t-71.5 -22h-414zM166 686q-50 0 -72 22t-22 72v385 q0 163 85.5 246.5t237.5 83.5h158q50 0 72 -21.5t22 -72.5v-82q0 -49 -22.5 -71.5t-71.5 -22.5h-141q-35 0 -35 -37v-10h203q49 0 71.5 -22.5t22.5 -72.5v-303q0 -50 -22 -72t-72 -22h-414z" />
<glyph unicode="&#x201d;" horiz-adv-x="1400" d="M193 686q-50 0 -72.5 22t-22.5 72v82q0 49 22.5 71.5t72.5 22.5h141q35 0 35 37v11h-203q-50 0 -72 22t-22 72v303q0 49 22 71.5t72 22.5h414q50 0 72 -22.5t22 -71.5v-385q0 -163 -86 -246.5t-238 -83.5h-157zM848 686q-50 0 -72 21.5t-22 72.5v82q0 50 22 72t72 22h141 q35 0 35 37v11h-203q-49 0 -71.5 22t-22.5 72v303q0 49 22.5 71.5t71.5 22.5h414q49 0 71.5 -22.5t22.5 -71.5v-385q0 -163 -85.5 -246.5t-237.5 -83.5h-158z" />
<glyph unicode="&#x201e;" horiz-adv-x="1400" d="M193 -225q-50 0 -72.5 22t-22.5 72v82q0 49 22.5 71.5t72.5 22.5h141q35 0 35 37v10h-203q-50 0 -72 22t-22 72v303q0 50 22.5 72.5t71.5 22.5h414q49 0 71.5 -22.5t22.5 -72.5v-385q0 -163 -86 -246t-238 -83h-157zM848 -225q-50 0 -72 21.5t-22 72.5v82q0 49 22 71.5 t72 22.5h141q35 0 35 37v10h-203q-49 0 -71.5 22t-22.5 72v303q0 50 22.5 72.5t71.5 22.5h414q49 0 71.5 -22.5t22.5 -72.5v-385q0 -163 -85.5 -246t-237.5 -83h-158z" />
<glyph unicode="&#x2022;" horiz-adv-x="907" d="M836 453q0 -49 -23 -72t-72 -23h-575q-49 0 -71.5 22.5t-22.5 72.5v577q0 51 22 72.5t72 21.5h575q50 0 72.5 -22t22.5 -72v-577z" />
<glyph unicode="&#x2026;" horiz-adv-x="2273" d="M694 74q0 -50 -22 -72t-72 -22h-414q-50 0 -72 22t-22 72v415q0 51 22 73t72 22h414q50 0 72 -22t22 -73v-415zM1438 74q0 -49 -22.5 -71.5t-72.5 -22.5h-413q-50 0 -72 22t-22 72v415q0 51 22 73t72 22h413q50 0 72.5 -22t22.5 -73v-415zM2181 74q0 -50 -22.5 -72 t-71.5 -22h-414q-49 0 -71.5 22t-22.5 72v415q0 51 22 73t72 22h414q50 0 72 -22t22 -73v-415z" />
<glyph unicode="&#x202f;" horiz-adv-x="404" />
<glyph unicode="&#x2039;" horiz-adv-x="1153" d="M1010 276q0 -53 -23.5 -72.5t-75.5 -10.5l-532 108q-143 29 -210 105.5t-67 232.5v152q0 156 66.5 232t210.5 105l532 109q51 9 75 -10.5t24 -73.5v-260q0 -49 -21 -73t-69 -32l-342 -55q-17 -3 -17 -18q0 -16 19 -19l340 -55q48 -8 69 -31.5t21 -72.5v-261z" />
<glyph unicode="&#x203a;" horiz-adv-x="1153" d="M242 193q-52 -9 -75.5 10.5t-23.5 72.5v261q0 49 21 72.5t69 31.5l342 55q17 3 17 19q0 15 -19 18l-340 55q-48 8 -69 32t-21 73v260q0 54 24 73.5t75 10.5l532 -109q144 -29 210.5 -105t66.5 -232v-152q0 -156 -67 -232.5t-210 -105.5z" />
<glyph unicode="&#x205f;" horiz-adv-x="505" />
<glyph unicode="&#x20ac;" horiz-adv-x="1327" d="M664 -20q-148 0 -252.5 31.5t-163 91.5t-84 136.5t-25.5 178.5v10h-8q-38 0 -54 14t-16 54v147q0 40 16 55t54 15h8v43h-8q-39 0 -54.5 13.5t-15.5 53.5v148q0 40 16 54.5t54 14.5h8v15q0 102 25.5 179t84 137.5t163 92t252.5 31.5h499q49 0 71.5 -22.5t22.5 -71.5v-227 q0 -50 -22.5 -72.5t-71.5 -22.5h-432q-76 0 -96 -39h340q38 0 53.5 -14.5t15.5 -54.5v-148q0 -40 -15.5 -53.5t-53.5 -13.5h-348v-43h348q38 0 53.5 -15t15.5 -55v-147q0 -40 -15.5 -54t-53.5 -14h-340q19 -37 96 -37h432q49 0 71.5 -22.5t22.5 -71.5v-223q0 -50 -22.5 -72 t-71.5 -22h-499z" />
<glyph unicode="&#x2122;" horiz-adv-x="1849" d="M305 567q-72 0 -72 74v561h-147q-74 0 -74 74v145q0 39 17.5 56.5t56.5 17.5h635q76 0 76 -74v-145q0 -74 -76 -74h-146v-561q0 -74 -75 -74h-195zM1108 567h-182q-74 0 -74 74v780q0 74 74 74h192q28 0 47 -12t37 -39q3 -6 45 -83.5t64 -113.5q-1 1 -3 -1l-1 -3h10l-4 6 l-2 -2q97 180 106 197q28 51 84 51h195q73 0 73 -74v-780q0 -74 -73 -74h-195q-74 0 -74 74v305l-14 -26q-30 -56 -90 -56h-39q-61 0 -88 56l-14 26v-305q0 -74 -74 -74z" />
<glyph unicode="&#x25fc;" horiz-adv-x="1495" d="M0 1495h1495v-1495h-1495v1495z" />
<glyph unicode="&#xfb01;" horiz-adv-x="2504" d="M215 -20q-49 0 -71.5 22t-22.5 72v1327q0 49 22.5 71.5t71.5 22.5h913q50 0 72.5 -22.5t22.5 -71.5v-244q0 -49 -22.5 -71.5t-72.5 -22.5h-501v-172h336q49 0 71.5 -22.5t22.5 -71.5v-246q0 -49 -22.5 -71.5t-71.5 -22.5h-336v-383q0 -49 -22.5 -71.5t-72.5 -22.5h-317z M1448 -20q-50 0 -72 22t-22 72v243q0 50 22.5 72.5t71.5 22.5h182v647h-182q-50 0 -72 22.5t-22 71.5v248q0 49 22 71.5t72 22.5h872q50 0 72.5 -22.5t22.5 -71.5v-248q0 -49 -22.5 -71.5t-72.5 -22.5h-178v-647h178q50 0 72.5 -23t22.5 -72v-243q0 -49 -22.5 -71.5 t-72.5 -22.5h-872z" />
<glyph unicode="&#xfb02;" horiz-adv-x="2689" d="M215 -20q-49 0 -71.5 22t-22.5 72v1327q0 49 22.5 71.5t71.5 22.5h913q50 0 72.5 -22.5t22.5 -71.5v-244q0 -49 -22.5 -71.5t-72.5 -22.5h-501v-172h336q49 0 71.5 -22.5t22.5 -71.5v-246q0 -49 -22.5 -71.5t-71.5 -22.5h-336v-383q0 -49 -22.5 -71.5t-72.5 -22.5h-317z M1481 -20q-50 0 -72.5 22.5t-22.5 71.5v1327q0 49 22.5 71.5t72.5 22.5h317q50 0 72 -22.5t22 -71.5v-993h240v311q0 49 22 71.5t72 22.5h297q49 0 71.5 -22.5t22.5 -71.5v-645q0 -50 -22.5 -72t-71.5 -22h-1042z" />
</font>
</defs>
</svg>
